<svg width="202" height="182" viewBox="0 0 202 182" fill="none" xmlns="http://www.w3.org/2000/svg">
<path d="M29.5831 166.162C69.0249 186.786 132.977 186.786 172.419 166.162C211.86 145.539 211.86 112.146 172.419 91.541C132.977 70.9356 69.0249 70.9173 29.5831 91.541C-9.85873 112.165 -9.86331 145.562 29.5831 166.162Z" fill="#F5F5F5"/>
<path d="M147.552 147.458C157.902 147.458 166.292 142.614 166.292 136.637C166.292 130.661 157.902 125.817 147.552 125.817C137.202 125.817 128.812 130.661 128.812 136.637C128.812 142.614 137.202 147.458 147.552 147.458Z" fill="#E0E0E0"/>
<path d="M35.8806 145.919L34.634 145.2C34.1002 144.852 33.656 144.383 33.3375 143.831C33.0189 143.279 32.8351 142.66 32.8008 142.023V32.7221C32.8347 32.0851 33.0184 31.4652 33.3369 30.9125C33.6555 30.3599 34.0999 29.8901 34.634 29.5415L85.0476 0.43904C85.6156 0.150426 86.2438 0 86.8809 0C87.518 0 88.1461 0.150426 88.7141 0.43904L89.9607 1.15858C90.4942 1.50679 90.9382 1.9758 91.2567 2.5276C91.5752 3.0794 91.7593 3.69846 91.7939 4.33464V113.641C91.7593 114.277 91.5752 114.896 91.2567 115.448C90.9382 115.999 90.4942 116.468 89.9607 116.817L39.547 145.919C38.979 146.208 38.3509 146.358 37.7138 146.358C37.0767 146.358 36.4486 146.208 35.8806 145.919V145.919Z" fill="#37474F"/>
<path d="M40.1749 34.8808L33.337 30.9348C33.008 31.4832 32.8236 32.106 32.8008 32.7451V142.024C32.8351 142.66 33.0189 143.279 33.3375 143.831C33.656 144.383 34.1002 144.852 34.634 145.2L35.8806 145.919C36.4486 146.208 37.0767 146.358 37.7138 146.358C38.3509 146.358 38.979 146.208 39.547 145.919L40.1703 145.562L40.1749 34.8808Z" fill="#263238"/>
<path d="M37.7139 35.5586V144.874C37.7139 146.047 38.5342 146.519 39.5471 145.932L89.9607 116.83C90.4943 116.482 90.9383 116.013 91.2568 115.461C91.5753 114.909 91.7593 114.29 91.794 113.654V4.3342C91.794 3.16552 90.9736 2.69347 89.9607 3.27552L39.5471 32.3825C39.0128 32.7299 38.5682 33.1987 38.2496 33.7507C37.931 34.3027 37.7474 34.9221 37.7139 35.5586V35.5586Z" fill="#455A64"/>
<path d="M41.7468 42.4704L87.5774 16.0032C88.4436 15.5036 89.1494 15.9115 89.1494 16.9198V104.112C89.1198 104.658 88.962 105.189 88.6889 105.662C88.4158 106.135 88.035 106.537 87.5774 106.835L41.7468 133.297C40.876 133.802 40.1748 133.394 40.1748 132.381V45.1927C40.2033 44.647 40.3606 44.1159 40.6338 43.6427C40.907 43.1695 41.2884 42.7678 41.7468 42.4704V42.4704Z" fill="#FAFAFA"/>
<g opacity="0.4">
<path d="M64.9198 49.3404C70.0574 46.3752 74.2234 48.7813 74.2234 54.7118C74.2234 60.6422 70.0574 67.8651 64.9198 70.8304C59.7822 73.7956 55.6162 71.3941 55.6162 65.459C55.6162 59.524 59.7822 52.2965 64.9198 49.3404Z" fill="#0A151E"/>
<path d="M83.2569 81.0784C83.2569 71.3302 76.4144 66.9993 67.9724 71.8756L62.6927 74.9234C54.2507 79.7951 47.4082 91.6515 47.4082 101.4V104.026L83.2569 83.3379V81.0784Z" fill="#0A151E"/>
</g>
<path d="M64.7536 20.6733C65.4319 20.2792 65.9819 20.6 65.9819 21.3837C65.9592 21.8098 65.8361 22.2246 65.6226 22.5941C65.4092 22.9637 65.1114 23.2776 64.7536 23.5102C64.0754 23.9044 63.5254 23.5835 63.5254 22.7998C63.5481 22.3737 63.6712 21.9589 63.8847 21.5894C64.0981 21.2198 64.3959 20.9059 64.7536 20.6733Z" fill="#263238"/>
<path d="M61.2069 26.8052C63.7046 25.4303 68.1594 22.7767 70.6205 21.3285C71.0375 21.081 71.3767 21.2506 71.3767 21.7043C71.3585 21.9602 71.2802 22.2082 71.148 22.428C71.0157 22.6478 70.8334 22.8333 70.6159 22.9692L61.1885 28.4139C60.7669 28.6568 60.4277 28.4872 60.4277 28.0289C60.449 27.7772 60.531 27.5343 60.6667 27.3212C60.8024 27.1081 60.9877 26.931 61.2069 26.8052V26.8052Z" fill="#263238"/>
<path d="M58.8229 28.1852C59.2033 27.9652 59.5149 28.144 59.5149 28.5839C59.5015 28.8236 59.4318 29.0568 59.3116 29.2646C59.1914 29.4724 59.024 29.649 58.8229 29.7801C58.4425 30.0001 58.1309 29.8214 58.1309 29.3814C58.1443 29.1417 58.214 28.9086 58.3342 28.7008C58.4544 28.493 58.6218 28.3164 58.8229 28.1852V28.1852Z" fill="#263238"/>
<path d="M64.7544 122.876C66.1293 122.092 67.2155 122.729 67.2155 124.297C67.1695 125.15 66.9226 125.98 66.4949 126.72C66.0673 127.46 65.4709 128.089 64.7544 128.554C63.3795 129.338 62.2979 128.701 62.2979 127.134C62.344 126.281 62.5905 125.451 63.0173 124.711C63.4441 123.971 64.0392 123.343 64.7544 122.876V122.876Z" fill="#263238"/>
<path d="M106.557 92.2341L101.029 89.026L100.97 88.9939C98.2199 87.4448 94.4527 87.6694 90.2775 90.0846C86.3727 92.3349 82.8071 96.0884 80.1214 100.438C77.0187 105.442 75.0801 111.24 75.0801 116.433C75.0801 121.277 76.7758 124.682 79.5165 126.272L85.1307 129.481C87.9035 131.25 91.8128 131.089 96.1576 128.587C104.549 123.793 111.364 111.973 111.364 102.253C111.364 97.2113 109.513 93.7328 106.557 92.2341Z" fill="#60BF60"/>
<path opacity="0.1" d="M85.0113 129.453L79.5116 126.309C76.7618 124.719 75.0752 121.314 75.0752 116.469C75.0752 111.272 77.0276 105.47 80.1166 100.474L85.992 103.861C82.8847 108.871 80.9507 114.654 80.9507 119.842C80.9278 124.467 82.4814 127.78 85.0113 129.453Z" fill="#34A853"/>
<path opacity="0.4" d="M106.46 92.1696C103.747 90.8543 100.131 91.1888 96.1619 93.4758C92.1929 95.7627 88.6732 99.5025 85.9829 103.852L80.1074 100.465C82.7931 96.1156 86.3587 92.3621 90.2635 90.1118C94.4341 87.7011 98.2059 87.472 100.956 89.021L101.015 89.0531L106.46 92.1696Z" fill="white"/>
<path d="M104.072 98.3573L101.964 97.1382L93.71 116.593L95.117 117.404L104.072 98.3573Z" fill="white"/>
<path d="M92.092 112.249L89.9838 111.034L87.7197 115.823L89.8279 117.038L92.092 112.249Z" fill="white"/>
<path d="M95.6578 123.111L89.8281 117.038L92.0921 112.249L95.117 117.405L104.072 98.3574L107.39 101.593L95.6578 123.111Z" fill="#F5F5F5"/>
<path d="M87.7197 115.823L89.8279 117.038L95.6576 123.11L93.554 121.905L87.7197 115.823Z" fill="#E0E0E0"/>
<path d="M149.539 44.469C151.926 44.469 154.216 43.5206 155.904 41.8326C157.592 40.1446 158.54 37.8551 158.54 35.4678V34.9362C158.541 33.9343 158.344 32.9422 157.961 32.0164C157.578 31.0906 157.016 30.2493 156.308 29.5407C155.6 28.8321 154.759 28.2699 153.833 27.8864C152.908 27.5028 151.916 27.3054 150.914 27.3054H148.164C146.14 27.3054 144.199 28.1094 142.768 29.5404C141.337 30.9715 140.533 32.9124 140.533 34.9362V35.4678C140.533 36.6503 140.766 37.8211 141.219 38.9135C141.671 40.0059 142.335 40.9983 143.171 41.8342C144.008 42.6701 145 43.333 146.093 43.7851C147.186 44.2372 148.356 44.4696 149.539 44.469V44.469Z" fill="#263238"/>
<path d="M140.254 133.504C139.205 134.605 138.054 135.606 136.817 136.492C136.629 136.618 136.472 136.786 136.359 136.982C136.198 137.321 135.946 138.156 137.482 138.692C138.258 138.961 139.083 139.059 139.901 138.98C140.719 138.901 141.51 138.646 142.221 138.234C143.486 137.445 143.541 135.805 144.732 134.865C145.612 134.173 146.712 133.994 147.427 133.087C147.922 132.454 147.794 131.616 147.532 130.575C147.253 129.439 147.12 128.582 146.744 128.669L146.808 129.191C146.35 129.938 143.907 130.158 142.826 129.649C142.807 129.64 140.937 132.757 140.254 133.504Z" fill="#263238"/>
<path d="M139.186 134.563C139.553 134.228 139.91 133.88 140.254 133.504C140.974 132.57 141.636 131.594 142.238 130.58C142.653 129.966 142.849 129.229 142.793 128.49C142.706 127.702 142.49 125.69 142.49 125.69L146.34 125.415L146.799 129.191C146.89 130.049 146.184 130.809 144.929 131.891C143.673 132.973 142.087 135.489 140.951 136.121C139.814 136.754 139.007 136.731 138.522 136.405C138.036 136.08 137.967 135.814 139.186 134.563Z" fill="#B16668"/>
<path d="M154.898 133.848V133.266C154.673 133.949 153.614 136.868 152.006 138.335C150.732 139.499 148.99 140.841 148.545 142.143C148.101 143.445 150.97 143.944 152.161 143.733C153.536 143.49 155.342 142.702 156.318 141.506C157.001 140.663 157.441 139.673 157.931 138.999C158.422 138.325 159.549 137.597 159.815 136.827C159.962 136.405 159.788 135.484 159.581 134.705C159.375 133.926 159.192 133.202 158.949 133.266V133.724C158.372 134.177 157.657 134.418 156.923 134.407C156.332 134.416 154.893 134.297 154.898 133.848Z" fill="#263238"/>
<path d="M150.85 139.374C151.244 139.021 151.643 138.678 152.005 138.348C153.128 137.326 153.985 135.598 154.475 134.406C154.756 133.731 154.9 133.007 154.901 132.275V129.984H158.948V133.742V133.843C158.756 134.686 156.895 136.922 155.841 138.38C155.135 139.356 153.792 140.603 152.175 140.818C150.639 140.992 149.86 140.511 150.85 139.374Z" fill="#B16668"/>
<path d="M158.142 70.9405C161.281 77.7921 158.027 101.936 158.027 101.936C158.124 103.049 159.402 105.24 159.861 110.135C160.42 115.919 158.981 130.438 158.981 130.438C158.364 130.797 157.668 131 156.955 131.029C156.241 131.057 155.532 130.911 154.888 130.603C154.888 130.603 151.034 108.728 150.305 102.981C149.672 97.9622 148.472 86.1654 148.472 86.1654L145.319 103.086C145.902 104.669 146.315 106.31 146.551 107.981C146.877 111.368 146.634 127.01 146.634 127.01C146.634 127.01 145.259 128.064 142.596 127.674C142.596 127.674 138.013 106.253 137.651 102.183C137.44 99.7541 140.208 69.9368 140.208 69.9368L158.142 70.9405Z" fill="#0A151E"/>
<path opacity="0.6" d="M158.142 70.9405C161.281 77.7921 158.027 101.936 158.027 101.936C158.124 103.049 159.402 105.24 159.861 110.135C160.42 115.919 158.981 130.438 158.981 130.438C158.364 130.797 157.668 131 156.955 131.029C156.241 131.057 155.532 130.911 154.888 130.603C154.888 130.603 151.034 108.728 150.305 102.981C149.672 97.9622 148.472 86.1654 148.472 86.1654L145.319 103.086C145.902 104.669 146.315 106.31 146.551 107.981C146.877 111.368 146.634 127.01 146.634 127.01C146.634 127.01 145.259 128.064 142.596 127.674C142.596 127.674 138.013 106.253 137.651 102.183C137.44 99.7541 140.208 69.9368 140.208 69.9368L158.142 70.9405Z" fill="black"/>
<path opacity="0.3" d="M148.467 86.1652L147.45 80.5601C147.45 80.5601 143.137 79.6664 141.185 77.8103C141.185 77.8103 143.233 80.3631 146.281 81.1972L147.427 86.0965L145.626 101.404L148.467 86.1652Z" fill="black"/>
<path d="M163.257 67.9618C163.225 67.5035 162.381 62.7142 161.804 60.0286L156.162 61.7564L157.166 66.6969L161.914 70.51C163.408 70.2167 163.289 68.411 163.257 67.9618Z" fill="#B16668"/>
<path d="M135.969 57.8428L133.302 62.7329L137.454 66.2893L141.253 60.2626L135.969 57.8428Z" fill="#B16668"/>
<path d="M145.979 46.9482C143.335 46.9757 140.42 47.9336 139.416 50.0097C138.412 52.0858 135.64 57.8009 135.64 57.8009C135.64 57.8009 138.11 61.1557 141.818 60.9128L145.979 46.9482Z" fill="#0A151E"/>
<path opacity="0.6" d="M145.979 46.9482C143.335 46.9757 140.42 47.9336 139.416 50.0097C138.412 52.0858 135.64 57.8009 135.64 57.8009C135.64 57.8009 138.11 61.1557 141.818 60.9128L145.979 46.9482Z" fill="black"/>
<path d="M151.451 47.0399L153.656 47.1316C156.048 47.7044 156.914 49.3498 157.918 51.4717C158.654 53.1103 158.723 54.9711 158.11 56.6597L155.306 64.7718C155.306 64.7718 156.616 67.9432 158.142 70.9405C151.107 74.8682 142.322 72.8013 140.204 69.9369C140.117 69.3273 140.236 66.5912 140.067 63.4747C139.888 60.1474 139.43 56.3939 139.952 54.3407C140.924 50.5276 142.739 46.9482 146.369 46.9482L151.451 47.0399Z" fill="#F5F5F5"/>
<path d="M153.665 47.1316C156.062 47.4707 159.591 47.952 160.805 53.6579C162.038 59.4417 162.272 60.8212 162.272 60.8212C162.272 60.8212 160.173 62.9156 156.19 62.8973C156.181 62.8973 152.67 51.5405 153.665 47.1316Z" fill="#0A151E"/>
<path opacity="0.6" d="M153.665 47.1316C156.062 47.4707 159.591 47.952 160.805 53.6579C162.038 59.4417 162.272 60.8212 162.272 60.8212C162.272 60.8212 160.173 62.9156 156.19 62.8973C156.181 62.8973 152.67 51.5405 153.665 47.1316Z" fill="black"/>
<path d="M156.075 62.5447C155.616 61.0277 155.158 59.2953 154.723 57.4346C154.741 59.7737 154.979 62.106 155.433 64.4008L156.075 62.5447Z" fill="#EBEBEB"/>
<path d="M143.472 30.9441C142.524 31.5078 141.35 33.9002 141.465 38.914C141.561 43.1625 142.941 44.212 143.633 44.5145C144.325 44.817 145.658 44.6337 146.955 44.4183V46.971C146.955 46.971 145.163 49.0518 145.273 50.2204C145.383 51.3891 147.863 51.6687 149.54 50.5229C150.626 49.741 151.558 48.7652 152.29 47.6448V41.476C152.29 41.476 153.165 42.6446 154.582 41.6959C155.998 40.7472 156.066 38.3916 155.237 37.5437C154.407 36.6958 152.606 36.9662 152.276 38.1349C152.276 38.1349 150.205 38.2128 147.45 36.7004C146.382 36.1201 145.466 35.2967 144.775 34.2968C144.084 33.2968 143.637 32.1483 143.472 30.9441V30.9441Z" fill="#B16668"/>
<path d="M146.207 37.8465C146.205 37.9517 146.235 38.0551 146.291 38.1437C146.348 38.2324 146.43 38.3024 146.526 38.3451C146.622 38.3878 146.729 38.4012 146.832 38.3837C146.936 38.3661 147.033 38.3185 147.109 38.2466C147.186 38.1747 147.24 38.0818 147.265 37.9795C147.289 37.8771 147.283 37.7698 147.247 37.671C147.211 37.5721 147.146 37.4861 147.062 37.4235C146.977 37.361 146.876 37.3248 146.771 37.3194C146.699 37.317 146.628 37.3287 146.561 37.3538C146.494 37.379 146.432 37.4171 146.38 37.4661C146.327 37.515 146.285 37.5738 146.256 37.6391C146.226 37.7044 146.209 37.7748 146.207 37.8465Z" fill="#263238"/>
<path d="M146.065 41.4485L144.823 41.8472C144.844 41.9313 144.882 42.0102 144.935 42.0793C144.987 42.1483 145.053 42.206 145.129 42.2488C145.204 42.2916 145.287 42.3187 145.373 42.3285C145.46 42.3382 145.547 42.3304 145.63 42.3055C145.8 42.2479 145.941 42.1259 146.022 41.9658C146.104 41.8056 146.119 41.6199 146.065 41.4485V41.4485Z" fill="#9A4A4D"/>
<path d="M141.827 36.2059L142.908 35.4589C142.863 35.3832 142.803 35.3177 142.731 35.2666C142.659 35.2155 142.578 35.18 142.491 35.1623C142.405 35.1446 142.316 35.1451 142.23 35.1639C142.144 35.1826 142.063 35.2191 141.992 35.271C141.85 35.3764 141.754 35.5319 141.723 35.7057C141.693 35.8795 141.73 36.0584 141.827 36.2059Z" fill="#263238"/>
<path d="M142.074 37.4617C142.073 37.5667 142.104 37.6696 142.161 37.7577C142.218 37.8458 142.3 37.9151 142.396 37.9571C142.493 37.9991 142.599 38.0118 142.703 37.9938C142.806 37.9757 142.902 37.9277 142.978 37.8556C143.055 37.7836 143.108 37.6906 143.132 37.5884C143.156 37.4861 143.15 37.379 143.114 37.2805C143.077 37.1819 143.013 37.0961 142.928 37.0338C142.844 36.9715 142.743 36.9354 142.638 36.93C142.493 36.9275 142.353 36.9817 142.248 37.081C142.142 37.1804 142.08 37.317 142.074 37.4617V37.4617Z" fill="#263238"/>
<path d="M144.595 37.1545L144.512 40.3718L142.821 39.8494L144.595 37.1545Z" fill="#9A4A4D"/>
<path d="M146.955 44.4184C148.33 44.2396 151.13 43.433 151.57 42.3193C151.395 42.8826 151.051 43.3785 150.585 43.7401C149.746 44.4596 146.955 45.2708 146.955 45.2708V44.4184Z" fill="#9A4A4D"/>
<path d="M124.585 57.5447L140.099 61.6282L144.682 80.8862L129.929 76.601L124.585 57.5447Z" fill="#0A151E"/>
<path opacity="0.15" d="M131.349 70.2849C131.207 70.6791 130.355 71.7698 128.549 71.6827L128.329 70.8853L131.349 70.2849Z" fill="black"/>
<path opacity="0.15" d="M134.819 70.8857C134.888 71.399 135.942 72.3523 137.725 72.9435C139.755 73.6218 142.867 73.2644 142.867 73.2644L142.588 72.3065L134.819 70.8857Z" fill="black"/>
<path opacity="0.15" d="M129.127 60.3309C129.127 60.3309 129.072 60.0651 128.998 59.7397C128.925 59.4143 129.842 59.396 131.033 59.7076L133.325 60.2988C134.516 60.6105 135.543 61.1283 135.616 61.4537L135.745 62.045L129.127 60.3309Z" fill="black"/>
<path d="M128.055 58.0988C128.009 57.8926 128.375 57.8422 128.875 57.9797L129.792 58.2272C129.792 58.2272 129.521 56.9485 131.529 57.3976C133.536 57.8468 133.976 59.295 133.976 59.295L134.943 59.57C135.479 59.7212 135.96 60.0283 136.025 60.2162L136.139 60.5829L128.146 58.4792C128.146 58.4792 128.096 58.3005 128.055 58.0988Z" fill="#37474F"/>
<path d="M129.154 58.7363C129.888 58.915 130.19 59.0113 130.3 59.5154C130.424 60.0929 130.474 60.5145 130.474 60.5145L134.012 61.4311C134.012 61.4311 133.843 60.7024 133.788 60.4183C133.733 60.1341 133.852 59.96 134.416 60.1112L134.462 59.8867L128.916 58.4934L129.154 58.7363Z" fill="#37474F"/>
<path d="M129.031 60.3855C129.031 60.3855 128.976 60.1197 128.903 59.7943C128.829 59.4689 129.746 59.4551 130.937 59.7622L133.229 60.358C134.421 60.6651 135.447 61.183 135.52 61.5084L135.649 62.0996L129.031 60.3855Z" fill="#37474F"/>
<path d="M161.914 70.5096L157.162 66.6965C157.162 66.6965 146.657 68.5664 145.42 68.6626C144.767 68.6803 144.124 68.5003 143.575 68.1462C143.026 67.792 142.597 67.2803 142.345 66.6782C141.886 65.4637 141.048 65.6149 141.048 65.6149C141.048 65.6149 141.41 67.1502 141.506 67.6406C141.602 68.131 138.664 68.5572 137.024 67.9798C135.383 67.4023 133.004 68.2318 134.475 70.4638C135.947 72.6957 138.811 72.957 140.796 72.957C141.628 72.9508 142.459 72.8957 143.284 72.792C143.926 72.7095 144.567 72.6453 145.214 72.5995C149.306 72.3062 160.081 71.0871 161.914 70.5096Z" fill="#B16668"/>
<path d="M126.167 63.1727L126.854 65.6292C126.987 66.0875 128.788 66.9583 129.93 67.2745C131.071 67.5907 132.317 67.9574 131.763 69.566C131.268 71.0372 129.389 71.3717 128.435 71.3305C127.482 71.2893 126.171 70.3772 125.658 68.9061C124.998 67.027 125.351 65.0196 125.09 63.9243C124.829 62.8289 125.594 62.5173 126.167 63.1727Z" fill="#B16668"/>
<path d="M157.396 54.3412C156.725 54.3418 156.062 54.2103 155.442 53.9542C154.823 53.6981 154.26 53.3225 153.786 52.8488C153.312 52.375 152.935 51.8125 152.679 51.1933C152.422 50.5742 152.29 49.9105 152.29 49.2402V42.0769C153.643 42.0781 154.939 42.6159 155.896 43.5723C156.852 44.5286 157.39 45.8254 157.391 47.1779L157.396 54.3412Z" fill="#263238"/>
</svg>
