<svg width="24" height="24" viewBox="0 0 24 24" fill="none" xmlns="http://www.w3.org/2000/svg">
<path d="M17.3756 13.2719L8.89158 4.78788L10.6916 2.98788C11.2916 2.31588 13.4516 2.42388 14.9036 3.37188C16.3556 4.33188 16.6196 4.90788 18.3956 5.89188C19.8116 6.65988 21.3356 7.40388 23.7356 6.91188L17.3756 13.2719ZM16.5236 14.1239L8.03958 5.63988L5.91558 7.76388C5.80434 7.8749 5.71608 8.00677 5.65586 8.15194C5.59565 8.2971 5.56465 8.45272 5.56465 8.60988C5.56465 8.76705 5.59565 8.92267 5.65586 9.06783C5.71608 9.213 5.80434 9.34487 5.91558 9.45588L7.18758 10.7279C7.65558 11.1959 7.65558 11.9639 7.18758 12.4319C6.46758 13.1519 5.47158 13.7639 4.53558 14.4599C4.11558 14.7719 3.69558 15.0959 3.32358 15.4679C1.71558 17.0759 0.479583 19.2959 1.67958 20.4839C2.86758 21.6839 5.08758 20.4479 6.69558 18.8519C7.06758 18.4799 7.39158 18.0599 7.71558 17.6279C8.39958 16.6919 9.01158 15.6959 9.74358 14.9759C9.8546 14.8646 9.98647 14.7764 10.1316 14.7162C10.2768 14.6559 10.4324 14.625 10.5896 14.625C10.7467 14.625 10.9024 14.6559 11.0475 14.7162C11.1927 14.7764 11.3246 14.8646 11.4356 14.9759L12.7076 16.2479C13.1756 16.7159 13.9316 16.7159 14.3996 16.2479L16.5236 14.1239Z" fill="black"/>
</svg>
