<svg width="158" height="28" viewBox="0 0 158 28" fill="none" xmlns="http://www.w3.org/2000/svg">
<path d="M10.752 17.696C9.576 18.92 7.536 19.472 6.36 18.152C6.048 17.84 5.784 17.456 5.592 17.072C4.896 15.272 6.264 12.56 8.184 12.368C8.928 12.296 9.648 12.752 10.272 13.544C11.856 15.512 14.76 14.336 14.88 12.368C15.072 9.512 12.072 8.504 9.912 8.336C8.472 8.216 7.056 8.504 5.784 9.032C2.496 10.448 0.552 13.88 0.96 17.216C1.08 18.32 1.488 19.376 1.992 20.24C2.52 21.2 3.24 21.992 4.032 22.64C5.76 23.864 7.704 24.44 9.744 24.152C11.568 23.936 13.2 23.192 14.592 21.92C14.832 21.704 15 21.512 15.072 21.44C15.192 21.296 15.336 21.08 15.456 20.864C15.48 20.816 15.528 20.768 15.528 20.72C15.528 20.648 15.552 20.576 15.576 20.528C15.648 20.408 15.672 20.312 15.72 20.216C16.704 17.288 13.32 14.984 10.752 17.696ZM35.5041 23.408C34.3521 21.728 34.6881 18.776 34.7121 15.752C34.7121 9.032 28.7361 5.84 24.3921 11.816C23.7921 12.512 23.2641 13.208 22.8081 13.928C22.7601 13.976 22.7361 14.072 22.6641 14.144C22.6161 14.24 22.5441 14.312 22.4961 14.384C22.3761 14.6 22.3041 14.744 22.2081 14.912C22.0881 15.104 21.9921 15.32 21.8481 15.536C21.9201 14.576 21.9921 13.568 22.1361 12.584C22.3521 10.568 22.7361 8.576 23.0961 7.088C23.2401 6.344 23.4081 5.72 23.5041 5.264C24.3921 1.736 18.6801 0.751999 17.9601 4.592C17.2161 9.176 16.6161 17.936 18.7761 22.136C19.4721 23.672 21.5361 23.504 22.4481 21.968C22.8081 21.368 23.1441 20.624 23.3361 19.856C24.3441 15.824 29.6481 7.496 30.0321 16.904C30.1041 19.4 29.8881 21.8 30.2481 24.104C30.5601 26.12 31.3761 27.752 33.5361 27.776C35.5281 27.824 36.8001 26.24 36.1521 24.416C35.9841 24.008 35.7441 23.744 35.5041 23.408ZM51.3227 13.928C50.2667 12.512 48.6107 13.136 47.5067 14.144C46.6667 14.912 45.8987 15.92 45.2987 16.688C44.8187 17.36 44.2427 17.864 43.7147 18.392C42.3707 19.736 41.1227 19.52 41.6507 17.408C42.2507 15.824 43.4027 14.576 44.9627 13.976C45.5627 13.784 45.9707 13.736 46.1147 13.712C47.7707 13.328 49.3547 11.456 48.7547 9.824C48.5867 9.44 48.3227 9.08 47.9627 8.816C47.5787 8.504 47.0987 8.288 46.5707 8.168C46.0907 8.048 45.5147 8.024 44.9387 8.12C41.1227 8.816 37.1627 12.704 36.6827 16.4C36.3227 18.68 36.6827 21.392 38.5307 22.808C39.2267 23.36 40.0187 23.768 40.9307 23.912C43.6667 24.272 47.1227 21.992 48.1547 19.544C48.1787 19.472 48.2747 19.352 48.3467 19.208C48.4187 19.112 48.5147 19.016 48.6347 18.992C48.7067 18.968 48.7547 18.992 48.8027 19.04C48.8267 19.064 48.8747 19.088 48.8987 19.112C48.9227 19.184 48.9707 19.304 48.9947 19.424C49.0907 19.904 49.1867 20.336 49.1867 20.72C49.1867 21.008 49.2347 21.272 49.2347 21.536C49.2587 21.824 49.2587 22.064 49.2587 22.16C49.2587 22.712 49.4267 23.072 49.6907 23.36C49.9547 23.6 50.3147 23.768 50.6507 23.816C51.0347 23.888 51.3947 23.768 51.7067 23.504C52.0187 23.24 52.2347 22.808 52.2587 22.208C52.3787 19.352 52.7867 16.112 51.3227 13.928ZM60.675 14.072C62.475 14 64.299 13.736 64.539 13.688C66.243 13.352 66.051 10.448 64.419 10.472C63.939 10.472 62.403 10.4 60.891 10.376C60.939 9.848 60.987 9.368 61.011 8.888C61.203 7.016 61.539 5.288 61.587 5.072C61.587 2.168 56.043 2.408 55.731 5.144C55.659 6.704 55.827 9.152 55.827 10.664C55.491 10.64 55.131 10.592 54.819 10.64C53.283 10.904 53.547 14.192 54.843 14.432C55.131 14.48 55.515 14.504 56.091 14.456C56.379 17.528 56.859 20.648 58.683 22.784C59.019 23.168 59.379 23.48 59.763 23.72C60.147 23.96 60.555 24.152 60.963 24.272C61.059 24.296 61.179 24.32 61.275 24.344C61.371 24.344 61.467 24.392 61.563 24.392C61.779 24.44 61.971 24.44 62.163 24.44C62.979 24.44 63.675 24.176 64.251 23.84C64.923 23.408 65.571 22.808 66.027 22.112C68.067 19.088 65.283 16.424 63.531 18.416C61.131 21.152 60.579 15.752 60.675 14.072Z" fill="#386FA4"/>
<path d="M79.3941 13.016C77.9061 11.648 75.6261 11.144 73.3941 12.632C73.5621 10.832 73.8501 9.128 74.2101 7.448L74.4981 6.488L74.5941 6.008C75.5061 2 69.8181 0.847999 69.0261 4.76C68.2101 9.416 67.6821 16.04 68.9781 20.024C69.1701 20.576 69.4341 21.2 69.8181 21.8C70.2261 22.4 70.8021 23.024 71.4741 23.48C72.1941 23.96 73.0101 24.248 73.8261 24.296C74.6661 24.368 75.4581 24.272 76.1061 24.008C76.8261 23.768 77.4021 23.456 77.9061 23.072C80.9301 20.6 82.4901 15.968 79.3941 13.016ZM75.7221 19.712C74.6421 20.408 73.7061 20.24 73.3701 18.536C73.1541 17.528 73.0821 16.184 73.7781 15.416C74.5941 14.456 75.8661 13.88 76.8261 15.008C78.0261 16.616 77.2101 18.776 75.7221 19.712ZM92.679 18.752C91.551 19.424 89.007 20.12 88.167 17.72C88.191 17.72 88.287 17.744 88.311 17.744C90.111 17.744 91.695 17.336 93.015 16.424C93.759 15.92 94.503 15.224 95.079 14.312C95.175 14.216 95.223 14.096 95.271 13.976C95.319 13.904 95.367 13.832 95.367 13.784C95.439 13.712 95.463 13.616 95.487 13.544C95.631 13.256 95.727 12.944 95.799 12.584C95.967 11.912 95.967 11.216 95.775 10.52C95.175 8.432 92.583 7.184 90.663 7.184C89.991 7.184 89.271 7.256 88.623 7.472C87.975 7.664 87.351 7.928 86.775 8.264C86.175 8.624 85.647 9.056 85.167 9.584C84.255 10.544 83.607 11.768 83.223 12.968C82.839 14.192 82.695 15.416 82.767 16.616C82.815 17.816 83.079 18.992 83.607 20.144C83.847 20.696 84.183 21.224 84.591 21.728C85.023 22.184 85.431 22.592 85.887 22.952C86.367 23.288 86.823 23.552 87.303 23.768C87.759 23.984 88.191 24.152 88.647 24.272C90.735 24.824 93.399 24.848 94.935 23.336C96.135 22.208 96.711 20.504 95.463 19.208C94.815 18.512 93.759 18.104 92.679 18.752ZM88.791 11.96C89.031 11.696 89.319 11.456 89.583 11.288C90.159 10.856 90.855 10.616 91.503 10.592C92.919 10.448 93.255 11.744 92.391 12.8C90.951 14.528 88.959 14.672 87.687 14.72C87.783 14.048 87.951 13.448 88.215 12.896C88.407 12.536 88.599 12.224 88.791 11.96ZM107.471 18.752C106.343 19.424 103.799 20.12 102.959 17.72C102.983 17.72 103.079 17.744 103.103 17.744C104.903 17.744 106.487 17.336 107.807 16.424C108.551 15.92 109.295 15.224 109.871 14.312C109.967 14.216 110.015 14.096 110.063 13.976C110.111 13.904 110.159 13.832 110.159 13.784C110.231 13.712 110.255 13.616 110.279 13.544C110.423 13.256 110.519 12.944 110.591 12.584C110.759 11.912 110.759 11.216 110.567 10.52C109.967 8.432 107.375 7.184 105.455 7.184C104.783 7.184 104.063 7.256 103.415 7.472C102.767 7.664 102.143 7.928 101.567 8.264C100.967 8.624 100.439 9.056 99.9589 9.584C99.0469 10.544 98.3989 11.768 98.0149 12.968C97.6309 14.192 97.4869 15.416 97.5589 16.616C97.6069 17.816 97.8709 18.992 98.3989 20.144C98.6389 20.696 98.9749 21.224 99.3829 21.728C99.8149 22.184 100.223 22.592 100.679 22.952C101.159 23.288 101.615 23.552 102.095 23.768C102.551 23.984 102.983 24.152 103.439 24.272C105.527 24.824 108.191 24.848 109.727 23.336C110.927 22.208 111.503 20.504 110.255 19.208C109.607 18.512 108.551 18.104 107.471 18.752ZM103.583 11.96C103.823 11.696 104.111 11.456 104.375 11.288C104.951 10.856 105.647 10.616 106.295 10.592C107.711 10.448 108.047 11.744 107.183 12.8C105.743 14.528 103.751 14.672 102.479 14.72C102.575 14.048 102.743 13.448 103.007 12.896C103.199 12.536 103.391 12.224 103.583 11.96ZM112.447 10.256C111.487 14.408 112.471 22.784 113.287 24.92C113.695 26 114.367 26.744 115.663 26.6C117.295 26.36 117.655 25.712 117.655 24.776C117.631 24.344 117.823 22.808 117.823 22.4C122.887 24.008 126.511 21.056 126.967 16.808C127.375 13.472 125.743 9.944 122.455 8.528C121.183 8 119.767 7.712 118.327 7.832C118.255 7.832 118.183 7.832 118.111 7.856C117.823 7.664 117.415 7.544 116.911 7.448C115.111 7.136 112.903 8.192 112.447 10.256ZM120.055 11.864C122.839 12.44 123.703 16.112 121.639 17.936C120.583 18.824 119.143 18.992 118.375 17.528C117.679 16.208 117.391 11.624 120.055 11.864ZM138.695 18.752C137.567 19.424 135.023 20.12 134.183 17.72C134.207 17.72 134.303 17.744 134.327 17.744C136.127 17.744 137.711 17.336 139.031 16.424C139.775 15.92 140.519 15.224 141.095 14.312C141.191 14.216 141.239 14.096 141.287 13.976C141.335 13.904 141.383 13.832 141.383 13.784C141.455 13.712 141.479 13.616 141.503 13.544C141.647 13.256 141.743 12.944 141.815 12.584C141.983 11.912 141.983 11.216 141.791 10.52C141.191 8.432 138.599 7.184 136.679 7.184C136.007 7.184 135.287 7.256 134.639 7.472C133.991 7.664 133.367 7.928 132.791 8.264C132.191 8.624 131.663 9.056 131.183 9.584C130.271 10.544 129.623 11.768 129.239 12.968C128.855 14.192 128.711 15.416 128.783 16.616C128.831 17.816 129.095 18.992 129.623 20.144C129.863 20.696 130.199 21.224 130.607 21.728C131.039 22.184 131.447 22.592 131.903 22.952C132.383 23.288 132.839 23.552 133.319 23.768C133.775 23.984 134.207 24.152 134.663 24.272C136.751 24.824 139.415 24.848 140.951 23.336C142.151 22.208 142.727 20.504 141.479 19.208C140.831 18.512 139.775 18.104 138.695 18.752ZM134.807 11.96C135.047 11.696 135.335 11.456 135.599 11.288C136.175 10.856 136.871 10.616 137.519 10.592C138.935 10.448 139.271 11.744 138.407 12.8C136.967 14.528 134.975 14.672 133.703 14.72C133.799 14.048 133.967 13.448 134.231 12.896C134.423 12.536 134.615 12.224 134.807 11.96ZM143.575 9.8C142.711 13.328 143.599 20.48 144.319 22.304C144.655 23.192 145.255 23.84 146.431 23.72C147.871 23.528 148.183 22.952 148.183 22.16C148.159 20.432 148.159 18.752 148.255 17.096C148.303 16.16 148.519 15.128 148.975 14.384C149.959 12.8 152.599 12.776 151.495 15.344C150.991 16.76 152.815 18.08 154.567 17.672C156.967 17.072 157.687 13.064 156.823 11.216C155.383 8.336 151.927 9.536 149.047 10.976L149.119 10.688C149.479 9.272 149.815 7.76 147.535 7.4C145.927 7.136 143.983 8.048 143.575 9.8Z" fill="#295B85"/>
</svg>
