<svg width="440" height="69" viewBox="0 0 440 69" fill="none" xmlns="http://www.w3.org/2000/svg">
<path d="M193.625 13.4903C196.238 12.3757 199.142 11.8156 202.077 11.8596C205.676 11.8351 209.209 12.6653 212.261 14.2526C215.399 15.9153 217.914 18.2782 219.516 21.0719C221.277 24.3091 222.188 27.8216 222.188 31.3749C222.188 34.9282 221.277 38.4406 219.516 41.6779C217.915 44.4893 215.402 46.873 212.261 48.5607C209.218 50.1695 205.683 51.015 202.077 50.9961C199.144 51.0467 196.24 50.4938 193.625 49.3866C191.52 48.1935 189.619 46.7687 187.974 45.151C187.974 46.5608 187.3 47.9129 186.102 48.9098C184.904 49.9066 183.278 50.4667 181.584 50.4667H180.362C178.667 50.4667 177.042 49.9066 175.843 48.9098C174.645 47.9129 173.972 46.5608 173.972 45.151V5.82389C173.972 4.2793 174.709 2.79797 176.022 1.70578C177.335 0.613591 179.116 0 180.973 0C182.829 0 184.61 0.613591 185.923 1.70578C187.236 2.79797 187.974 4.2793 187.974 5.82389V17.7893C189.366 15.9645 191.316 14.4807 193.625 13.4903ZM205.056 24.5027C204.13 23.6934 203.011 23.0547 201.77 22.6279C200.529 22.2011 199.194 21.9956 197.851 22.0249C196.519 22.0217 195.202 22.2542 193.986 22.7069C192.77 23.1597 191.684 23.8223 190.799 24.6509C188.92 26.6041 187.895 29.0316 187.895 31.5337C187.895 34.0358 188.92 36.4633 190.799 38.4165C191.717 39.2181 192.821 39.8562 194.044 40.2922C195.267 40.7282 196.584 40.9531 197.915 40.9531C199.246 40.9531 200.563 40.7282 201.786 40.2922C203.009 39.8562 204.113 39.2181 205.031 38.4165C206.076 37.4697 206.881 36.3571 207.397 35.1453C207.913 33.9335 208.13 32.6475 208.035 31.3643C208.117 30.1128 207.896 28.8604 207.384 27.6816C206.872 26.5027 206.081 25.4216 205.056 24.5027Z" fill="url(#paint0_linear_1054_9260)"/>
<path d="M267.149 34.2234H235.428C235.463 36.2591 236.449 38.2035 238.178 39.6449C239.784 40.8907 241.915 41.5603 244.11 41.5086C245.245 41.553 246.379 41.3859 247.427 41.0196C248.475 40.6532 249.412 40.0967 250.169 39.3908C250.648 38.9003 251.249 38.501 251.929 38.2197C252.61 37.9384 253.355 37.7817 254.115 37.7601H258.188C259.114 37.7751 260.018 38.0001 260.802 38.4109C261.586 38.8216 262.221 39.4026 262.637 40.0911C263.053 40.7796 263.236 41.5496 263.165 42.3181C263.095 43.0866 262.773 43.8245 262.236 44.4523C260.152 46.4814 257.54 48.0892 254.598 49.1538C251.396 50.3384 247.919 50.9239 244.415 50.8692C240.247 50.927 236.13 50.1035 232.45 48.4761C228.99 46.9083 226.152 44.5395 224.278 41.6568C222.231 38.476 221.214 34.9074 221.325 31.3009C221.218 27.6997 222.216 24.1354 224.227 20.9449C226.079 18.0563 228.913 15.6848 232.373 14.1257C236.075 12.5796 240.159 11.7744 244.301 11.7744C248.442 11.7744 252.526 12.5796 256.228 14.1257C259.632 15.6386 262.436 17.9414 264.298 20.7543C266.295 23.8268 267.296 27.2793 267.2 30.7714C267.257 31.922 267.24 33.0743 267.149 34.2234ZM253.045 27.743C253.086 26.8399 252.877 25.9411 252.436 25.1152C251.995 24.2894 251.332 23.5583 250.5 22.978C249.265 22.0427 247.742 21.4104 246.102 21.1512C244.461 20.892 242.766 21.0161 241.205 21.5097C239.643 22.0032 238.277 22.847 237.258 23.9473C236.238 25.0476 235.605 26.3615 235.428 27.743H253.045Z" fill="url(#paint1_linear_1054_9260)"/>
<path d="M312.413 34.2235H280.565C280.624 36.255 281.606 38.1925 283.315 39.645C284.928 40.8941 287.069 41.5637 289.272 41.5086C290.408 41.5531 291.541 41.386 292.589 41.0196C293.638 40.6533 294.574 40.0968 295.331 39.3909C295.806 38.8961 296.405 38.4938 297.087 38.2121C297.769 37.9304 298.516 37.7762 299.277 37.7602H303.325C304.253 37.7714 305.161 37.9937 305.948 38.4029C306.736 38.8121 307.374 39.3928 307.793 40.082C308.213 40.7712 308.398 41.5427 308.328 42.313C308.258 43.0833 307.937 43.8231 307.398 44.4524C305.365 46.4726 302.806 48.0805 299.913 49.1538C296.711 50.3385 293.235 50.924 289.73 50.8692C285.562 50.9299 281.444 50.1063 277.765 48.4761C274.296 46.9117 271.448 44.5426 269.567 41.6569C267.548 38.5124 266.523 34.9925 266.589 31.428C266.482 27.8269 267.481 24.2625 269.491 21.0721C271.353 18.1819 274.195 15.8106 277.663 14.2528C281.36 12.7069 285.44 11.9019 289.577 11.9019C293.715 11.9019 297.795 12.7069 301.492 14.2528C304.897 15.7657 307.7 18.0685 309.562 20.8815C311.568 23.952 312.577 27.4046 312.49 30.8986C312.533 32.0072 312.507 33.117 312.413 34.2235ZM298.31 27.7431C298.344 26.8406 298.133 25.9433 297.692 25.1182C297.251 24.2931 296.592 23.5615 295.764 22.9781C294.045 21.7715 291.85 21.1377 289.603 21.1991C287.445 21.1492 285.337 21.751 283.671 22.8934C281.994 24.1497 280.934 25.8766 280.693 27.7431H298.31Z" fill="url(#paint2_linear_1054_9260)"/>
<path d="M334.256 13.4904C336.855 12.365 339.754 11.804 342.683 11.8597C346.282 11.8353 349.814 12.6655 352.866 14.2528C356.011 15.9093 358.527 18.2739 360.122 21.0721C361.883 24.3093 362.794 27.8218 362.794 31.3751C362.794 34.9284 361.883 38.4408 360.122 41.6781C358.529 44.4939 356.014 46.8792 352.866 48.5608C349.823 50.1697 346.288 51.0152 342.683 50.9963C339.76 51.0428 336.87 50.4747 334.282 49.3444C331.987 48.3485 330.028 46.8928 328.579 45.1089V62.7712C328.579 64.3158 327.841 65.7971 326.529 66.8893C325.216 67.9815 323.435 68.5951 321.578 68.5951C319.721 68.5951 317.941 67.9815 316.628 66.8893C315.315 65.7971 314.577 64.3158 314.577 62.7712V17.7895C314.577 16.3629 315.258 14.9947 316.471 13.9859C317.684 12.9771 319.329 12.4104 321.043 12.4104H322.113C323.828 12.4104 325.472 12.9771 326.685 13.9859C327.898 14.9947 328.579 16.3629 328.579 17.7895C330.001 15.9778 331.955 14.498 334.256 13.4904ZM345.687 24.5029C344.76 23.7004 343.644 23.066 342.409 22.6396C341.173 22.2132 339.845 22.004 338.508 22.0251C337.177 22.0052 335.857 22.2194 334.633 22.6537C333.409 23.088 332.309 23.7326 331.405 24.5452C329.525 26.4984 328.501 28.9259 328.501 31.428C328.501 33.9301 329.525 36.3576 331.405 38.3108C332.323 39.1124 333.427 39.7505 334.65 40.1865C335.873 40.6226 337.19 40.8474 338.52 40.8474C339.851 40.8474 341.168 40.6226 342.391 40.1865C343.614 39.7505 344.718 39.1124 345.636 38.3108C346.65 37.3784 347.433 36.2886 347.94 35.1038C348.447 33.919 348.668 32.6627 348.589 31.4068C348.683 30.1533 348.474 28.8967 347.976 27.7111C347.478 26.5255 346.699 25.4347 345.687 24.5029Z" fill="url(#paint3_linear_1054_9260)"/>
<path d="M407.753 34.2234H376.058C376.093 36.2591 377.079 38.2035 378.807 39.6449C380.413 40.8907 382.544 41.5603 384.739 41.5086C385.875 41.553 387.008 41.3859 388.056 41.0196C389.105 40.6532 390.041 40.0967 390.798 39.3908C391.278 38.9003 391.878 38.501 392.559 38.2197C393.239 37.9384 393.985 37.7817 394.744 37.7601H398.817C399.744 37.7751 400.648 38.0001 401.432 38.4109C402.216 38.8216 402.85 39.4026 403.267 40.0911C403.683 40.7796 403.866 41.5496 403.795 42.3181C403.724 43.0866 403.403 43.8245 402.865 44.4523C400.818 46.4686 398.251 48.0755 395.355 49.1538C392.152 50.3384 388.676 50.9239 385.172 50.8692C381.012 50.9299 376.902 50.1062 373.232 48.4761C369.757 46.9185 366.907 44.5477 365.035 41.6568C362.988 38.476 361.97 34.9074 362.081 31.3009C361.974 27.6997 362.973 24.1354 364.984 20.9449C366.836 18.0563 369.669 15.6848 373.13 14.1257C376.831 12.5796 380.916 11.7744 385.057 11.7744C389.199 11.7744 393.283 12.5796 396.984 14.1257C400.389 15.6386 403.193 17.9414 405.055 20.7543C407.052 23.8268 408.052 27.2793 407.957 30.7714C407.963 31.9243 407.895 33.0766 407.753 34.2234ZM393.649 27.743C393.69 26.8399 393.481 25.9411 393.04 25.1152C392.599 24.2894 391.936 23.5583 391.104 22.978C389.382 21.8548 387.258 21.2443 385.07 21.2443C382.882 21.2443 380.758 21.8548 379.037 22.978C377.343 24.2259 376.271 25.9559 376.032 27.8277L393.649 27.743Z" fill="url(#paint4_linear_1054_9260)"/>
<path d="M428.043 15.2691C429.009 14.5259 430.189 14.0028 431.469 13.7505C432.749 13.4982 434.086 13.5253 435.35 13.829C436.234 14.0199 437.031 14.4228 437.642 14.9876C438.253 15.5524 438.651 16.2542 438.787 17.0057C438.99 18.3399 439.601 21.5377 437.259 23.1684C436.399 23.6443 435.427 23.962 434.408 24.1002C431.727 24.4093 429.138 25.1272 426.77 26.218C425.804 27.0958 425.076 28.1366 424.637 29.2695C424.197 30.4025 424.057 31.6009 424.225 32.7831V44.6215C424.225 46.1661 423.487 47.6474 422.174 48.7396C420.861 49.8318 419.08 50.4454 417.224 50.4454C415.367 50.4454 413.586 49.8318 412.273 48.7396C410.96 47.6474 410.223 46.1661 410.223 44.6215V18.2975C410.223 16.7529 410.96 15.2716 412.273 14.1794C413.586 13.0872 415.367 12.4736 417.224 12.4736C419.08 12.4736 420.861 13.0872 422.174 14.1794C423.487 15.2716 424.225 16.7529 424.225 18.2975V18.8058C425.321 17.5026 426.603 16.315 428.043 15.2691Z" fill="url(#paint5_linear_1054_9260)"/>
<path d="M2.91923 21.0719C4.75942 18.19 7.57377 15.8194 11.0149 14.2527C14.6945 12.6519 18.8037 11.8575 22.9547 11.9443C28.115 11.793 33.182 13.1159 37.3131 15.6927C38.0159 16.1476 38.6795 16.643 39.2988 17.1752C40.1628 17.9452 40.7373 18.9086 40.9515 19.9467C41.1656 20.9849 41.0102 22.0525 40.5042 23.018C39.9982 23.9836 39.1639 24.805 38.1038 25.3811C37.0438 25.9573 35.8044 26.2629 34.5382 26.2605H33.3162C32.3921 26.2312 31.4887 26.0248 30.6762 25.6575C29.8637 25.2901 29.1641 24.7718 28.6319 24.1427C27.9172 23.4224 27.0061 22.8544 25.9744 22.4861C24.9427 22.1177 23.8201 21.9596 22.7002 22.0249C21.5127 21.9935 20.3338 22.2026 19.265 22.6342C18.1963 23.0659 17.2696 23.7071 16.5648 24.5027C15.0484 26.6658 14.2495 29.125 14.2495 31.629C14.2495 34.1331 15.0484 36.5923 16.5648 38.7554C17.2683 39.5536 18.1941 40.1979 19.2627 40.6331C20.3313 41.0684 21.5108 41.2815 22.7002 41.2543C23.8336 41.3083 24.9658 41.1321 25.9992 40.7411C27.0325 40.35 27.9361 39.7557 28.6319 39.0095C29.1627 38.3793 29.862 37.86 30.6748 37.4925C31.4876 37.1251 32.3917 36.9194 33.3162 36.8917H34.5382C35.7923 36.8898 37.0198 37.1925 38.0701 37.7627C39.1203 38.3329 39.9476 39.1458 40.4505 40.1015C40.9533 41.0573 41.1097 42.1143 40.9006 43.143C40.6915 44.1717 40.126 45.1272 39.2734 45.8923C38.6422 46.4142 37.9795 46.909 37.2876 47.3747C33.1807 49.9834 28.1197 51.3369 22.9547 51.2079C18.7948 51.2686 14.6851 50.445 11.0149 48.8148C7.57377 47.2481 4.75942 44.8775 2.91923 41.9956C0.999118 38.7771 0 35.2327 0 31.6396C0 28.0466 0.999118 24.5022 2.91923 21.2837V21.0719Z" fill="url(#paint6_linear_1054_9260)"/>
<path d="M84.2582 16.3281C87.6109 19.6372 89.3143 23.8881 89.0189 28.2088V44.6428C89.0189 46.1818 88.2839 47.6577 86.9758 48.7459C85.6676 49.8341 83.8934 50.4455 82.0433 50.4455C80.1977 50.4399 78.43 49.8261 77.1273 48.7385C75.8247 47.6508 75.0933 46.1781 75.0933 44.6428V29.8183C75.2637 27.6569 74.404 25.5266 72.7002 23.8885C70.977 22.541 68.7008 21.7907 66.3357 21.7907C63.9706 21.7907 61.6944 22.541 59.9712 23.8885C58.2862 25.5343 57.4371 27.661 57.6036 29.8183V44.6428C57.6036 46.1874 56.866 47.6687 55.553 48.7609C54.2401 49.8531 52.4594 50.4667 50.6026 50.4667C48.7435 50.4667 46.9601 49.8538 45.6431 48.7622C44.3262 47.6706 43.5829 46.1893 43.5762 44.6428V5.82389C43.5829 4.27736 44.3262 2.79608 45.6431 1.70449C46.9601 0.612903 48.7435 -1.0151e-05 50.6026 1.261e-10C52.4594 1.261e-10 54.2401 0.613591 55.553 1.70578C56.866 2.79797 57.6036 4.2793 57.6036 5.82389V17.514C59.1028 15.7896 61.0987 14.406 63.408 13.4903C65.9916 12.4696 68.822 11.9552 71.6819 11.9866C74.0305 11.9129 76.3705 12.2627 78.5414 13.0121C80.7122 13.7615 82.6624 14.8927 84.2582 16.3281Z" fill="url(#paint7_linear_1054_9260)"/>
<path d="M93.3204 21.0721C94.9066 18.2693 97.4244 15.903 100.576 14.2528C103.628 12.6654 107.16 11.8353 110.759 11.8597C113.704 11.8122 116.616 12.3725 119.237 13.4904C121.529 14.4638 123.471 15.9253 124.863 17.726C124.863 16.2993 125.544 14.9311 126.757 13.9223C127.97 12.9136 129.614 12.3468 131.329 12.3468H132.399C134.114 12.3468 135.758 12.9136 136.971 13.9223C138.184 14.9311 138.865 16.2993 138.865 17.726V45.003C138.865 46.4296 138.184 47.7978 136.971 48.8066C135.758 49.8154 134.114 50.3821 132.399 50.3821H131.329C129.614 50.3821 127.97 49.8154 126.757 48.8066C125.544 47.7978 124.863 46.4296 124.863 45.003C123.424 46.7941 121.462 48.2516 119.16 49.2385C116.547 50.374 113.631 50.9422 110.683 50.8904C107.076 50.9166 103.539 50.0705 100.5 48.455C97.3772 46.7761 94.8885 44.3975 93.3204 41.5933C91.5594 38.3561 90.6484 34.8437 90.6484 31.2904C90.6484 27.7371 91.5594 24.2246 93.3204 20.9873V21.0721ZM121.986 24.6511C121.088 23.838 119.993 23.1928 118.773 22.7584C117.553 22.3239 116.236 22.11 114.909 22.1309C113.583 22.1122 112.267 22.3228 111.045 22.7494C109.822 23.1759 108.719 23.8091 107.806 24.6088C106.8 25.5355 106.025 26.6193 105.527 27.7972C105.029 28.9752 104.817 30.2237 104.904 31.4704C104.74 33.9999 105.783 36.4809 107.806 38.3743C108.718 39.1774 109.816 39.8172 111.036 40.2545C112.255 40.6918 113.568 40.9174 114.896 40.9174C116.224 40.9174 117.538 40.6918 118.757 40.2545C119.976 39.8172 121.075 39.1774 121.986 38.3743C123.879 36.4261 124.912 33.9967 124.912 31.4915C124.912 28.9864 123.879 26.557 121.986 24.6088V24.6511Z" fill="url(#paint8_linear_1054_9260)"/>
<path d="M169.237 44.7065V46.2949C169.237 47.4182 168.701 48.4956 167.746 49.2899C166.791 50.0842 165.496 50.5304 164.146 50.5304H162.211C157.922 50.7465 153.689 49.6379 150.322 47.4173C147.471 45.2995 146.07 41.9746 146.07 37.2943V22.1734C144.592 22.1734 143.174 21.6847 142.128 20.8149C141.083 19.9452 140.495 18.7655 140.495 17.5354V17.133C140.495 15.903 141.083 14.7233 142.128 13.8535C143.174 12.9838 144.592 12.4951 146.07 12.4951V9.04313C146.07 7.49854 146.808 6.01721 148.121 4.92502C149.434 3.83283 151.215 3.21924 153.071 3.21924C154.928 3.21924 156.709 3.83283 158.022 4.92502C159.335 6.01721 160.072 7.49854 160.072 9.04313V12.4951H163.433C164.972 12.4951 166.449 13.0038 167.537 13.9094C168.626 14.8149 169.237 16.043 169.237 17.3237C169.241 17.9595 169.093 18.5897 168.803 19.178C168.513 19.7662 168.086 20.301 167.546 20.7516C167.007 21.2023 166.366 21.5598 165.66 21.8038C164.954 22.0478 164.197 22.1734 163.433 22.1734H159.971V37.3578C159.922 37.8022 159.986 38.2501 160.157 38.673C160.328 39.0959 160.602 39.4846 160.963 39.8145C161.905 40.3828 163.064 40.6463 164.222 40.5557C165.542 40.5719 166.802 41.0138 167.738 41.7882C168.673 42.5625 169.211 43.6089 169.237 44.7065Z" fill="url(#paint9_linear_1054_9260)"/>
<defs>
<linearGradient id="paint0_linear_1054_9260" x1="659.406" y1="50.8267" x2="-56.5625" y2="-4.52529" gradientUnits="userSpaceOnUse">
<stop stop-color="#376FA4"/>
<stop offset="1" stop-color="#133C55"/>
</linearGradient>
<linearGradient id="paint1_linear_1054_9260" x1="659.204" y1="53.6011" x2="-56.7908" y2="-1.75089" gradientUnits="userSpaceOnUse">
<stop stop-color="#376FA4"/>
<stop offset="1" stop-color="#133C55"/>
</linearGradient>
<linearGradient id="paint2_linear_1054_9260" x1="659.382" y1="51.1869" x2="-56.5888" y2="-4.13467" gradientUnits="userSpaceOnUse">
<stop stop-color="#376FA4"/>
<stop offset="1" stop-color="#133C55"/>
</linearGradient>
<linearGradient id="paint3_linear_1054_9260" x1="658.872" y1="57.6673" x2="-57.098" y2="2.34579" gradientUnits="userSpaceOnUse">
<stop stop-color="#376FA4"/>
<stop offset="1" stop-color="#133C55"/>
</linearGradient>
<linearGradient id="paint4_linear_1054_9260" x1="659.763" y1="46.1041" x2="-56.2077" y2="-9.21744" gradientUnits="userSpaceOnUse">
<stop stop-color="#376FA4"/>
<stop offset="1" stop-color="#133C55"/>
</linearGradient>
<linearGradient id="paint5_linear_1054_9260" x1="659.916" y1="44.4097" x2="-56.0803" y2="-10.9119" gradientUnits="userSpaceOnUse">
<stop stop-color="#376FA4"/>
<stop offset="1" stop-color="#133C55"/>
</linearGradient>
<linearGradient id="paint6_linear_1054_9260" x1="219.618" y1="41.932" x2="-496.377" y2="-13.3896" gradientUnits="userSpaceOnUse">
<stop stop-color="#376FA4"/>
<stop offset="1" stop-color="#133C55"/>
</linearGradient>
<linearGradient id="paint7_linear_1054_9260" x1="220.204" y1="34.2869" x2="-495.792" y2="-21.0347" gradientUnits="userSpaceOnUse">
<stop stop-color="#376FA4"/>
<stop offset="1" stop-color="#133C55"/>
</linearGradient>
<linearGradient id="paint8_linear_1054_9260" x1="220" y1="36.9766" x2="-495.995" y2="-18.3754" gradientUnits="userSpaceOnUse">
<stop stop-color="#376FA4"/>
<stop offset="1" stop-color="#133C55"/>
</linearGradient>
<linearGradient id="paint9_linear_1054_9260" x1="220.51" y1="30.1786" x2="-495.461" y2="-25.143" gradientUnits="userSpaceOnUse">
<stop stop-color="#376FA4"/>
<stop offset="1" stop-color="#133C55"/>
</linearGradient>
</defs>
</svg>
