<svg width="839" height="145" viewBox="0 0 839 145" fill="none" xmlns="http://www.w3.org/2000/svg">
<path d="M55.344 90.712C49.072 97.24 38.192 100.184 31.92 93.144C30.256 91.48 28.848 89.432 27.824 87.384C24.112 77.784 31.408 63.32 41.648 62.296C45.616 61.912 49.456 64.344 52.784 68.568C61.232 79.064 76.72 72.792 77.36 62.296C78.384 47.064 62.384 41.688 50.864 40.792C43.184 40.152 35.632 41.688 28.848 44.504C11.312 52.056 0.944 70.36 3.12 88.152C3.76 94.04 5.936 99.672 8.624 104.28C11.44 109.4 15.28 113.624 19.504 117.08C28.72 123.608 39.088 126.68 49.968 125.144C59.696 123.992 68.4 120.024 75.824 113.24C77.104 112.088 78 111.064 78.384 110.68C79.024 109.912 79.792 108.76 80.432 107.608C80.56 107.352 80.816 107.096 80.816 106.84C80.816 106.456 80.944 106.072 81.072 105.816C81.456 105.176 81.584 104.664 81.84 104.152C87.088 88.536 69.04 76.248 55.344 90.712ZM187.355 121.176C181.211 112.216 183.003 96.472 183.131 80.344C183.131 44.504 151.259 27.48 128.091 59.352C124.891 63.064 122.075 66.776 119.643 70.616C119.387 70.872 119.259 71.384 118.875 71.768C118.619 72.28 118.235 72.664 117.979 73.048C117.339 74.2 116.955 74.968 116.443 75.864C115.803 76.888 115.291 78.04 114.523 79.192C114.907 74.072 115.291 68.696 116.059 63.448C117.211 52.696 119.259 42.072 121.179 34.136C121.947 30.168 122.843 26.84 123.355 24.408C128.091 5.592 97.627 0.343994 93.787 20.824C89.819 45.272 86.619 91.992 98.139 114.392C101.851 122.584 112.859 121.688 117.723 113.496C119.643 110.296 121.435 106.328 122.459 102.232C127.835 80.728 156.123 36.312 158.171 86.488C158.555 99.8 157.403 112.6 159.323 124.888C160.987 135.64 165.339 144.344 176.859 144.472C187.483 144.728 194.267 136.28 190.811 126.552C189.915 124.376 188.635 122.968 187.355 121.176ZM271.721 70.616C266.089 63.064 257.257 66.392 251.369 71.768C246.889 75.864 242.793 81.24 239.593 85.336C237.033 88.92 233.961 91.608 231.145 94.424C223.977 101.592 217.321 100.44 220.137 89.176C223.337 80.728 229.481 74.072 237.801 70.872C241.001 69.848 243.177 69.592 243.945 69.464C252.777 67.416 261.225 57.432 258.025 48.728C257.129 46.68 255.721 44.76 253.801 43.352C251.753 41.688 249.193 40.536 246.377 39.896C243.817 39.256 240.745 39.128 237.673 39.64C217.321 43.352 196.201 64.088 193.641 83.8C191.721 95.96 193.641 110.424 203.497 117.976C207.209 120.92 211.433 123.096 216.297 123.864C230.889 125.784 249.321 113.624 254.825 100.568C254.953 100.184 255.465 99.544 255.849 98.776C256.233 98.264 256.745 97.752 257.385 97.624C257.769 97.496 258.025 97.624 258.281 97.88C258.409 98.008 258.665 98.136 258.793 98.264C258.921 98.648 259.177 99.288 259.305 99.928C259.817 102.488 260.329 104.792 260.329 106.84C260.329 108.376 260.585 109.784 260.585 111.192C260.713 112.728 260.713 114.008 260.713 114.52C260.713 117.464 261.609 119.384 263.017 120.92C264.425 122.2 266.345 123.096 268.137 123.352C270.185 123.736 272.105 123.096 273.769 121.688C275.433 120.28 276.585 117.976 276.713 114.776C277.353 99.544 279.529 82.264 271.721 70.616ZM321.6 71.384C331.2 71 340.928 69.592 342.208 69.336C351.296 67.544 350.272 52.056 341.568 52.184C339.008 52.184 330.816 51.8 322.752 51.672C323.008 48.856 323.264 46.296 323.392 43.736C324.416 33.752 326.208 24.536 326.464 23.384C326.464 7.896 296.896 9.17599 295.232 23.768C294.848 32.088 295.744 45.144 295.744 53.208C293.952 53.08 292.032 52.824 290.368 53.08C282.176 54.488 283.584 72.024 290.496 73.304C292.032 73.56 294.08 73.688 297.152 73.432C298.688 89.816 301.248 106.456 310.976 117.848C312.768 119.896 314.688 121.56 316.736 122.84C318.784 124.12 320.96 125.144 323.136 125.784C323.648 125.912 324.288 126.04 324.8 126.168C325.312 126.168 325.824 126.424 326.336 126.424C327.488 126.68 328.512 126.68 329.536 126.68C333.888 126.68 337.6 125.272 340.672 123.48C344.256 121.176 347.712 117.976 350.144 114.264C361.024 98.136 346.176 83.928 336.832 94.552C324.032 109.144 321.088 80.344 321.6 71.384Z" fill="#386FA4"/>
<path d="M421.435 65.752C413.499 58.456 401.339 55.768 389.435 63.704C390.331 54.104 391.867 45.016 393.787 36.056L395.323 30.936L395.835 28.376C400.699 6.99999 370.363 0.855995 366.139 21.72C361.787 46.552 358.971 81.88 365.883 103.128C366.907 106.072 368.315 109.4 370.363 112.6C372.539 115.8 375.611 119.128 379.195 121.56C383.035 124.12 387.387 125.656 391.739 125.912C396.219 126.296 400.443 125.784 403.899 124.376C407.739 123.096 410.811 121.432 413.499 119.384C429.627 106.2 437.947 81.496 421.435 65.752ZM401.851 101.464C396.091 105.176 391.099 104.28 389.307 95.192C388.155 89.816 387.771 82.648 391.483 78.552C395.835 73.432 402.619 70.36 407.739 76.376C414.139 84.952 409.787 96.472 401.851 101.464ZM492.288 96.344C486.272 99.928 472.704 103.64 468.224 90.84C468.352 90.84 468.864 90.968 468.992 90.968C478.592 90.968 487.04 88.792 494.08 83.928C498.048 81.24 502.016 77.528 505.088 72.664C505.6 72.152 505.856 71.512 506.112 70.872C506.368 70.488 506.624 70.104 506.624 69.848C507.008 69.464 507.136 68.952 507.264 68.568C508.032 67.032 508.544 65.368 508.928 63.448C509.824 59.864 509.824 56.152 508.8 52.44C505.6 41.304 491.776 34.648 481.536 34.648C477.952 34.648 474.112 35.032 470.656 36.184C467.2 37.208 463.872 38.616 460.8 40.408C457.6 42.328 454.784 44.632 452.224 47.448C447.36 52.568 443.904 59.096 441.856 65.496C439.808 72.024 439.04 78.552 439.424 84.952C439.68 91.352 441.088 97.624 443.904 103.768C445.184 106.712 446.976 109.528 449.152 112.216C451.456 114.648 453.632 116.824 456.064 118.744C458.624 120.536 461.056 121.944 463.616 123.096C466.048 124.248 468.352 125.144 470.784 125.784C481.92 128.728 496.128 128.856 504.32 120.792C510.72 114.776 513.792 105.688 507.136 98.776C503.68 95.064 498.048 92.888 492.288 96.344ZM471.552 60.12C472.832 58.712 474.368 57.432 475.776 56.536C478.848 54.232 482.56 52.952 486.016 52.824C493.568 52.056 495.36 58.968 490.752 64.6C483.072 73.816 472.448 74.584 465.664 74.84C466.176 71.256 467.072 68.056 468.48 65.112C469.504 63.192 470.528 61.528 471.552 60.12ZM571.178 96.344C565.162 99.928 551.594 103.64 547.114 90.84C547.242 90.84 547.754 90.968 547.882 90.968C557.482 90.968 565.93 88.792 572.97 83.928C576.938 81.24 580.906 77.528 583.978 72.664C584.49 72.152 584.746 71.512 585.002 70.872C585.258 70.488 585.514 70.104 585.514 69.848C585.898 69.464 586.026 68.952 586.154 68.568C586.922 67.032 587.434 65.368 587.818 63.448C588.714 59.864 588.714 56.152 587.69 52.44C584.49 41.304 570.666 34.648 560.426 34.648C556.842 34.648 553.002 35.032 549.546 36.184C546.09 37.208 542.762 38.616 539.69 40.408C536.49 42.328 533.674 44.632 531.114 47.448C526.25 52.568 522.794 59.096 520.746 65.496C518.698 72.024 517.93 78.552 518.314 84.952C518.57 91.352 519.978 97.624 522.794 103.768C524.074 106.712 525.866 109.528 528.042 112.216C530.346 114.648 532.522 116.824 534.954 118.744C537.514 120.536 539.946 121.944 542.506 123.096C544.938 124.248 547.242 125.144 549.674 125.784C560.81 128.728 575.018 128.856 583.21 120.792C589.61 114.776 592.682 105.688 586.026 98.776C582.57 95.064 576.938 92.888 571.178 96.344ZM550.442 60.12C551.722 58.712 553.258 57.432 554.666 56.536C557.738 54.232 561.45 52.952 564.906 52.824C572.458 52.056 574.25 58.968 569.642 64.6C561.962 73.816 551.338 74.584 544.554 74.84C545.066 71.256 545.962 68.056 547.37 65.112C548.394 63.192 549.418 61.528 550.442 60.12ZM597.716 51.032C592.596 73.176 597.844 117.848 602.196 129.24C604.372 135 607.956 138.968 614.868 138.2C623.572 136.92 625.492 133.464 625.492 128.472C625.364 126.168 626.388 117.976 626.388 115.8C653.396 124.376 672.724 108.632 675.156 85.976C677.332 68.184 668.628 49.368 651.092 41.816C644.308 39 636.756 37.464 629.076 38.104C628.692 38.104 628.308 38.104 627.924 38.232C626.388 37.208 624.212 36.568 621.524 36.056C611.924 34.392 600.148 40.024 597.716 51.032ZM638.292 59.608C653.14 62.68 657.748 82.264 646.74 91.992C641.108 96.728 633.428 97.624 629.332 89.816C625.62 82.776 624.084 58.328 638.292 59.608ZM737.708 96.344C731.692 99.928 718.124 103.64 713.644 90.84C713.772 90.84 714.284 90.968 714.412 90.968C724.012 90.968 732.46 88.792 739.5 83.928C743.468 81.24 747.436 77.528 750.508 72.664C751.02 72.152 751.276 71.512 751.532 70.872C751.788 70.488 752.044 70.104 752.044 69.848C752.428 69.464 752.556 68.952 752.684 68.568C753.452 67.032 753.964 65.368 754.348 63.448C755.244 59.864 755.244 56.152 754.22 52.44C751.02 41.304 737.196 34.648 726.956 34.648C723.372 34.648 719.532 35.032 716.076 36.184C712.62 37.208 709.292 38.616 706.22 40.408C703.02 42.328 700.204 44.632 697.644 47.448C692.78 52.568 689.324 59.096 687.276 65.496C685.228 72.024 684.46 78.552 684.844 84.952C685.1 91.352 686.508 97.624 689.324 103.768C690.604 106.712 692.396 109.528 694.572 112.216C696.876 114.648 699.052 116.824 701.484 118.744C704.044 120.536 706.476 121.944 709.036 123.096C711.468 124.248 713.772 125.144 716.204 125.784C727.34 128.728 741.548 128.856 749.74 120.792C756.14 114.776 759.212 105.688 752.556 98.776C749.1 95.064 743.468 92.888 737.708 96.344ZM716.972 60.12C718.252 58.712 719.788 57.432 721.196 56.536C724.268 54.232 727.98 52.952 731.436 52.824C738.988 52.056 740.78 58.968 736.172 64.6C728.492 73.816 717.868 74.584 711.084 74.84C711.596 71.256 712.492 68.056 713.9 65.112C714.924 63.192 715.948 61.528 716.972 60.12ZM763.734 48.6C759.126 67.416 763.862 105.56 767.702 115.288C769.494 120.024 772.694 123.48 778.966 122.84C786.646 121.816 788.31 118.744 788.31 114.52C788.182 105.304 788.182 96.344 788.694 87.512C788.95 82.52 790.102 77.016 792.534 73.048C797.782 64.6 811.862 64.472 805.974 78.168C803.286 85.72 813.014 92.76 822.358 90.584C835.158 87.384 838.998 66.008 834.39 56.152C826.71 40.792 808.278 47.192 792.918 54.872L793.302 53.336C795.222 45.784 797.014 37.72 784.854 35.8C776.278 34.392 765.91 39.256 763.734 48.6Z" fill="#91E5F6"/>
</svg>
