<svg width="18" height="20" viewBox="0 0 18 20" fill="none" xmlns="http://www.w3.org/2000/svg">
<path d="M4 13.75C4 13.4185 4.1317 13.1005 4.36612 12.8661C4.60054 12.6317 4.91848 12.5 5.25 12.5C5.58152 12.5 5.89946 12.6317 6.13388 12.8661C6.3683 13.1005 6.5 13.4185 6.5 13.75V15C6.5 15.3315 6.3683 15.6495 6.13388 15.8839C5.89946 16.1183 5.58152 16.25 5.25 16.25C4.91848 16.25 4.60054 16.1183 4.36612 15.8839C4.1317 15.6495 4 15.3315 4 15V13.75ZM11.5 8.75C11.5 8.41848 11.6317 8.10054 11.8661 7.86612C12.1005 7.6317 12.4185 7.5 12.75 7.5C13.0815 7.5 13.3995 7.6317 13.6339 7.86612C13.8683 8.10054 14 8.41848 14 8.75V15C14 15.3315 13.8683 15.6495 13.6339 15.8839C13.3995 16.1183 13.0815 16.25 12.75 16.25C12.4185 16.25 12.1005 16.1183 11.8661 15.8839C11.6317 15.6495 11.5 15.3315 11.5 15V8.75ZM7.75 11.25C7.75 10.9185 7.8817 10.6005 8.11612 10.3661C8.35054 10.1317 8.66848 10 9 10C9.33152 10 9.64946 10.1317 9.88388 10.3661C10.1183 10.6005 10.25 10.9185 10.25 11.25V15C10.25 15.3315 10.1183 15.6495 9.88388 15.8839C9.64946 16.1183 9.33152 16.25 9 16.25C8.66848 16.25 8.35054 16.1183 8.11612 15.8839C7.8817 15.6495 7.75 15.3315 7.75 15V11.25Z" fill="black"/>
<path d="M4 1.875H2.75C2.08696 1.875 1.45107 2.13839 0.982233 2.60723C0.513392 3.07607 0.25 3.71196 0.25 4.375V17.5C0.25 18.163 0.513392 18.7989 0.982233 19.2678C1.45107 19.7366 2.08696 20 2.75 20H15.25C15.913 20 16.5489 19.7366 17.0178 19.2678C17.4866 18.7989 17.75 18.163 17.75 17.5V4.375C17.75 3.71196 17.4866 3.07607 17.0178 2.60723C16.5489 2.13839 15.913 1.875 15.25 1.875H14V3.125H15.25C15.5815 3.125 15.8995 3.2567 16.1339 3.49112C16.3683 3.72554 16.5 4.04348 16.5 4.375V17.5C16.5 17.8315 16.3683 18.1495 16.1339 18.3839C15.8995 18.6183 15.5815 18.75 15.25 18.75H2.75C2.41848 18.75 2.10054 18.6183 1.86612 18.3839C1.6317 18.1495 1.5 17.8315 1.5 17.5V4.375C1.5 4.04348 1.6317 3.72554 1.86612 3.49112C2.10054 3.2567 2.41848 3.125 2.75 3.125H4V1.875Z" fill="black"/>
<path d="M10.875 1.25C11.0408 1.25 11.1997 1.31585 11.3169 1.43306C11.4342 1.55027 11.5 1.70924 11.5 1.875V3.125C11.5 3.29076 11.4342 3.44973 11.3169 3.56694C11.1997 3.68415 11.0408 3.75 10.875 3.75H7.125C6.95924 3.75 6.80027 3.68415 6.68306 3.56694C6.56585 3.44973 6.5 3.29076 6.5 3.125V1.875C6.5 1.70924 6.56585 1.55027 6.68306 1.43306C6.80027 1.31585 6.95924 1.25 7.125 1.25H10.875ZM7.125 0C6.62772 0 6.15081 0.197544 5.79917 0.549175C5.44754 0.900805 5.25 1.37772 5.25 1.875V3.125C5.25 3.62228 5.44754 4.09919 5.79917 4.45083C6.15081 4.80246 6.62772 5 7.125 5H10.875C11.3723 5 11.8492 4.80246 12.2008 4.45083C12.5525 4.09919 12.75 3.62228 12.75 3.125V1.875C12.75 1.37772 12.5525 0.900805 12.2008 0.549175C11.8492 0.197544 11.3723 0 10.875 0L7.125 0Z" fill="black"/>
</svg>
