<svg width="31" height="24" viewBox="0 0 31 24" fill="none" xmlns="http://www.w3.org/2000/svg">
<g clip-path="url(#clip0_424_7978)">
<path d="M26.1564 2.00165C24.1316 1.05428 21.9896 0.381129 19.7869 0C19.5125 0.49604 19.1919 1.16322 18.9709 1.69399C16.596 1.33688 14.2429 1.33688 11.9116 1.69399C11.6907 1.16334 11.3629 0.49604 11.086 0C8.8811 0.381305 6.73723 1.05617 4.7115 2.00659C0.680469 8.09813 -0.412315 14.0382 0.134017 19.8942C2.80767 21.8908 5.3987 23.1037 7.94608 23.8974C8.57916 23.0268 9.1388 22.105 9.6192 21.1417C8.70458 20.7935 7.82285 20.3644 6.98451 19.8595C7.20513 19.6959 7.42055 19.5255 7.63046 19.3485C12.7105 21.7246 18.2303 21.7246 23.2498 19.3485C23.4606 19.5243 23.6759 19.6947 23.8956 19.8595C23.0559 20.3657 22.1725 20.7957 21.2561 21.1442C21.7392 22.1115 22.2978 23.0341 22.9292 23.8998C25.479 23.1062 28.0724 21.8933 30.7461 19.8942C31.3872 13.1057 29.651 7.22002 26.1564 2.00153V2.00165ZM10.3113 16.2929C8.78632 16.2929 7.53567 14.8691 7.53567 13.1355C7.53567 11.4018 8.75967 9.97568 10.3113 9.97568C11.8631 9.97568 13.1137 11.3993 13.087 13.1355C13.0894 14.8691 11.8631 16.2929 10.3113 16.2929ZM20.5687 16.2929C19.0437 16.2929 17.7932 14.8691 17.7932 13.1355C17.7932 11.4018 19.0171 9.97568 20.5687 9.97568C22.1205 9.97568 23.3711 11.3993 23.3444 13.1355C23.3444 14.8691 22.1205 16.2929 20.5687 16.2929Z" fill="#5865F2"/>
</g>
<defs>
<clipPath id="clip0_424_7978">
<rect width="30.88" height="24" fill="white"/>
</clipPath>
</defs>
</svg>
