<svg width="84" height="76" viewBox="0 0 84 76" fill="none" xmlns="http://www.w3.org/2000/svg">
<path d="M81.3802 10.694C77.8622 3.47417 67.7282 -2.43295 55.9402 1.0063C50.6904 2.82306 46.0406 6.04707 42.4982 10.3264C39.724 13.9577 37.5278 17.9959 35.9873 22.2982L53.2098 30.0168L38.5864 43.8263L44.6248 51.0199L40.5029 54.5379L31.0516 43.4588L43.4959 31.6183L29.2138 25.2911C30.4742 20.1967 32.5108 15.3266 35.2522 10.8515C36.0935 9.44639 37.023 8.09598 38.0351 6.8084H38.1926C35.2813 4.13025 31.7839 2.17026 27.9799 1.08507C16.2444 -2.38044 6.13664 3.47417 2.61863 10.694C-2.3171 20.8017 -0.269297 32.1696 8.70952 44.4827C15.7456 54.1178 25.8008 63.8843 40.3979 75.2259C40.8592 75.5857 41.4275 75.7811 42.0125 75.7811C42.5976 75.7811 43.1658 75.5857 43.6272 75.2259C58.1981 63.9105 68.2795 54.2229 75.3156 44.4827C84.2681 32.1696 86.3159 20.8017 81.3802 10.694Z" fill="#B42318"/>
</svg>
