<svg width="27" height="23" viewBox="0 0 27 23" fill="none" xmlns="http://www.w3.org/2000/svg">
<path d="M26.67 7.15293C26.67 10.7987 24.4845 14.5398 20.1754 18.281C18.2186 19.9784 16.0881 21.4794 13.8165 22.7608C13.669 22.839 13.5034 22.88 13.335 22.88C13.1666 22.88 13.001 22.839 12.8535 22.7608C12.3225 22.4748 1.34037e-06 15.7194 1.34037e-06 7.15293C-0.000797985 5.87052 0.355922 4.61152 1.03277 3.50789C1.70962 2.40425 2.68167 1.49663 3.84704 0.880161C5.0124 0.263689 6.32817 -0.038935 7.65642 0.0040104C8.98468 0.0469558 10.2765 0.433889 11.3965 1.12425C11.4581 1.16337 11.5099 1.21532 11.548 1.27627C11.5861 1.33723 11.6095 1.40565 11.6166 1.4765C11.6238 1.54735 11.6143 1.61884 11.589 1.68571C11.5638 1.75259 11.5233 1.81315 11.4706 1.86294L9.24807 4.00753C9.06334 4.18622 8.9596 4.4283 8.9596 4.6807C8.9596 4.93309 9.06334 5.17518 9.24807 5.35386L13.4955 9.44049L11.6434 11.2396C11.5505 11.3272 11.4766 11.4319 11.4262 11.5475C11.3757 11.6631 11.3498 11.7873 11.3498 11.9127C11.3498 12.0382 11.3757 12.1623 11.4262 12.2779C11.4766 12.3935 11.5505 12.4982 11.6434 12.5859C11.8278 12.7611 12.0761 12.8595 12.3349 12.8599C12.5972 12.8589 12.8491 12.7608 13.0387 12.5859L15.5945 10.1196C15.7793 9.94093 15.883 9.69884 15.883 9.44645C15.883 9.19406 15.7793 8.95197 15.5945 8.77329L11.3471 4.67474L14.0264 2.10123C14.7108 1.4335 15.5263 0.904135 16.4252 0.544086C17.3241 0.184037 18.2884 0.000532152 19.2617 0.00430037C21.2265 0.00430037 23.1108 0.757457 24.5001 2.09809C25.8895 3.43871 26.67 5.257 26.67 7.15293Z" fill="#B32318"/>
</svg>
