<svg width="28" height="25" viewBox="0 0 28 25" fill="none" xmlns="http://www.w3.org/2000/svg">
<path d="M20.3396 7.89637e-05C19.3331 -0.00444355 18.3357 0.185342 17.4058 0.558325C16.476 0.931309 15.6325 1.48 14.9245 2.17227L13.9208 3.14336C12.9833 1.85725 11.647 0.893233 10.1054 0.390931C8.56383 -0.11137 6.89698 -0.125874 5.3463 0.349521C3.79562 0.824915 2.44162 1.76553 1.48042 3.03511C0.51921 4.3047 0.00070487 5.83735 0 7.41107C0 11.2443 2.31132 15.1926 6.86792 19.1664C10.1962 22.0542 13.4717 23.8558 13.617 23.9197C13.733 23.986 13.8653 24.021 14 24.021C14.1347 24.021 14.267 23.986 14.383 23.9197C14.5283 23.8558 17.8038 22.0542 21.1321 19.1664C25.6887 15.1926 28 11.2443 28 7.41107C28 5.44555 27.1929 3.56054 25.7563 2.17071C24.3197 0.780878 22.3713 7.89637e-05 20.3396 7.89637e-05ZM14 22.3608C11.8604 21.1214 1.58491 14.7326 1.58491 7.41107C1.58231 6.13806 2.00699 4.89865 2.79508 3.87922C3.58317 2.85978 4.69206 2.11544 5.95501 1.75811C7.21795 1.40078 8.56668 1.44979 9.79835 1.89777C11.03 2.34575 12.0781 3.16847 12.7849 4.24223L10.6981 6.26109C10.6226 6.33142 10.5626 6.41576 10.5215 6.50907C10.4805 6.60238 10.4594 6.70274 10.4594 6.80413C10.4594 6.90553 10.4805 7.00589 10.5215 7.0992C10.5626 7.1925 10.6226 7.27685 10.6981 7.34718L14.3566 10.8866L12.8113 12.3943C12.7358 12.4647 12.6758 12.549 12.6347 12.6423C12.5937 12.7356 12.5726 12.836 12.5726 12.9374C12.5726 13.0388 12.5937 13.1391 12.6347 13.2324C12.6758 13.3257 12.7358 13.4101 12.8113 13.4804C12.9617 13.6217 13.163 13.7007 13.3726 13.7007C13.5822 13.7007 13.7836 13.6217 13.934 13.4804L16.0472 11.436C16.1932 11.2905 16.2749 11.0957 16.2749 10.893C16.2749 10.6902 16.1932 10.4954 16.0472 10.3499L12.3755 6.79774L14.317 4.91944H14.3434L16.0472 3.27114C16.896 2.45127 17.9767 1.89283 19.1531 1.6662C20.3294 1.43956 21.5488 1.55487 22.6576 1.99759C23.7663 2.44031 24.7148 3.19063 25.3835 4.154C26.0521 5.11736 26.4111 6.25066 26.4151 7.41107C26.4151 14.7326 16.1396 21.1214 14 22.3608Z" fill="#11CDF3"/>
</svg>
