<svg width="224" height="239" viewBox="0 0 224 239" fill="none" xmlns="http://www.w3.org/2000/svg">
<g clip-path="url(#clip0_1490_10972)">
<path d="M142.205 53.6335H81.8463C80.4708 53.6353 79.1522 54.232 78.1796 55.2928C77.207 56.3536 76.6598 57.7919 76.6582 59.292V205.604L75.9664 205.834L61.1596 210.78C60.4578 211.013 59.6999 210.934 59.0521 210.558C58.4043 210.182 57.9196 209.542 57.7044 208.777L13.6608 51.8642C13.4464 51.0988 13.5195 50.2719 13.8639 49.5653C14.2083 48.8586 14.7958 48.33 15.4974 48.0956L38.3147 40.4753L104.463 18.3918L127.28 10.7715C127.627 10.655 127.992 10.6142 128.354 10.6517C128.716 10.6891 129.067 10.8039 129.388 10.9897C129.709 11.1754 129.993 11.4283 130.224 11.7339C130.456 12.0396 130.629 12.3919 130.735 12.7709L141.994 52.879L142.205 53.6335Z" fill="#F2F2F2"/>
<path d="M155.375 52.8792L141.807 4.53974C141.581 3.73431 141.212 2.9853 140.721 2.33549C140.229 1.68569 139.626 1.14783 138.944 0.752659C138.262 0.357485 137.515 0.112734 136.746 0.0324016C135.978 -0.047931 135.202 0.0377289 134.464 0.284478L102.384 10.9943L36.2393 33.0817L4.15957 43.7953C2.66931 44.2944 1.4215 45.418 0.690028 46.9195C-0.0414458 48.421 -0.196821 50.1777 0.258013 51.8041L46.6327 217.008C47.0022 218.321 47.7477 219.47 48.7599 220.287C49.7721 221.104 50.9976 221.545 52.2567 221.547C52.8395 221.547 53.4189 221.452 53.9756 221.264L75.9662 213.923L76.658 213.689V212.9L75.9662 213.13L53.7716 220.543C52.4562 220.981 51.0354 220.831 49.821 220.127C48.6065 219.424 47.6975 218.223 47.2934 216.79L0.922232 51.5815C0.722002 50.8711 0.652217 50.1246 0.71687 49.3848C0.781522 48.645 0.979337 47.9263 1.299 47.27C1.61866 46.6137 2.05389 46.0326 2.57976 45.56C3.10562 45.0873 3.7118 44.7325 4.36357 44.5158L36.4433 33.8022L102.588 11.7186L134.668 1.00501C135.162 0.84046 135.676 0.756558 136.193 0.756033C137.302 0.758749 138.382 1.1488 139.273 1.86905C140.164 2.5893 140.821 3.6019 141.146 4.75854L154.652 52.8792L154.867 53.6337H155.586L155.375 52.8792Z" fill="#3F3D56"/>
<path d="M42.4322 48.2192C41.7655 48.2187 41.1166 47.9852 40.5806 47.5529C40.0445 47.1207 39.6496 46.5124 39.4537 45.8174L34.9988 29.9463C34.879 29.52 34.8375 29.0721 34.8765 28.6283C34.9155 28.1844 35.0343 27.7533 35.2261 27.3596C35.4179 26.9658 35.6789 26.6171 35.9943 26.3334C36.3096 26.0497 36.6731 25.8365 37.064 25.706L97.9166 5.3865C98.706 5.12376 99.5588 5.21337 100.288 5.63565C101.017 6.05793 101.562 6.77838 101.804 7.63888L106.259 23.5102C106.5 24.3712 106.418 25.3012 106.031 26.0962C105.644 26.8911 104.983 27.4861 104.194 27.7506L43.3416 48.0702C43.0469 48.1688 42.7404 48.219 42.4322 48.2192Z" fill="#386FA4"/>
<path d="M65.769 16.9587C69.5894 16.9587 72.6865 13.5808 72.6865 9.41393C72.6865 5.24706 69.5894 1.86914 65.769 1.86914C61.9486 1.86914 58.8516 5.24706 58.8516 9.41393C58.8516 13.5808 61.9486 16.9587 65.769 16.9587Z" fill="#386FA4"/>
<path d="M65.769 14.1914C68.1882 14.1914 70.1494 12.0524 70.1494 9.41382C70.1494 6.77523 68.1882 4.63623 65.769 4.63623C63.3498 4.63623 61.3887 6.77523 61.3887 9.41382C61.3887 12.0524 63.3498 14.1914 65.769 14.1914Z" fill="white"/>
<path d="M208.436 219.619H91.5307C90.7513 219.618 90.004 219.28 89.4529 218.679C88.9017 218.077 88.5917 217.262 88.5908 216.412V63.6304C88.5917 62.7802 88.9017 61.9652 89.4529 61.364C90.004 60.7629 90.7513 60.4248 91.5307 60.4238H208.436C209.215 60.4248 209.963 60.763 210.514 61.3641C211.065 61.9652 211.375 62.7802 211.376 63.6304V216.412C211.375 217.262 211.065 218.077 210.514 218.679C209.963 219.28 209.215 219.618 208.436 219.619Z" fill="#E6E6E6"/>
<path d="M154.653 52.8789H81.8466C80.2879 52.8813 78.7936 53.5577 77.6914 54.7599C76.5892 55.9621 75.969 57.5919 75.9668 59.292V213.13L76.6585 212.9V59.292C76.6602 57.7918 77.2074 56.3536 78.18 55.2928C79.1525 54.232 80.4712 53.6352 81.8466 53.6334H154.867L154.653 52.8789ZM218.121 52.8789H81.8466C80.2879 52.8813 78.7936 53.5577 77.6914 54.7599C76.5892 55.9621 75.969 57.5919 75.9668 59.292V232.068C75.969 233.768 76.5892 235.397 77.6914 236.6C78.7936 237.802 80.2879 238.478 81.8466 238.481H218.121C219.679 238.478 221.174 237.802 222.276 236.6C223.378 235.397 223.998 233.768 224.001 232.068V59.292C223.998 57.5919 223.378 55.9621 222.276 54.7599C221.174 53.5577 219.679 52.8813 218.121 52.8789ZM223.309 232.068C223.307 233.568 222.76 235.006 221.787 236.067C220.815 237.128 219.496 237.724 218.121 237.726H81.8466C80.4712 237.724 79.1525 237.128 78.18 236.067C77.2074 235.006 76.6602 233.568 76.6585 232.068V59.292C76.6602 57.7918 77.2074 56.3536 78.18 55.2928C79.1525 54.232 80.4712 53.6352 81.8466 53.6334H218.121C219.496 53.6352 220.815 54.232 221.787 55.2928C222.76 56.3536 223.307 57.7918 223.309 59.292V232.068Z" fill="#3F3D56"/>
<path d="M181.804 69.4777H118.164C117.338 69.4767 116.547 69.1187 115.964 68.4822C115.38 67.8457 115.052 66.9827 115.051 66.0825V49.484C115.052 48.5839 115.38 47.7209 115.964 47.0844C116.547 46.4479 117.338 46.0899 118.164 46.0889H181.804C182.63 46.0899 183.421 46.4479 184.004 47.0844C184.588 47.7209 184.916 48.5839 184.917 49.484V66.0825C184.916 66.9827 184.588 67.8457 184.004 68.4822C183.421 69.1187 182.63 69.4767 181.804 69.4777Z" fill="#386FA4"/>
<path d="M149.983 47.2204C153.803 47.2204 156.9 43.8425 156.9 39.6756C156.9 35.5088 153.803 32.1309 149.983 32.1309C146.162 32.1309 143.065 35.5088 143.065 39.6756C143.065 43.8425 146.162 47.2204 149.983 47.2204Z" fill="#386FA4"/>
<path d="M149.983 44.271C152.31 44.271 154.196 42.2136 154.196 39.6756C154.196 37.1375 152.31 35.0801 149.983 35.0801C147.656 35.0801 145.77 37.1375 145.77 39.6756C145.77 42.2136 147.656 44.271 149.983 44.271Z" fill="white"/>
</g>
<defs>
<clipPath id="clip0_1490_10972">
<rect width="224" height="238.481" fill="white"/>
</clipPath>
</defs>
</svg>
