<svg width="29" height="23" viewBox="0 0 29 23" fill="none" xmlns="http://www.w3.org/2000/svg">
<path d="M20.7259 0.00382267C20.4911 0.0541771 20.2816 0.185994 20.1346 0.375945C19.9876 0.565896 19.9125 0.801733 19.9226 1.04172V21.3927C19.8988 21.5383 19.9069 21.6873 19.9463 21.8295C19.9858 21.9716 20.0557 22.1035 20.1513 22.216C20.2468 22.3284 20.3656 22.4187 20.4995 22.4807C20.6334 22.5426 20.7792 22.5747 20.9268 22.5747C21.0743 22.5747 21.2201 22.5426 21.354 22.4807C21.4879 22.4187 21.6068 22.3284 21.7023 22.216C21.7978 22.1035 21.8677 21.9716 21.9072 21.8295C21.9467 21.6873 21.9548 21.5383 21.9309 21.3927V1.04172C21.9343 0.89867 21.9075 0.756511 21.8523 0.624525C21.797 0.492539 21.7145 0.373693 21.6102 0.275747C21.5059 0.177801 21.3821 0.102957 21.2469 0.0561009C21.1117 0.00924513 20.9681 -0.00856869 20.8256 0.00382267C20.7924 0.00219644 20.7591 0.00219644 20.7259 0.00382267ZM7.87272 1.07492C7.63786 1.12528 7.42838 1.2571 7.28136 1.44705C7.13434 1.637 7.05925 1.87284 7.0694 2.11282L7.0694 20.3216C7.04554 20.4672 7.05363 20.6162 7.09312 20.7584C7.1326 20.9005 7.20253 21.0324 7.29805 21.1449C7.39357 21.2573 7.51241 21.3476 7.64632 21.4096C7.78023 21.4715 7.92601 21.5036 8.07355 21.5036C8.2211 21.5036 8.36688 21.4715 8.50079 21.4096C8.6347 21.3476 8.75353 21.2573 8.84906 21.1449C8.94458 21.0324 9.01451 20.9005 9.05399 20.7584C9.09347 20.6162 9.10157 20.4672 9.07771 20.3216L9.07771 2.11282C9.08111 1.96977 9.0543 1.82761 8.99903 1.69563C8.94377 1.56364 8.86128 1.44479 8.75697 1.34685C8.65265 1.2489 8.52885 1.17406 8.39365 1.1272C8.25845 1.08035 8.11489 1.06253 7.97233 1.07492C7.93915 1.0733 7.90591 1.0733 7.87272 1.07492ZM17.5126 4.28823C17.2778 4.33858 17.0683 4.4704 16.9213 4.66035C16.7743 4.8503 16.6992 5.08614 16.7093 5.32613V17.1082C16.6849 17.254 16.6926 17.4034 16.7318 17.5459C16.7711 17.6885 16.8408 17.8207 16.9364 17.9335C17.0319 18.0464 17.1508 18.137 17.285 18.1992C17.4191 18.2613 17.5651 18.2936 17.7129 18.2936C17.8608 18.2936 18.0068 18.2613 18.1409 18.1992C18.275 18.137 18.394 18.0464 18.4895 17.9335C18.585 17.8207 18.6548 17.6885 18.694 17.5459C18.7332 17.4034 18.7409 17.254 18.7166 17.1082V5.32613C18.7199 5.18327 18.6932 5.04131 18.638 4.90949C18.5829 4.77766 18.5006 4.65892 18.3965 4.56101C18.2924 4.4631 18.1689 4.38821 18.034 4.34121C17.899 4.29421 17.7557 4.27616 17.6133 4.28823C17.5794 4.28653 17.5465 4.28653 17.5126 4.28823ZM4.65942 5.35933C4.42455 5.40969 4.21507 5.5415 4.06805 5.73145C3.92103 5.9214 3.84595 6.15724 3.85609 6.39723L3.85609 16.0371C3.83172 16.1829 3.83941 16.3323 3.87862 16.4748C3.91783 16.6174 3.98763 16.7496 4.08315 16.8624C4.17867 16.9753 4.29762 17.0659 4.43173 17.1281C4.56584 17.1902 4.71189 17.2225 4.85971 17.2225C5.00753 17.2225 5.15358 17.1902 5.28769 17.1281C5.4218 17.0659 5.54076 16.9753 5.63628 16.8624C5.7318 16.7496 5.80159 16.6174 5.8408 16.4748C5.88002 16.3323 5.8877 16.1829 5.86333 16.0371L5.86333 6.39723C5.8667 6.25438 5.83995 6.11241 5.78481 5.98059C5.72967 5.84876 5.64738 5.73003 5.5433 5.63211C5.43923 5.5342 5.3157 5.45931 5.18075 5.41231C5.04581 5.36531 4.90248 5.34726 4.7601 5.35933C4.7262 5.35763 4.69331 5.35763 4.65942 5.35933ZM11.086 6.43043C10.8512 6.48079 10.6417 6.6126 10.4947 6.80256C10.3476 6.99251 10.2726 7.22834 10.2827 7.46833V14.966C10.2583 15.1118 10.266 15.2612 10.3052 15.4037C10.3444 15.5463 10.4142 15.6785 10.5098 15.7913C10.6053 15.9042 10.7242 15.9948 10.8583 16.057C10.9925 16.1191 11.1385 16.1514 11.2863 16.1514C11.4341 16.1514 11.5802 16.1191 11.7143 16.057C11.8484 15.9948 11.9674 15.9042 12.0629 15.7913C12.1584 15.6785 12.2282 15.5463 12.2674 15.4037C12.3066 15.2612 12.3143 15.1118 12.2899 14.966V7.46833C12.2933 7.32548 12.2666 7.18352 12.2114 7.05169C12.1563 6.91986 12.074 6.80113 11.9699 6.70322C11.8658 6.6053 11.7423 6.53041 11.6074 6.48341C11.4724 6.43641 11.3291 6.41836 11.1867 6.43043C11.1528 6.42874 11.1199 6.42874 11.086 6.43043ZM23.9392 6.43043C23.7044 6.48079 23.4949 6.6126 23.3479 6.80256C23.2009 6.99251 23.1258 7.22834 23.1359 7.46833V14.966C23.1121 15.1116 23.1202 15.2607 23.1596 15.4029C23.1991 15.545 23.2691 15.6769 23.3646 15.7894C23.4601 15.9018 23.5789 15.9921 23.7128 16.0541C23.8468 16.116 23.9925 16.1481 24.1401 16.1481C24.2876 16.1481 24.4334 16.116 24.5673 16.0541C24.7012 15.9921 24.8201 15.9018 24.9156 15.7894C25.0111 15.6769 25.081 15.545 25.1205 15.4029C25.16 15.2607 25.1681 15.1116 25.1442 14.966V7.46833C25.1476 7.32528 25.1208 7.18312 25.0656 7.05114C25.0103 6.91915 24.9278 6.8003 24.8235 6.70236C24.7192 6.60441 24.5954 6.52957 24.4602 6.48271C24.325 6.43586 24.1814 6.41804 24.0389 6.43043C24.0057 6.42881 23.9724 6.42881 23.9392 6.43043ZM1.44611 8.57264C1.21125 8.62299 1.00177 8.75481 0.854747 8.94476C0.707726 9.13471 0.632642 9.37055 0.642783 9.61053L0.642783 12.8238C0.618927 12.9694 0.627021 13.1185 0.666504 13.2607C0.705987 13.4028 0.775914 13.5347 0.871438 13.6471C0.966962 13.7596 1.0858 13.8499 1.21971 13.9119C1.35362 13.9738 1.4994 14.0059 1.64694 14.0059C1.79449 14.0059 1.94027 13.9738 2.07418 13.9119C2.20809 13.8499 2.32692 13.7596 2.42245 13.6471C2.51797 13.5347 2.5879 13.4028 2.62738 13.2607C2.66686 13.1185 2.67496 12.9694 2.6511 12.8238L2.6511 9.61053C2.6545 9.46748 2.62769 9.32533 2.57242 9.19334C2.51715 9.06135 2.43467 8.94251 2.33036 8.84456C2.22604 8.74662 2.10224 8.67177 1.96704 8.62492C1.83184 8.57806 1.68828 8.56025 1.54572 8.57264C1.51218 8.57098 1.47858 8.57098 1.44504 8.57264H1.44611ZM14.2993 8.57264C14.0645 8.62299 13.855 8.75481 13.708 8.94476C13.5609 9.13471 13.4859 9.37055 13.496 9.61053V12.8238C13.4716 12.9696 13.4793 13.119 13.5185 13.2615C13.5577 13.404 13.6275 13.5363 13.7231 13.6491C13.8186 13.7619 13.9375 13.8526 14.0717 13.9148C14.2058 13.9769 14.3518 14.0091 14.4996 14.0091C14.6475 14.0091 14.7935 13.9769 14.9276 13.9148C15.0617 13.8526 15.1807 13.7619 15.2762 13.6491C15.3717 13.5363 15.4415 13.404 15.4807 13.2615C15.5199 13.119 15.5276 12.9696 15.5033 12.8238V9.61053C15.5066 9.46768 15.4799 9.32572 15.4247 9.19389C15.3696 9.06207 15.2873 8.94333 15.1832 8.84542C15.0791 8.74751 14.9556 8.67261 14.8207 8.62562C14.6857 8.57862 14.5424 8.56056 14.4 8.57264C14.3661 8.57094 14.3332 8.57094 14.2993 8.57264ZM27.1526 8.57264C26.9177 8.62299 26.7082 8.75481 26.5612 8.94476C26.4142 9.13471 26.3391 9.37055 26.3492 9.61053V12.8238C26.3254 12.9694 26.3335 13.1185 26.3729 13.2607C26.4124 13.4028 26.4824 13.5347 26.5779 13.6471C26.6734 13.7596 26.7922 13.8499 26.9262 13.9119C27.0601 13.9738 27.2058 14.0059 27.3534 14.0059C27.5009 14.0059 27.6467 13.9738 27.7806 13.9119C27.9145 13.8499 28.0334 13.7596 28.1289 13.6471C28.2244 13.5347 28.2943 13.4028 28.3338 13.2607C28.3733 13.1185 28.3814 12.9694 28.3575 12.8238V9.61053C28.3609 9.46748 28.3341 9.32533 28.2789 9.19334C28.2236 9.06135 28.1411 8.94251 28.0368 8.84456C27.9325 8.74662 27.8087 8.67177 27.6735 8.62492C27.5383 8.57806 27.3947 8.56025 27.2522 8.57264C27.219 8.57101 27.1857 8.57101 27.1526 8.57264Z" fill="#11CDF3"/>
</svg>
