<svg width="50" height="50" viewBox="0 0 50 50" fill="none" xmlns="http://www.w3.org/2000/svg">
<path d="M22.9167 8.33333C22.9167 8.33333 9.4384 8.33333 8.33333 8.33333C7.22826 8.33333 6.16846 8.77231 5.38705 9.55372C4.7485 10.1923 4.33861 11.7547 4.21009 12.3046C4.17971 12.4346 4.16667 12.5488 4.16667 12.6823C4.16666 15.0798 4.16657 40.3438 4.16667 41.6667C4.16677 43.0555 4.50643 43.7323 5.38705 44.6129C6.26768 45.4936 7.22826 45.8333 8.33333 45.8333H37.5C38.6051 45.8333 39.6649 45.3943 40.4463 44.6129C41.2277 43.8315 41.6667 42.7717 41.6667 41.6667V27.0833" stroke="#0A151E" stroke-width="1.5" stroke-linecap="round" stroke-linejoin="round"/>
<path d="M38.5417 5.20833C39.3705 4.37953 40.4946 3.91391 41.6667 3.91391C42.8388 3.91391 43.9629 4.37953 44.7917 5.20833C45.6205 6.03713 46.0861 7.16122 46.0861 8.33333C46.0861 9.50543 45.6205 10.6295 44.7917 11.4583L25 31.25L16.6667 33.3333L18.75 25L38.5417 5.20833Z" stroke="#0A151E" stroke-width="1.5" stroke-linecap="round" stroke-linejoin="round"/>
</svg>
