<svg width="19" height="18" viewBox="0 0 19 18" fill="none" xmlns="http://www.w3.org/2000/svg">
<path d="M8.75004 3C8.75004 3 3.89786 3 3.50004 3C3.10221 3 2.72068 3.15804 2.43938 3.43934C2.24744 3.63127 2.11289 4.05507 2.04677 4.30497C2.01263 4.43402 2.00004 4.56164 2.00004 4.69513C2.00003 6.09297 2 14.5415 2.00004 15C2.00007 15.5 2.12235 15.7436 2.43938 16.0607C2.7564 16.3777 3.10221 16.5 3.50004 16.5H14C14.3979 16.5 14.7794 16.342 15.0607 16.0607C15.342 15.7794 15.5 15.3978 15.5 15V9.75" stroke="#0A151E" stroke-width="1.5" stroke-linecap="round" stroke-linejoin="round"/>
<path d="M14.375 1.87493C14.6734 1.57656 15.078 1.40894 15.5 1.40894C15.922 1.40894 16.3266 1.57656 16.625 1.87493C16.9234 2.17329 17.091 2.57797 17.091 2.99993C17.091 3.42188 16.9234 3.82656 16.625 4.12493L9.5 11.2499L6.5 11.9999L7.25 8.99993L14.375 1.87493Z" stroke="#0A151E" stroke-width="1.5" stroke-linecap="round" stroke-linejoin="round"/>
</svg>
