<svg width="20" height="13" viewBox="0 0 20 13" fill="none" xmlns="http://www.w3.org/2000/svg">
<g clip-path="url(#clip0_1580_12167)">
<path d="M1.66792 7.8886C1.89937 7.8886 2.06139 7.79602 2.15397 7.61086C2.24655 7.4257 2.24655 7.24054 2.15397 7.05538C2.06139 6.87022 1.89937 6.77763 1.66792 6.77763C1.43647 6.77763 1.27445 6.87022 1.18187 7.05538C1.08929 7.24054 1.08929 7.4257 1.18187 7.61086C1.27445 7.79602 1.43647 7.8886 1.66792 7.8886ZM14.4528 7.3852C14.3949 7.30997 14.2835 7.16532 14.1186 6.95122C13.9537 6.73713 13.8336 6.5809 13.7584 6.48253C13.6832 6.38417 13.5732 6.2424 13.4286 6.05724C13.2839 5.87208 13.161 5.71874 13.0597 5.59723C12.9584 5.47572 12.8413 5.33974 12.7082 5.18929C12.5751 5.03885 12.4449 4.89709 12.3176 4.764L11.2327 5.97913C10.7524 6.52304 10.1492 6.78921 9.42301 6.77763C8.69683 6.76606 8.10229 6.48253 7.63938 5.92705C7.30956 5.52779 7.1461 5.07068 7.14899 4.5557C7.15189 4.04071 7.32113 3.58649 7.65674 3.19302L9.193 1.40505C9.0657 1.34141 8.91815 1.29367 8.75035 1.26184C8.58255 1.23002 8.44512 1.21266 8.33808 1.20977C8.23103 1.20687 8.06757 1.20832 7.84769 1.21411C7.62781 1.21989 7.48604 1.22279 7.4224 1.22279C6.89006 1.22279 6.43294 1.41373 6.05104 1.79563L4.67969 3.16698H3.33437V7.8886C3.36331 7.8886 3.42406 7.88716 3.51664 7.88426C3.60922 7.88137 3.67287 7.88137 3.70759 7.88426C3.74231 7.88716 3.79872 7.89294 3.87684 7.90162C3.95495 7.9103 4.01426 7.92332 4.05477 7.94068C4.09527 7.95804 4.1459 7.98263 4.20666 8.01446C4.26741 8.04628 4.32094 8.08534 4.36723 8.13163L6.94503 10.666C7.61045 11.3083 8.26719 11.6294 8.91526 11.6294C9.36659 11.6294 9.72824 11.4935 10.0002 11.2215C10.33 11.3372 10.6555 11.3141 10.9766 11.1521C11.2978 10.9901 11.5075 10.7441 11.6059 10.4143C12.0341 10.449 12.4015 10.3217 12.7082 10.0324C12.8239 9.92828 12.9281 9.79664 13.0206 9.63751C13.1132 9.47839 13.1537 9.33229 13.1422 9.1992C13.2 9.25706 13.3244 9.286 13.5154 9.286C13.7642 9.286 13.987 9.22524 14.1837 9.10373C14.3804 8.98221 14.5236 8.82888 14.6133 8.64372C14.703 8.45855 14.7377 8.25169 14.7175 8.02314C14.6972 7.79458 14.609 7.58193 14.4528 7.3852ZM15.8328 7.8886H16.666V3.44473H15.8588L14.4961 1.88242C14.1143 1.44267 13.6253 1.22279 13.0293 1.22279H11.5799C11.0649 1.22279 10.6425 1.41663 10.3127 1.80431L8.49865 3.91342C8.33663 4.10436 8.25562 4.32135 8.25562 4.56437C8.25562 4.8074 8.33374 5.02439 8.48997 5.21533C8.73878 5.51043 9.05702 5.66088 9.44471 5.66666C9.83239 5.67245 10.1535 5.53069 10.4081 5.24137L12.0833 3.34925C12.2279 3.21617 12.3827 3.15396 12.5476 3.16264C12.7125 3.17132 12.8485 3.24944 12.9555 3.39699C13.0626 3.54454 13.0872 3.708 13.0293 3.88738C13.1219 3.99732 13.2839 4.17959 13.5154 4.43418C13.7468 4.68878 13.9204 4.88551 14.0361 5.02439C14.2039 5.23269 14.4426 5.53792 14.7522 5.94007C15.0618 6.34222 15.2484 6.58669 15.312 6.67348C15.6129 7.05538 15.7865 7.46042 15.8328 7.8886ZM18.3325 7.8886C18.5639 7.8886 18.7259 7.79602 18.8185 7.61086C18.9111 7.4257 18.9111 7.24054 18.8185 7.05538C18.7259 6.87022 18.5639 6.77763 18.3325 6.77763C18.101 6.77763 17.939 6.87022 17.8464 7.05538C17.7538 7.24054 17.7538 7.4257 17.8464 7.61086C17.939 7.79602 18.101 7.8886 18.3325 7.8886ZM19.9989 2.88924V8.44409C19.9989 8.59453 19.9439 8.72472 19.834 8.83466C19.7241 8.9446 19.5939 8.99957 19.4434 8.99957H15.6766C15.5203 9.37568 15.2831 9.6838 14.9648 9.92393C14.6466 10.1641 14.2849 10.3131 13.8799 10.3709C13.689 10.6487 13.4561 10.8845 13.1812 11.0783C12.9064 11.2721 12.6098 11.4038 12.2916 11.4732C12.0485 11.7799 11.7462 12.0157 11.3846 12.1806C11.0229 12.3455 10.6512 12.4164 10.2693 12.3932C9.92208 12.59 9.55754 12.7043 9.17564 12.7361C8.79375 12.7679 8.42487 12.7274 8.06901 12.6146C7.71316 12.5017 7.37466 12.3469 7.05352 12.1502C6.73238 11.9535 6.43294 11.7191 6.1552 11.4472L3.66419 8.99957H0.55695C0.406506 8.99957 0.276314 8.9446 0.166374 8.83466C0.0564347 8.72472 0.00146484 8.59453 0.00146484 8.44409V2.6115C0.00146484 2.46105 0.0564347 2.33086 0.166374 2.22092C0.276314 2.11098 0.406506 2.05601 0.55695 2.05601H4.211C4.29201 1.97501 4.42798 1.83613 4.61893 1.6394C4.80988 1.44267 4.94731 1.30379 5.03121 1.22279C5.11511 1.14178 5.24241 1.02605 5.4131 0.875608C5.5838 0.725164 5.7299 0.616671 5.85141 0.550129C5.97293 0.483586 6.12048 0.409811 6.29407 0.328803C6.46766 0.247794 6.64703 0.191378 6.83219 0.159553C7.01735 0.127729 7.21409 0.111816 7.4224 0.111816H8.43789C9.01073 0.111816 9.53439 0.273833 10.0089 0.597866C10.4833 0.273833 11.007 0.111816 11.5799 0.111816H13.0293C13.2318 0.111816 13.4257 0.129175 13.6108 0.163893C13.796 0.198611 13.9595 0.240562 14.1012 0.289745C14.243 0.338929 14.392 0.415597 14.5482 0.519751C14.7045 0.623904 14.8332 0.713592 14.9345 0.788814C15.0357 0.864035 15.1601 0.978315 15.3077 1.13165C15.4552 1.28499 15.5681 1.4065 15.6462 1.49619C15.7243 1.58588 15.8429 1.72475 16.002 1.9128C16.1612 2.10086 16.2812 2.24117 16.3622 2.33376H19.4434C19.5939 2.33376 19.7241 2.38873 19.834 2.49867C19.9439 2.6086 19.9989 2.7388 19.9989 2.88924Z" fill="black"/>
</g>
<defs>
<clipPath id="clip0_1580_12167">
<rect width="20" height="12.7762" fill="white" transform="translate(0 0.111816)"/>
</clipPath>
</defs>
</svg>
