<svg width="24" height="24" viewBox="0 0 24 24" fill="none" xmlns="http://www.w3.org/2000/svg">
<path d="M2.00195 12.0018C2.00252 14.3832 2.85242 16.6862 4.39892 18.497C5.94541 20.3078 8.08707 21.5076 10.439 21.8808V14.8918H7.90195V12.0018H10.442V9.80184C10.3859 9.28693 10.4438 8.76598 10.6118 8.276C10.7797 7.78602 11.0535 7.33903 11.4136 6.96677C11.7737 6.59451 12.2114 6.30611 12.6956 6.12206C13.1797 5.93801 13.6985 5.86282 14.215 5.90184C14.965 5.91384 15.715 5.98084 16.455 6.10184V8.56084H15.191C14.9761 8.5327 14.7577 8.5532 14.5519 8.62082C14.346 8.68844 14.158 8.80145 14.0017 8.9515C13.8454 9.10156 13.7249 9.28481 13.6489 9.48773C13.573 9.69065 13.5436 9.90804 13.563 10.1238V12.0018H16.334L15.891 14.8928H13.563V21.8808C15.4506 21.5825 17.2132 20.7496 18.6421 19.4806C20.071 18.2116 21.1064 16.5598 21.6257 14.7207C22.145 12.8815 22.1264 10.9321 21.5721 9.10317C21.0179 7.27426 19.9512 5.64247 18.4983 4.40098C17.0455 3.15949 15.2673 2.36031 13.3743 2.09804C11.4814 1.83578 9.55287 2.12141 7.81721 2.92114C6.08154 3.72086 4.61137 5.00118 3.58076 6.61051C2.55015 8.21985 2.00226 10.0908 2.00195 12.0018Z" fill="#386FA4"/>
</svg>
