<svg width="396" height="131" viewBox="0 0 396 131" fill="none" xmlns="http://www.w3.org/2000/svg">
<path d="M53.2623 70.644C52.5156 70.644 51.8543 70.548 51.2783 70.356C50.7129 70.1533 50.2383 69.86 49.8543 69.476C49.4703 69.0813 49.1769 68.596 48.9743 68.02C48.7823 67.4333 48.6863 66.756 48.6863 65.988V59.86C48.6863 59.604 48.7503 59.4173 48.8783 59.3C49.0063 59.172 49.1876 59.108 49.4223 59.108C49.6676 59.108 49.8543 59.172 49.9823 59.3C50.1103 59.4173 50.1743 59.604 50.1743 59.86V65.94C50.1743 67.0813 50.4356 67.9347 50.9583 68.5C51.4809 69.0547 52.2489 69.332 53.2623 69.332C54.2756 69.332 55.0436 69.0547 55.5663 68.5C56.0889 67.9347 56.3503 67.0813 56.3503 65.94V59.86C56.3503 59.604 56.4143 59.4173 56.5423 59.3C56.6703 59.172 56.8516 59.108 57.0863 59.108C57.3209 59.108 57.5023 59.172 57.6303 59.3C57.7583 59.4173 57.8223 59.604 57.8223 59.86V65.988C57.8223 67.0013 57.6463 67.8547 57.2943 68.548C56.9529 69.2413 56.4409 69.764 55.7583 70.116C55.0863 70.468 54.2543 70.644 53.2623 70.644ZM60.9974 73.492C60.7734 73.492 60.5974 73.428 60.4694 73.3C60.3414 73.172 60.2774 72.9907 60.2774 72.756V63.332C60.2774 63.0867 60.3414 62.9053 60.4694 62.788C60.5974 62.66 60.7734 62.596 60.9974 62.596C61.232 62.596 61.408 62.66 61.5254 62.788C61.6534 62.9053 61.7174 63.0867 61.7174 63.332V64.788L61.5414 64.5C61.712 63.9133 62.048 63.444 62.5494 63.092C63.0507 62.74 63.6534 62.564 64.3574 62.564C65.0507 62.564 65.6534 62.7293 66.1654 63.06C66.6774 63.38 67.0774 63.844 67.3654 64.452C67.6534 65.0493 67.7974 65.764 67.7974 66.596C67.7974 67.4173 67.6534 68.1373 67.3654 68.756C67.088 69.364 66.688 69.8333 66.1654 70.164C65.6534 70.484 65.0507 70.644 64.3574 70.644C63.664 70.644 63.0667 70.468 62.5654 70.116C62.064 69.764 61.728 69.3 61.5574 68.724H61.7334V72.756C61.7334 72.9907 61.6694 73.172 61.5414 73.3C61.4134 73.428 61.232 73.492 60.9974 73.492ZM64.0214 69.492C64.48 69.492 64.88 69.38 65.2214 69.156C65.5734 68.932 65.8454 68.6067 66.0374 68.18C66.2294 67.7533 66.3254 67.2253 66.3254 66.596C66.3254 65.6573 66.1174 64.9427 65.7014 64.452C65.2854 63.9613 64.7254 63.716 64.0214 63.716C63.552 63.716 63.1414 63.828 62.7894 64.052C62.448 64.2653 62.1814 64.5853 61.9894 65.012C61.808 65.4387 61.7174 65.9667 61.7174 66.596C61.7174 67.5347 61.9254 68.2547 62.3414 68.756C62.7574 69.2467 63.3174 69.492 64.0214 69.492ZM72.116 70.644C71.316 70.644 70.708 70.4093 70.292 69.94C69.876 69.46 69.668 68.772 69.668 67.876V59.844C69.668 59.5987 69.732 59.4173 69.86 59.3C69.988 59.172 70.164 59.108 70.388 59.108C70.6227 59.108 70.804 59.172 70.932 59.3C71.06 59.4173 71.124 59.5987 71.124 59.844V67.764C71.124 68.3187 71.236 68.7347 71.46 69.012C71.6947 69.2787 72.0253 69.412 72.452 69.412C72.548 69.412 72.6333 69.412 72.708 69.412C72.7827 69.4013 72.8573 69.3907 72.932 69.38C73.0493 69.3693 73.1347 69.4013 73.188 69.476C73.2413 69.5507 73.268 69.7 73.268 69.924C73.268 70.1267 73.22 70.2867 73.124 70.404C73.0387 70.5107 72.8947 70.58 72.692 70.612C72.596 70.6227 72.5 70.628 72.404 70.628C72.308 70.6387 72.212 70.644 72.116 70.644ZM77.7144 70.644C76.9464 70.644 76.2797 70.4787 75.7144 70.148C75.149 69.8173 74.7117 69.348 74.4024 68.74C74.093 68.132 73.9384 67.4173 73.9384 66.596C73.9384 65.9773 74.0237 65.4227 74.1944 64.932C74.3757 64.4307 74.6317 64.004 74.9624 63.652C75.293 63.3 75.6877 63.0333 76.1464 62.852C76.6157 62.66 77.1384 62.564 77.7144 62.564C78.4824 62.564 79.149 62.7293 79.7144 63.06C80.2797 63.3907 80.717 63.86 81.0264 64.468C81.3357 65.0653 81.4904 65.7747 81.4904 66.596C81.4904 67.2147 81.3997 67.7747 81.2184 68.276C81.0477 68.7773 80.797 69.204 80.4664 69.556C80.1357 69.908 79.7357 70.18 79.2664 70.372C78.8077 70.5533 78.2904 70.644 77.7144 70.644ZM77.7144 69.492C78.1837 69.492 78.589 69.38 78.9304 69.156C79.2824 68.932 79.549 68.6067 79.7304 68.18C79.9224 67.7533 80.0184 67.2253 80.0184 66.596C80.0184 65.6573 79.8104 64.9427 79.3944 64.452C78.9784 63.9613 78.4184 63.716 77.7144 63.716C77.2557 63.716 76.8504 63.828 76.4984 64.052C76.157 64.2653 75.8904 64.5853 75.6984 65.012C75.5064 65.4387 75.4104 65.9667 75.4104 66.596C75.4104 67.5347 75.6184 68.2547 76.0344 68.756C76.461 69.2467 77.021 69.492 77.7144 69.492ZM85.8355 70.644C85.3022 70.644 84.8168 70.5373 84.3795 70.324C83.9528 70.1107 83.6168 69.8227 83.3715 69.46C83.1368 69.0973 83.0195 68.692 83.0195 68.244C83.0195 67.668 83.1635 67.2147 83.4515 66.884C83.7395 66.5533 84.2248 66.3187 84.9075 66.18C85.5902 66.0307 86.5075 65.956 87.6595 65.956H88.4115V66.884H87.6915C86.8702 66.884 86.2195 66.9213 85.7395 66.996C85.2702 67.0707 84.9395 67.204 84.7475 67.396C84.5555 67.5773 84.4595 67.8333 84.4595 68.164C84.4595 68.58 84.6035 68.9213 84.8915 69.188C85.1902 69.4547 85.5955 69.588 86.1075 69.588C86.5128 69.588 86.8702 69.492 87.1795 69.3C87.4888 69.0973 87.7342 68.8307 87.9155 68.5C88.0968 68.1587 88.1875 67.7693 88.1875 67.332V65.492C88.1875 64.8627 88.0595 64.4093 87.8035 64.132C87.5475 63.844 87.1155 63.7 86.5075 63.7C86.1555 63.7 85.7928 63.748 85.4195 63.844C85.0462 63.94 84.6568 64.0893 84.2515 64.292C84.0915 64.3667 83.9528 64.3933 83.8355 64.372C83.7182 64.34 83.6222 64.276 83.5475 64.18C83.4835 64.0733 83.4462 63.9613 83.4355 63.844C83.4355 63.716 83.4622 63.5933 83.5155 63.476C83.5795 63.3587 83.6862 63.2733 83.8355 63.22C84.3048 62.9853 84.7688 62.82 85.2275 62.724C85.6968 62.6173 86.1342 62.564 86.5395 62.564C87.2328 62.564 87.8035 62.676 88.2515 62.9C88.6995 63.1133 89.0355 63.4493 89.2595 63.908C89.4835 64.356 89.5955 64.932 89.5955 65.636V69.86C89.5955 70.1053 89.5368 70.292 89.4195 70.42C89.3022 70.548 89.1315 70.612 88.9075 70.612C88.6942 70.612 88.5235 70.548 88.3955 70.42C88.2782 70.292 88.2195 70.1053 88.2195 69.86V68.724H88.3635C88.2782 69.1187 88.1182 69.46 87.8835 69.748C87.6488 70.036 87.3555 70.26 87.0035 70.42C86.6622 70.5693 86.2728 70.644 85.8355 70.644ZM94.8628 70.644C94.1801 70.644 93.5774 70.484 93.0548 70.164C92.5428 69.8333 92.1428 69.364 91.8548 68.756C91.5668 68.1373 91.4228 67.4173 91.4228 66.596C91.4228 65.764 91.5614 65.0493 91.8388 64.452C92.1268 63.844 92.5268 63.38 93.0388 63.06C93.5614 62.7293 94.1694 62.564 94.8628 62.564C95.5561 62.564 96.1534 62.74 96.6548 63.092C97.1561 63.4333 97.4921 63.892 97.6628 64.468H97.4868V59.844C97.4868 59.5987 97.5454 59.4173 97.6628 59.3C97.7908 59.172 97.9721 59.108 98.2068 59.108C98.4414 59.108 98.6228 59.172 98.7508 59.3C98.8788 59.4173 98.9427 59.5987 98.9427 59.844V69.86C98.9427 70.1053 98.8788 70.292 98.7508 70.42C98.6228 70.548 98.4414 70.612 98.2068 70.612C97.9828 70.612 97.8068 70.548 97.6788 70.42C97.5508 70.292 97.4868 70.1053 97.4868 69.86V68.404L97.6628 68.692C97.5028 69.2893 97.1668 69.764 96.6548 70.116C96.1534 70.468 95.5561 70.644 94.8628 70.644ZM95.1988 69.492C95.6681 69.492 96.0734 69.38 96.4148 69.156C96.7668 68.932 97.0334 68.6067 97.2148 68.18C97.4068 67.7533 97.5028 67.2253 97.5028 66.596C97.5028 65.6573 97.2948 64.9427 96.8788 64.452C96.4628 63.9613 95.9028 63.716 95.1988 63.716C94.7401 63.716 94.3348 63.828 93.9828 64.052C93.6414 64.2653 93.3748 64.5853 93.1828 65.012C92.9908 65.4387 92.8948 65.9667 92.8948 66.596C92.8948 67.5347 93.1028 68.2547 93.5188 68.756C93.9454 69.2467 94.5054 69.492 95.1988 69.492ZM107.241 73.492C107.071 73.492 106.927 73.444 106.809 73.348C106.703 73.2627 106.639 73.14 106.617 72.98C106.607 72.8307 106.639 72.6707 106.713 72.5L107.801 70.036V70.644L104.777 63.604C104.703 63.4227 104.676 63.2573 104.697 63.108C104.719 62.9587 104.788 62.836 104.905 62.74C105.033 62.644 105.204 62.596 105.417 62.596C105.599 62.596 105.743 62.6387 105.849 62.724C105.956 62.8093 106.057 62.9587 106.153 63.172L108.665 69.364H108.217L110.777 63.172C110.863 62.9587 110.964 62.8093 111.081 62.724C111.199 62.6387 111.359 62.596 111.561 62.596C111.743 62.596 111.881 62.644 111.977 62.74C112.084 62.836 112.148 62.9587 112.169 63.108C112.191 63.2573 112.159 63.4173 112.073 63.588L108.041 72.916C107.935 73.14 107.823 73.2893 107.705 73.364C107.599 73.4493 107.444 73.492 107.241 73.492ZM116.902 70.644C116.134 70.644 115.467 70.4787 114.902 70.148C114.337 69.8173 113.899 69.348 113.59 68.74C113.281 68.132 113.126 67.4173 113.126 66.596C113.126 65.9773 113.211 65.4227 113.382 64.932C113.563 64.4307 113.819 64.004 114.15 63.652C114.481 63.3 114.875 63.0333 115.334 62.852C115.803 62.66 116.326 62.564 116.902 62.564C117.67 62.564 118.337 62.7293 118.902 63.06C119.467 63.3907 119.905 63.86 120.214 64.468C120.523 65.0653 120.678 65.7747 120.678 66.596C120.678 67.2147 120.587 67.7747 120.406 68.276C120.235 68.7773 119.985 69.204 119.654 69.556C119.323 69.908 118.923 70.18 118.454 70.372C117.995 70.5533 117.478 70.644 116.902 70.644ZM116.902 69.492C117.371 69.492 117.777 69.38 118.118 69.156C118.47 68.932 118.737 68.6067 118.918 68.18C119.11 67.7533 119.206 67.2253 119.206 66.596C119.206 65.6573 118.998 64.9427 118.582 64.452C118.166 63.9613 117.606 63.716 116.902 63.716C116.443 63.716 116.038 63.828 115.686 64.052C115.345 64.2653 115.078 64.5853 114.886 65.012C114.694 65.4387 114.598 65.9667 114.598 66.596C114.598 67.5347 114.806 68.2547 115.222 68.756C115.649 69.2467 116.209 69.492 116.902 69.492ZM125.327 70.644C124.698 70.644 124.17 70.5267 123.743 70.292C123.327 70.0573 123.018 69.7107 122.815 69.252C122.612 68.7933 122.511 68.2173 122.511 67.524V63.332C122.511 63.0867 122.57 62.9053 122.687 62.788C122.815 62.66 122.996 62.596 123.231 62.596C123.466 62.596 123.647 62.66 123.775 62.788C123.903 62.9053 123.967 63.0867 123.967 63.332V67.524C123.967 68.1853 124.1 68.676 124.367 68.996C124.634 69.3053 125.055 69.46 125.631 69.46C126.271 69.46 126.788 69.2467 127.183 68.82C127.588 68.3933 127.791 67.828 127.791 67.124V63.332C127.791 63.0867 127.85 62.9053 127.967 62.788C128.095 62.66 128.276 62.596 128.511 62.596C128.746 62.596 128.927 62.66 129.055 62.788C129.183 62.9053 129.247 63.0867 129.247 63.332V69.86C129.247 70.3613 129.012 70.612 128.543 70.612C128.308 70.612 128.127 70.548 127.999 70.42C127.882 70.292 127.823 70.1053 127.823 69.86V68.468L128.031 68.74C127.818 69.3587 127.471 69.8333 126.991 70.164C126.522 70.484 125.967 70.644 125.327 70.644ZM132.342 70.612C132.097 70.612 131.91 70.548 131.782 70.42C131.654 70.292 131.59 70.1053 131.59 69.86V63.332C131.59 63.0867 131.654 62.9053 131.782 62.788C131.91 62.66 132.086 62.596 132.31 62.596C132.534 62.596 132.705 62.66 132.822 62.788C132.95 62.9053 133.014 63.0867 133.014 63.332V64.564H132.854C133.025 63.924 133.345 63.4387 133.814 63.108C134.283 62.7773 134.875 62.5907 135.59 62.548C135.761 62.5373 135.899 62.58 136.006 62.676C136.113 62.7613 136.171 62.9107 136.182 63.124C136.193 63.3267 136.145 63.492 136.038 63.62C135.931 63.7373 135.766 63.8067 135.542 63.828L135.254 63.844C134.55 63.9187 134.006 64.148 133.622 64.532C133.249 64.916 133.062 65.444 133.062 66.116V69.86C133.062 70.1053 132.998 70.292 132.87 70.42C132.753 70.548 132.577 70.612 132.342 70.612ZM142.534 70.612C142.299 70.612 142.118 70.548 141.99 70.42C141.862 70.2813 141.798 70.0893 141.798 69.844V59.972C141.798 59.7267 141.862 59.54 141.99 59.412C142.128 59.284 142.315 59.22 142.549 59.22H146.358C147.574 59.22 148.507 59.5187 149.158 60.116C149.819 60.7133 150.15 61.5507 150.15 62.628C150.15 63.716 149.819 64.5587 149.158 65.156C148.507 65.7533 147.574 66.052 146.358 66.052H143.286V69.844C143.286 70.0893 143.222 70.2813 143.094 70.42C142.976 70.548 142.79 70.612 142.534 70.612ZM143.286 64.852H146.166C146.998 64.852 147.622 64.6653 148.038 64.292C148.464 63.908 148.678 63.3533 148.678 62.628C148.678 61.9027 148.464 61.3587 148.038 60.996C147.622 60.6227 146.998 60.436 146.166 60.436H143.286V64.852ZM153.882 70.644C153.349 70.644 152.864 70.5373 152.426 70.324C152 70.1107 151.664 69.8227 151.418 69.46C151.184 69.0973 151.066 68.692 151.066 68.244C151.066 67.668 151.21 67.2147 151.498 66.884C151.786 66.5533 152.272 66.3187 152.954 66.18C153.637 66.0307 154.554 65.956 155.706 65.956H156.458V66.884H155.738C154.917 66.884 154.266 66.9213 153.786 66.996C153.317 67.0707 152.986 67.204 152.794 67.396C152.602 67.5773 152.506 67.8333 152.506 68.164C152.506 68.58 152.65 68.9213 152.938 69.188C153.237 69.4547 153.642 69.588 154.154 69.588C154.56 69.588 154.917 69.492 155.226 69.3C155.536 69.0973 155.781 68.8307 155.962 68.5C156.144 68.1587 156.234 67.7693 156.234 67.332V65.492C156.234 64.8627 156.106 64.4093 155.85 64.132C155.594 63.844 155.162 63.7 154.554 63.7C154.202 63.7 153.84 63.748 153.466 63.844C153.093 63.94 152.704 64.0893 152.298 64.292C152.138 64.3667 152 64.3933 151.882 64.372C151.765 64.34 151.669 64.276 151.594 64.18C151.53 64.0733 151.493 63.9613 151.482 63.844C151.482 63.716 151.509 63.5933 151.562 63.476C151.626 63.3587 151.733 63.2733 151.882 63.22C152.352 62.9853 152.816 62.82 153.274 62.724C153.744 62.6173 154.181 62.564 154.586 62.564C155.28 62.564 155.85 62.676 156.298 62.9C156.746 63.1133 157.082 63.4493 157.306 63.908C157.53 64.356 157.642 64.932 157.642 65.636V69.86C157.642 70.1053 157.584 70.292 157.466 70.42C157.349 70.548 157.178 70.612 156.954 70.612C156.741 70.612 156.57 70.548 156.442 70.42C156.325 70.292 156.266 70.1053 156.266 69.86V68.724H156.41C156.325 69.1187 156.165 69.46 155.93 69.748C155.696 70.036 155.402 70.26 155.05 70.42C154.709 70.5693 154.32 70.644 153.882 70.644ZM162.622 70.644C162.142 70.644 161.656 70.5907 161.166 70.484C160.686 70.3667 160.232 70.1693 159.806 69.892C159.688 69.8173 159.603 69.7267 159.55 69.62C159.507 69.5027 159.491 69.3907 159.502 69.284C159.523 69.1667 159.571 69.0653 159.646 68.98C159.72 68.8947 159.811 68.8467 159.918 68.836C160.035 68.8147 160.158 68.8413 160.286 68.916C160.702 69.1507 161.102 69.316 161.486 69.412C161.88 69.508 162.27 69.556 162.654 69.556C163.24 69.556 163.683 69.4493 163.982 69.236C164.28 69.0227 164.43 68.74 164.43 68.388C164.43 68.0893 164.328 67.86 164.126 67.7C163.934 67.5293 163.63 67.4013 163.214 67.316L161.726 67.012C161.064 66.8627 160.563 66.6173 160.222 66.276C159.891 65.924 159.726 65.476 159.726 64.932C159.726 64.452 159.854 64.036 160.11 63.684C160.376 63.3213 160.744 63.044 161.214 62.852C161.683 62.66 162.222 62.564 162.83 62.564C163.299 62.564 163.742 62.628 164.158 62.756C164.584 62.8733 164.968 63.0547 165.31 63.3C165.438 63.3747 165.518 63.4707 165.55 63.588C165.592 63.6947 165.598 63.8067 165.566 63.924C165.544 64.0307 165.496 64.1213 165.422 64.196C165.347 64.2707 165.251 64.3187 165.134 64.34C165.016 64.3507 164.888 64.3187 164.75 64.244C164.44 64.0307 164.12 63.8813 163.79 63.796C163.47 63.7 163.15 63.652 162.83 63.652C162.254 63.652 161.816 63.764 161.518 63.988C161.23 64.212 161.086 64.5053 161.086 64.868C161.086 65.1453 161.171 65.3747 161.342 65.556C161.523 65.7373 161.806 65.8707 162.19 65.956L163.678 66.26C164.371 66.4093 164.894 66.6493 165.246 66.98C165.598 67.3 165.774 67.7373 165.774 68.292C165.774 69.0173 165.486 69.5933 164.91 70.02C164.344 70.436 163.582 70.644 162.622 70.644ZM170.356 70.644C169.876 70.644 169.391 70.5907 168.9 70.484C168.42 70.3667 167.967 70.1693 167.54 69.892C167.423 69.8173 167.337 69.7267 167.284 69.62C167.241 69.5027 167.225 69.3907 167.236 69.284C167.257 69.1667 167.305 69.0653 167.38 68.98C167.455 68.8947 167.545 68.8467 167.652 68.836C167.769 68.8147 167.892 68.8413 168.02 68.916C168.436 69.1507 168.836 69.316 169.22 69.412C169.615 69.508 170.004 69.556 170.388 69.556C170.975 69.556 171.417 69.4493 171.716 69.236C172.015 69.0227 172.164 68.74 172.164 68.388C172.164 68.0893 172.063 67.86 171.86 67.7C171.668 67.5293 171.364 67.4013 170.948 67.316L169.46 67.012C168.799 66.8627 168.297 66.6173 167.956 66.276C167.625 65.924 167.46 65.476 167.46 64.932C167.46 64.452 167.588 64.036 167.844 63.684C168.111 63.3213 168.479 63.044 168.948 62.852C169.417 62.66 169.956 62.564 170.564 62.564C171.033 62.564 171.476 62.628 171.892 62.756C172.319 62.8733 172.703 63.0547 173.044 63.3C173.172 63.3747 173.252 63.4707 173.284 63.588C173.327 63.6947 173.332 63.8067 173.3 63.924C173.279 64.0307 173.231 64.1213 173.156 64.196C173.081 64.2707 172.985 64.3187 172.868 64.34C172.751 64.3507 172.623 64.3187 172.484 64.244C172.175 64.0307 171.855 63.8813 171.524 63.796C171.204 63.7 170.884 63.652 170.564 63.652C169.988 63.652 169.551 63.764 169.252 63.988C168.964 64.212 168.82 64.5053 168.82 64.868C168.82 65.1453 168.905 65.3747 169.076 65.556C169.257 65.7373 169.54 65.8707 169.924 65.956L171.412 66.26C172.105 66.4093 172.628 66.6493 172.98 66.98C173.332 67.3 173.508 67.7373 173.508 68.292C173.508 69.0173 173.22 69.5933 172.644 70.02C172.079 70.436 171.316 70.644 170.356 70.644ZM176.122 73.492C175.898 73.492 175.722 73.428 175.594 73.3C175.466 73.172 175.402 72.9907 175.402 72.756V63.332C175.402 63.0867 175.466 62.9053 175.594 62.788C175.722 62.66 175.898 62.596 176.122 62.596C176.357 62.596 176.533 62.66 176.65 62.788C176.778 62.9053 176.842 63.0867 176.842 63.332V64.788L176.666 64.5C176.837 63.9133 177.173 63.444 177.674 63.092C178.176 62.74 178.778 62.564 179.482 62.564C180.176 62.564 180.778 62.7293 181.29 63.06C181.802 63.38 182.202 63.844 182.49 64.452C182.778 65.0493 182.922 65.764 182.922 66.596C182.922 67.4173 182.778 68.1373 182.49 68.756C182.213 69.364 181.813 69.8333 181.29 70.164C180.778 70.484 180.176 70.644 179.482 70.644C178.789 70.644 178.192 70.468 177.69 70.116C177.189 69.764 176.853 69.3 176.682 68.724H176.858V72.756C176.858 72.9907 176.794 73.172 176.666 73.3C176.538 73.428 176.357 73.492 176.122 73.492ZM179.146 69.492C179.605 69.492 180.005 69.38 180.346 69.156C180.698 68.932 180.97 68.6067 181.162 68.18C181.354 67.7533 181.45 67.2253 181.45 66.596C181.45 65.6573 181.242 64.9427 180.826 64.452C180.41 63.9613 179.85 63.716 179.146 63.716C178.677 63.716 178.266 63.828 177.914 64.052C177.573 64.2653 177.306 64.5853 177.114 65.012C176.933 65.4387 176.842 65.9667 176.842 66.596C176.842 67.5347 177.05 68.2547 177.466 68.756C177.882 69.2467 178.442 69.492 179.146 69.492ZM188.105 70.644C187.337 70.644 186.67 70.4787 186.105 70.148C185.54 69.8173 185.102 69.348 184.793 68.74C184.484 68.132 184.329 67.4173 184.329 66.596C184.329 65.9773 184.414 65.4227 184.585 64.932C184.766 64.4307 185.022 64.004 185.353 63.652C185.684 63.3 186.078 63.0333 186.537 62.852C187.006 62.66 187.529 62.564 188.105 62.564C188.873 62.564 189.54 62.7293 190.105 63.06C190.67 63.3907 191.108 63.86 191.417 64.468C191.726 65.0653 191.881 65.7747 191.881 66.596C191.881 67.2147 191.79 67.7747 191.609 68.276C191.438 68.7773 191.188 69.204 190.857 69.556C190.526 69.908 190.126 70.18 189.657 70.372C189.198 70.5533 188.681 70.644 188.105 70.644ZM188.105 69.492C188.574 69.492 188.98 69.38 189.321 69.156C189.673 68.932 189.94 68.6067 190.121 68.18C190.313 67.7533 190.409 67.2253 190.409 66.596C190.409 65.6573 190.201 64.9427 189.785 64.452C189.369 63.9613 188.809 63.716 188.105 63.716C187.646 63.716 187.241 63.828 186.889 64.052C186.548 64.2653 186.281 64.5853 186.089 65.012C185.897 65.4387 185.801 65.9667 185.801 66.596C185.801 67.5347 186.009 68.2547 186.425 68.756C186.852 69.2467 187.412 69.492 188.105 69.492ZM194.498 70.612C194.253 70.612 194.066 70.548 193.938 70.42C193.81 70.292 193.746 70.1053 193.746 69.86V63.332C193.746 63.0867 193.81 62.9053 193.938 62.788C194.066 62.66 194.242 62.596 194.466 62.596C194.69 62.596 194.861 62.66 194.978 62.788C195.106 62.9053 195.17 63.0867 195.17 63.332V64.564H195.01C195.181 63.924 195.501 63.4387 195.97 63.108C196.439 62.7773 197.031 62.5907 197.746 62.548C197.917 62.5373 198.055 62.58 198.162 62.676C198.269 62.7613 198.327 62.9107 198.338 63.124C198.349 63.3267 198.301 63.492 198.194 63.62C198.087 63.7373 197.922 63.8067 197.698 63.828L197.41 63.844C196.706 63.9187 196.162 64.148 195.778 64.532C195.405 64.916 195.218 65.444 195.218 66.116V69.86C195.218 70.1053 195.154 70.292 195.026 70.42C194.909 70.548 194.733 70.612 194.498 70.612ZM203.259 70.644C202.63 70.644 202.102 70.532 201.675 70.308C201.259 70.084 200.945 69.7587 200.731 69.332C200.529 68.9053 200.427 68.3827 200.427 67.764V63.828H199.403C199.211 63.828 199.062 63.78 198.955 63.684C198.849 63.5773 198.795 63.4387 198.795 63.268C198.795 63.0867 198.849 62.948 198.955 62.852C199.062 62.756 199.211 62.708 199.403 62.708H200.427V60.964C200.427 60.7187 200.491 60.5373 200.619 60.42C200.747 60.292 200.929 60.228 201.163 60.228C201.398 60.228 201.574 60.292 201.691 60.42C201.819 60.5373 201.883 60.7187 201.883 60.964V62.708H203.819C204.022 62.708 204.177 62.756 204.283 62.852C204.39 62.948 204.443 63.0867 204.443 63.268C204.443 63.4387 204.39 63.5773 204.283 63.684C204.177 63.78 204.022 63.828 203.819 63.828H201.883V67.636C201.883 68.2227 202.006 68.6653 202.251 68.964C202.497 69.2627 202.902 69.412 203.467 69.412C203.67 69.412 203.841 69.396 203.979 69.364C204.118 69.3213 204.241 69.3 204.347 69.3C204.443 69.2893 204.523 69.3213 204.587 69.396C204.662 69.4707 204.699 69.6093 204.699 69.812C204.699 69.9613 204.673 70.1 204.619 70.228C204.577 70.3453 204.486 70.4253 204.347 70.468C204.219 70.5107 204.049 70.548 203.835 70.58C203.622 70.6227 203.43 70.644 203.259 70.644Z" fill="#295B85"/>
<path d="M353.016 29H247.671C246.963 29.0011 246.284 29.2828 245.783 29.7834C245.283 30.284 245.001 30.9627 245 31.6707V99.3293C245.001 100.037 245.283 100.716 245.783 101.217C246.284 101.717 246.963 101.999 247.671 102H353.016C353.724 101.999 354.403 101.717 354.904 101.217C355.404 100.716 355.686 100.037 355.687 99.3293V31.6707C355.686 30.9627 355.404 30.284 354.904 29.7834C354.403 29.2828 353.724 29.0011 353.016 29ZM355.093 99.3293C355.093 99.88 354.874 100.408 354.484 100.797C354.095 101.187 353.567 101.406 353.016 101.407H247.671C247.12 101.406 246.592 101.187 246.203 100.797C245.813 100.408 245.594 99.88 245.593 99.3293V31.6707C245.594 31.12 245.813 30.592 246.203 30.2026C246.592 29.8132 247.12 29.5941 247.671 29.5935H353.016C353.567 29.5941 354.095 29.8132 354.484 30.2026C354.874 30.592 355.093 31.12 355.093 31.6707V99.3293Z" fill="#3F3D56"/>
<path d="M270.157 62.679H253.539C252.87 62.6782 252.229 62.4122 251.756 61.9393C251.283 61.4664 251.017 60.8253 251.017 60.1566V43.5387C251.017 42.87 251.283 42.2289 251.756 41.756C252.229 41.2832 252.87 41.0172 253.539 41.0164H270.157C270.826 41.0172 271.467 41.2832 271.94 41.756C272.412 42.2289 272.678 42.87 272.679 43.5387V60.1566C272.678 60.8253 272.412 61.4664 271.94 61.9393C271.467 62.4122 270.826 62.6782 270.157 62.679Z" fill="#295B85"/>
<path d="M347.529 80.3401H253.163C252.652 80.3401 252.161 80.1369 251.799 79.7752C251.438 79.4135 251.234 78.9228 251.234 78.4113C251.234 77.8997 251.438 77.4091 251.799 77.0474C252.161 76.6856 252.652 76.4824 253.163 76.4824H347.529C348.041 76.4824 348.531 76.6856 348.893 77.0474C349.255 77.4091 349.458 77.8997 349.458 78.4113C349.458 78.9228 349.255 79.4135 348.893 79.7752C348.531 80.1369 348.041 80.3401 347.529 80.3401Z" fill="#CCCCCC"/>
<path d="M347.594 70.9935H253.228C252.716 70.9935 252.226 70.7902 251.864 70.4285C251.502 70.0668 251.299 69.5762 251.299 69.0646C251.299 68.553 251.502 68.0624 251.864 67.7007C252.226 67.339 252.716 67.1357 253.228 67.1357H347.594C348.105 67.1357 348.596 67.339 348.957 67.7007C349.319 68.0624 349.522 68.553 349.522 69.0646C349.522 69.5762 349.319 70.0668 348.957 70.4285C348.596 70.7902 348.105 70.9935 347.594 70.9935Z" fill="#CCCCCC"/>
<path d="M301.004 58.2283H287.057C286.545 58.2283 286.055 58.0251 285.693 57.6634C285.331 57.3016 285.128 56.811 285.128 56.2995C285.128 55.7879 285.331 55.2973 285.693 54.9356C286.055 54.5738 286.545 54.3706 287.057 54.3706H301.004C301.516 54.3706 302.006 54.5738 302.368 54.9356C302.73 55.2973 302.933 55.7879 302.933 56.2995C302.933 56.811 302.73 57.3016 302.368 57.6634C302.006 58.0251 301.516 58.2283 301.004 58.2283Z" fill="#CCCCCC"/>
<path d="M347.593 48.7364H287.057C286.545 48.7364 286.055 48.5332 285.693 48.1714C285.331 47.8097 285.128 47.3191 285.128 46.8075C285.128 46.296 285.331 45.8053 285.693 45.4436C286.055 45.0819 286.545 44.8787 287.057 44.8787H347.593C348.105 44.8787 348.596 45.0819 348.957 45.4436C349.319 45.8053 349.522 46.296 349.522 46.8075C349.522 47.3191 349.319 47.8097 348.957 48.1714C348.596 48.5332 348.105 48.7364 347.593 48.7364Z" fill="#CCCCCC"/>
<path d="M298.629 89.835H253.163C252.652 89.835 252.161 89.6318 251.799 89.2701C251.438 88.9083 251.234 88.4177 251.234 87.9062C251.234 87.3946 251.438 86.904 251.799 86.5422C252.161 86.1805 252.652 85.9773 253.163 85.9773H298.629C299.141 85.9773 299.631 86.1805 299.993 86.5422C300.355 86.904 300.558 87.3946 300.558 87.9062C300.558 88.4177 300.355 88.9083 299.993 89.2701C299.631 89.6318 299.141 89.835 298.629 89.835Z" fill="#CCCCCC"/>
<rect x="0.5" y="0.5" width="395" height="130" stroke="#295B85" stroke-linejoin="round" stroke-dasharray="8 8"/>
</svg>
