<svg width="50" height="50" viewBox="0 0 50 50" fill="none" xmlns="http://www.w3.org/2000/svg">
<path d="M31.25 47.3958H18.75C7.4375 47.3958 2.60417 42.5625 2.60417 31.25V18.75C2.60417 7.43749 7.4375 2.60416 18.75 2.60416H31.25C42.5625 2.60416 47.3958 7.43749 47.3958 18.75V31.25C47.3958 42.5625 42.5625 47.3958 31.25 47.3958ZM18.75 5.72916C9.14583 5.72916 5.72917 9.14582 5.72917 18.75V31.25C5.72917 40.8542 9.14583 44.2708 18.75 44.2708H31.25C40.8542 44.2708 44.2708 40.8542 44.2708 31.25V18.75C44.2708 9.14582 40.8542 5.72916 31.25 5.72916H18.75Z" fill="#0A151E"/>
<path d="M18.75 22.3958C15.5833 22.3958 13.0208 19.8333 13.0208 16.6667C13.0208 13.5 15.5833 10.9375 18.75 10.9375C21.9167 10.9375 24.4792 13.5 24.4792 16.6667C24.4792 19.8333 21.9167 22.3958 18.75 22.3958ZM18.75 14.0625C17.3125 14.0625 16.1458 15.2292 16.1458 16.6667C16.1458 18.1042 17.3125 19.2708 18.75 19.2708C20.1875 19.2708 21.3542 18.1042 21.3542 16.6667C21.3542 15.2292 20.1875 14.0625 18.75 14.0625Z" fill="#0A151E"/>
<path d="M5.5625 41.0417C5.0625 41.0417 4.5625 40.7917 4.27083 40.3542C3.79167 39.6458 3.97917 38.6667 4.70833 38.1875L14.9792 31.2917C17.2292 29.7708 20.3333 29.9583 22.375 31.6875L23.0625 32.2917C24.1042 33.1875 25.875 33.1875 26.8958 32.2917L35.5625 24.8542C37.7708 22.9583 41.25 22.9583 43.4792 24.8542L46.875 27.7708C47.5208 28.3333 47.6042 29.3125 47.0417 29.9792C46.4792 30.625 45.5 30.7083 44.8333 30.1458L41.4375 27.2292C40.3958 26.3333 38.625 26.3333 37.5833 27.2292L28.9167 34.6667C26.7083 36.5625 23.2292 36.5625 21 34.6667L20.3125 34.0625C19.3542 33.25 17.7708 33.1667 16.7083 33.8958L6.4375 40.7917C6.16667 40.9583 5.85417 41.0417 5.5625 41.0417Z" fill="#0A151E"/>
</svg>
