<svg width="29" height="29" viewBox="0 0 29 29" fill="none" xmlns="http://www.w3.org/2000/svg">
<path d="M14.5002 26.1668C20.9435 26.1668 26.1668 20.9435 26.1668 14.5002C26.1668 8.05684 20.9435 2.8335 14.5002 2.8335C8.05684 2.8335 2.8335 8.05684 2.8335 14.5002C2.8335 20.9435 8.05684 26.1668 14.5002 26.1668Z" stroke="#9E9E9E" stroke-width="1.5" stroke-linecap="round" stroke-linejoin="round"/>
<path d="M9.83353 4H11.0002C8.7252 10.8133 8.7252 18.1867 11.0002 25H9.83353" stroke="#9E9E9E" stroke-width="1.5" stroke-linecap="round" stroke-linejoin="round"/>
<path d="M18 4C20.275 10.8133 20.275 18.1867 18 25" stroke="#9E9E9E" stroke-width="1.5" stroke-linecap="round" stroke-linejoin="round"/>
<path d="M4 19.1667V18C10.8133 20.275 18.1867 20.275 25 18V19.1667" stroke="#9E9E9E" stroke-width="1.5" stroke-linecap="round" stroke-linejoin="round"/>
<path d="M4 11.0002C10.8133 8.7252 18.1867 8.7252 25 11.0002" stroke="#9E9E9E" stroke-width="1.5" stroke-linecap="round" stroke-linejoin="round"/>
</svg>
