<svg width="24" height="19" viewBox="0 0 24 19" fill="none" xmlns="http://www.w3.org/2000/svg">
<g clip-path="url(#clip0_424_7957)">
<path d="M5.45552 23.8817V11.582L2.58026 8.0923L0.00195312 6.15576V21.7111C0.00195312 22.9121 0.735413 23.8817 1.63806 23.8817H5.45552Z" fill="#4285F4"/>
<path d="M5.45552 18.0014V8.73027L2.58026 6.09984L0.00195312 4.64014V16.3653C0.00195312 17.2706 0.735413 18.0014 1.63806 18.0014H5.45552Z" fill="#4285F4"/>
<path d="M18.5439 18.0013H22.3614C23.2668 18.0013 23.9975 17.2677 23.9975 16.3652V4.64014L21.0772 6.31205L18.5439 8.73017V18.0013Z" fill="#34A853"/>
<path d="M18.5439 23.8821H22.3614C23.2668 23.8821 23.9975 22.9089 23.9975 21.7115V6.15625L21.0772 8.37432L18.5439 11.5824V23.8821Z" fill="#34A853"/>
<path d="M5.45569 8.73021L5.06445 5.10771L5.45569 1.64062L11.9999 6.54885L18.5442 1.64062L18.9818 4.92053L18.5442 8.73021L11.9999 13.6384L5.45569 8.73021Z" fill="#EA4335"/>
<path d="M5.45569 11.5823L5.06445 6.77643L5.45569 2.17676L11.9999 8.68834L18.5442 2.17676L18.9818 6.52809L18.5442 11.5823L11.9999 18.0939L5.45569 11.5823Z" fill="#EA4335"/>
<path d="M18.5439 1.64067V8.73025L23.9975 4.64013V2.45868C23.9975 0.435454 21.6879 -0.717929 20.071 0.495443L18.5439 1.64067Z" fill="#FBBC04"/>
<path d="M18.5439 2.17662V11.5821L23.9975 6.1559V3.26185C23.9975 0.577703 21.6879 -0.952453 20.071 0.657288L18.5439 2.17662Z" fill="#FBBC04"/>
<path d="M0.00195312 4.64017L2.51015 6.52139L5.45552 8.7303V1.64071L3.92842 0.495486C2.30872 -0.71798 0.00195312 0.435497 0.00195312 2.45863V4.64007V4.64017Z" fill="#C5221F"/>
<path d="M0.00195312 6.15596L2.51015 8.65171L5.45552 11.5822V2.17668L3.92842 0.657345C2.30872 -0.95252 0.00195312 0.577759 0.00195312 3.26178V6.15583V6.15596Z" fill="#C5221F"/>
</g>
<defs>
<clipPath id="clip0_424_7957">
<rect width="24" height="18.0905" fill="white"/>
</clipPath>
</defs>
</svg>
