<svg width="64" height="65" viewBox="0 0 64 65" fill="none" xmlns="http://www.w3.org/2000/svg">
<g id="Group 13 Copy 2">
<path id="Path" fill-rule="evenodd" clip-rule="evenodd" d="M32 64.1758C14.3253 64.1758 0 49.8504 0 32.1758C0 14.5011 14.3253 0.175781 32 0.175781C49.6747 0.175781 64 14.5011 64 32.1758C64 49.8504 49.6747 64.1758 32 64.1758Z" fill="#6CB913"/>
<path id="Path_3571 Copy" d="M44.7217 21.8823L26.5722 39.3533L18.2783 31.363C17.6452 30.7536 16.7224 30.5156 15.8576 30.7387C14.9927 30.9617 14.3172 31.6119 14.0855 32.4444C13.8537 33.2768 14.101 34.1651 14.7341 34.7745L24.8045 44.4676C25.274 44.921 25.9117 45.1758 26.5767 45.1758C27.2417 45.1758 27.8793 44.921 28.3488 44.4676L48.266 25.2938C49.2447 24.3517 49.2447 22.8244 48.266 21.8823C47.2873 20.9403 45.7004 20.9403 44.7217 21.8823Z" fill="white"/>
</g>
</svg>
