<svg width="111" height="73" viewBox="0 0 111 73" fill="none" xmlns="http://www.w3.org/2000/svg">
<path d="M108.016 0H2.67073C1.96274 0.00106509 1.28405 0.28279 0.783419 0.783419C0.28279 1.28405 0.00106509 1.96274 0 2.67073V70.3293C0.00106509 71.0373 0.28279 71.7159 0.783419 72.2166C1.28405 72.7172 1.96274 72.9989 2.67073 73H108.016C108.724 72.9989 109.403 72.7172 109.904 72.2166C110.404 71.7159 110.686 71.0373 110.687 70.3293V2.67073C110.686 1.96274 110.404 1.28405 109.904 0.783419C109.403 0.28279 108.724 0.00106509 108.016 0V0ZM110.093 70.3293C110.093 70.88 109.874 71.408 109.484 71.7974C109.095 72.1869 108.567 72.4059 108.016 72.4065H2.67073C2.12 72.4059 1.59201 72.1869 1.20259 71.7974C0.813161 71.408 0.594107 70.88 0.593496 70.3293V2.67073C0.594108 2.12 0.813162 1.59201 1.20259 1.20259C1.59201 0.813162 2.12 0.594108 2.67073 0.593496H108.016C108.567 0.594108 109.095 0.813162 109.484 1.20259C109.874 1.59201 110.093 2.12 110.093 2.67073V70.3293Z" fill="#3F3D56"/>
<path d="M25.1568 33.679H8.53896C7.87023 33.6782 7.22912 33.4122 6.75626 32.9393C6.2834 32.4664 6.0174 31.8253 6.0166 31.1566V14.5387C6.0174 13.87 6.2834 13.2289 6.75626 12.756C7.22912 12.2832 7.87023 12.0172 8.53896 12.0164H25.1568C25.8256 12.0172 26.4667 12.2832 26.9395 12.756C27.4124 13.2289 27.6784 13.87 27.6792 14.5387V31.1566C27.6784 31.8253 27.4124 32.4664 26.9395 32.9393C26.4667 33.4122 25.8256 33.6782 25.1568 33.679V33.679Z" fill="#295B85"/>
<path d="M102.529 51.3401H8.16324C7.65167 51.3401 7.16106 51.1369 6.79933 50.7752C6.43759 50.4135 6.23438 49.9228 6.23438 49.4113C6.23438 48.8997 6.43759 48.4091 6.79933 48.0474C7.16106 47.6856 7.65167 47.4824 8.16324 47.4824H102.529C103.041 47.4824 103.531 47.6856 103.893 48.0474C104.255 48.4091 104.458 48.8997 104.458 49.4113C104.458 49.9228 104.255 50.4135 103.893 50.7752C103.531 51.1369 103.041 51.3401 102.529 51.3401V51.3401Z" fill="#CCCCCC"/>
<path d="M102.594 41.9935H8.22769C7.71612 41.9935 7.22551 41.7902 6.86378 41.4285C6.50205 41.0668 6.29883 40.5762 6.29883 40.0646C6.29883 39.553 6.50205 39.0624 6.86378 38.7007C7.22551 38.339 7.71612 38.1357 8.22769 38.1357H102.594C103.105 38.1357 103.596 38.339 103.957 38.7007C104.319 39.0624 104.522 39.553 104.522 40.0646C104.522 40.5762 104.319 41.0668 103.957 41.4285C103.596 41.7902 103.105 41.9935 102.594 41.9935V41.9935Z" fill="#CCCCCC"/>
<path d="M56.0039 29.2283H42.0568C41.5452 29.2283 41.0546 29.0251 40.6929 28.6634C40.3311 28.3016 40.1279 27.811 40.1279 27.2995C40.1279 26.7879 40.3311 26.2973 40.6929 25.9356C41.0546 25.5738 41.5452 25.3706 42.0568 25.3706H56.0039C56.5155 25.3706 57.0061 25.5738 57.3679 25.9356C57.7296 26.2973 57.9328 26.7879 57.9328 27.2995C57.9328 27.811 57.7296 28.3016 57.3679 28.6634C57.0061 29.0251 56.5155 29.2283 56.0039 29.2283V29.2283Z" fill="#CCCCCC"/>
<path d="M102.593 19.7364H42.0568C41.5452 19.7364 41.0546 19.5332 40.6929 19.1714C40.3311 18.8097 40.1279 18.3191 40.1279 17.8075C40.1279 17.296 40.3311 16.8053 40.6929 16.4436C41.0546 16.0819 41.5452 15.8787 42.0568 15.8787H102.593C103.105 15.8787 103.596 16.0819 103.957 16.4436C104.319 16.8053 104.522 17.296 104.522 17.8075C104.522 18.3191 104.319 18.8097 103.957 19.1714C103.596 19.5332 103.105 19.7364 102.593 19.7364V19.7364Z" fill="#CCCCCC"/>
<path d="M53.629 60.835H8.16324C7.65167 60.835 7.16106 60.6318 6.79933 60.2701C6.43759 59.9083 6.23438 59.4177 6.23438 58.9062C6.23438 58.3946 6.43759 57.904 6.79933 57.5422C7.16106 57.1805 7.65167 56.9773 8.16324 56.9773H53.629C54.1406 56.9773 54.6312 57.1805 54.9929 57.5422C55.3547 57.904 55.5579 58.3946 55.5579 58.9062C55.5579 59.4177 55.3547 59.9083 54.9929 60.2701C54.6312 60.6318 54.1406 60.835 53.629 60.835V60.835Z" fill="#CCCCCC"/>
</svg>
