<svg width="29" height="29" viewBox="0 0 29 29" fill="none" xmlns="http://www.w3.org/2000/svg">
<path fill-rule="evenodd" clip-rule="evenodd" d="M16.295 3.09643L25.3745 9.87792C26.397 10.6416 26.8244 11.9687 26.4398 13.1856L22.9164 24.3334C22.522 25.5811 21.3644 26.4293 20.0559 26.4293H8.94365C7.63509 26.4293 6.47749 25.5811 6.08313 24.3334L2.55971 13.1856C2.17509 11.9687 2.60248 10.6416 3.625 9.87792L12.7045 3.09643C13.7692 2.30119 15.2303 2.30119 16.295 3.09643ZM11.5077 1.49405C13.2822 0.168652 15.7173 0.16865 17.4918 1.49405L26.5713 8.27554C28.2755 9.54841 28.9879 11.7601 28.3468 13.7883L24.8234 24.9362C24.1661 27.0157 22.2368 28.4293 20.0559 28.4293H8.94365C6.76271 28.4293 4.83338 27.0157 4.17611 24.9362L0.652694 13.7883C0.0116558 11.7601 0.723984 9.54841 2.42818 8.27554L11.5077 1.49405ZM19.6752 18.7397C19.9567 18.041 20.1016 17.2921 20.1016 16.5359H17.8393C17.8393 16.9867 17.753 17.4331 17.5851 17.8497C17.4173 18.2662 17.1713 18.6447 16.8612 18.9635C16.5511 19.2823 16.1829 19.5351 15.7778 19.7077C15.3726 19.8802 14.9383 19.969 14.4997 19.969C14.0612 19.969 13.6269 19.8802 13.2217 19.7077C12.8166 19.5351 12.4484 19.2823 12.1383 18.9635C11.8282 18.6447 11.5822 18.2662 11.4144 17.8497C11.2465 17.4331 11.1602 16.9867 11.1602 16.5358H8.89786C8.89786 17.2921 9.04276 18.041 9.32428 18.7397C9.6058 19.4384 10.0184 20.0732 10.5386 20.608C11.0588 21.1427 11.6763 21.5669 12.356 21.8563C13.0357 22.1457 13.7641 22.2947 14.4997 22.2947C15.2354 22.2947 15.9638 22.1457 16.6435 21.8563C17.3232 21.5669 17.9407 21.1427 18.4609 20.608C18.9811 20.0732 19.3937 19.4384 19.6752 18.7397Z" fill="#9E9E9E"/>
</svg>
