<svg width="50" height="50" viewBox="0 0 50 50" fill="none" xmlns="http://www.w3.org/2000/svg">
<path d="M20.8206 29.7067L19.1214 31.6208C17.8124 32.9275 16.1454 33.8169 14.331 34.1766C12.5167 34.5362 10.6364 34.35 8.92791 33.6414C7.21938 32.9329 5.75922 31.7337 4.73195 30.1956C3.70468 28.6574 3.1564 26.8493 3.1564 24.9997C3.1564 23.15 3.70468 21.3419 4.73195 19.8037C5.75922 18.2656 7.21938 17.0665 8.92791 16.3579C10.6364 15.6493 12.5167 15.4631 14.331 15.8228C16.1454 16.1824 17.8124 17.0718 19.1214 18.3786L30.8792 31.6208C32.1883 32.9275 33.8553 33.8169 35.6696 34.1766C37.4839 34.5362 39.3642 34.35 41.0727 33.6414C42.7812 32.9329 44.2414 31.7337 45.2687 30.1956C46.2959 28.6574 46.8442 26.8493 46.8442 24.9997C46.8442 23.15 46.2959 21.3419 45.2687 19.8037C44.2414 18.2656 42.7812 17.0665 41.0727 16.3579C39.3642 15.6493 37.4839 15.4631 35.6696 15.8228C33.8553 16.1824 32.1883 17.0718 30.8792 18.3786L29.18 20.2926" stroke="#11CDF3" stroke-width="2" stroke-linecap="round" stroke-linejoin="round"/>
</svg>
