<svg width="83" height="73" viewBox="0 0 83 73" fill="none" xmlns="http://www.w3.org/2000/svg">
<path d="M39.413 71.6601L39.3872 71.6446L39.2894 71.5931C37.2571 70.4874 35.2613 69.316 33.3051 68.0808C28.641 65.1462 24.1968 61.8759 20.0078 58.2958C10.5318 50.1228 0 37.8606 0 23.1728C0.00045484 18.3805 1.48654 13.7062 4.25364 9.79356C7.02075 5.88088 10.9328 2.92225 15.451 1.32504C19.9693 -0.272175 24.8716 -0.429404 29.483 0.874997C34.0943 2.1794 38.1879 4.88128 41.2 8.6086C44.2121 4.88128 48.3057 2.1794 52.917 0.874997C57.5284 -0.429404 62.4307 -0.272175 66.949 1.32504C71.4672 2.92225 75.3793 5.88088 78.1464 9.79356C80.9135 13.7062 82.3996 18.3805 82.4 23.1728C82.4 37.8606 71.8734 50.1228 62.3923 58.2958C56.4406 63.381 49.979 67.8372 43.1107 71.5931L43.0128 71.6446L42.9871 71.6601H42.9768C42.4296 71.95 41.8199 72.1019 41.2006 72.1028C40.5814 72.1037 39.9713 71.9535 39.4233 71.6652L39.413 71.6601Z" fill="#F42313"/>
</svg>
