<svg width="18" height="18" viewBox="0 0 18 18" fill="none" xmlns="http://www.w3.org/2000/svg">
<path d="M6.74227 16.125C5.49727 16.125 4.24477 15.6525 3.29227 14.7C1.39477 12.795 1.39477 9.70497 3.29227 7.80747C3.50977 7.58997 3.86977 7.58997 4.08727 7.80747C4.30477 8.02497 4.30477 8.38497 4.08727 8.60247C2.62477 10.065 2.62477 12.4425 4.08727 13.905C5.54977 15.3675 7.92727 15.3675 9.38977 13.905C10.0948 13.2 10.4848 12.255 10.4848 11.25C10.4848 10.2525 10.0948 9.30747 9.38977 8.59497C9.17227 8.37747 9.17227 8.01747 9.38977 7.79997C9.60727 7.58247 9.96727 7.58247 10.1848 7.79997C11.1073 8.72247 11.6098 9.94497 11.6098 11.25C11.6098 12.555 11.0998 13.7775 10.1848 14.7C9.23977 15.6525 7.99477 16.125 6.74227 16.125Z" fill="#9E9E9E"/>
<path d="M14.3026 10.6201C14.1601 10.6201 14.0176 10.5676 13.9051 10.4551C13.6876 10.2376 13.6876 9.87755 13.9051 9.66005C15.4426 8.12255 15.4426 5.62505 13.9051 4.09505C12.3676 2.55755 9.87006 2.55755 8.34006 4.09505C7.59756 4.83755 7.18506 5.82755 7.18506 6.87755C7.18506 7.92755 7.59756 8.91755 8.34006 9.66005C8.55756 9.87755 8.55756 10.2376 8.34006 10.4551C8.12256 10.6726 7.76256 10.6726 7.54506 10.4551C6.59256 9.50255 6.06006 8.22755 6.06006 6.87755C6.06006 5.52755 6.58506 4.25255 7.54506 3.30005C9.51756 1.32755 12.7276 1.32755 14.7076 3.30005C16.6801 5.27255 16.6801 8.49005 14.7076 10.4626C14.5951 10.5676 14.4451 10.6201 14.3026 10.6201Z" fill="#9E9E9E"/>
</svg>
