<svg width="20" height="20" viewBox="0 0 20 20" fill="none" xmlns="http://www.w3.org/2000/svg">
<path d="M11.5443 8.45596C10.7252 7.6372 9.61445 7.17725 8.4563 7.17725C7.29815 7.17725 6.18741 7.6372 5.3683 8.45596L2.2793 11.544C1.46018 12.3631 1 13.474 1 14.6325C1 15.7909 1.46018 16.9018 2.2793 17.721C3.09842 18.5401 4.20939 19.0003 5.3678 19.0003C6.52621 19.0003 7.63718 18.5401 8.4563 17.721L10.0003 16.177" stroke="#386FA4" stroke-width="2" stroke-linecap="round" stroke-linejoin="round"/>
<path d="M8.45605 11.5438C9.27516 12.3626 10.3859 12.8225 11.5441 12.8225C12.7022 12.8225 13.8129 12.3626 14.6321 11.5438L17.7211 8.45581C18.5402 7.63669 19.0004 6.52572 19.0004 5.36731C19.0004 4.2089 18.5402 3.09793 17.7211 2.27881C16.9019 1.45969 15.791 0.999512 14.6326 0.999512C13.4741 0.999512 12.3632 1.45969 11.5441 2.27881L10.0001 3.82281" stroke="#386FA4" stroke-width="2" stroke-linecap="round" stroke-linejoin="round"/>
</svg>
