<svg width="50" height="50" viewBox="0 0 50 50" fill="none" xmlns="http://www.w3.org/2000/svg">
<path d="M25 40.1042C22.875 40.1042 20.9167 39.1458 19.625 37.4583C19.1042 36.7708 19.2292 35.7917 19.9167 35.2708C20.6042 34.75 21.5833 34.875 22.1042 35.5625C22.7917 36.4792 23.8542 36.9792 25 36.9792C27 36.9792 28.6458 35.3333 28.6458 33.3333C28.6458 32.5208 28.3958 31.75 27.8958 31.125C27.375 30.4375 27.5 29.4583 28.1875 28.9375C28.875 28.4167 29.8542 28.5417 30.375 29.2292C31.2917 30.4167 31.7708 31.8333 31.7708 33.3333C31.7708 37.0625 28.7292 40.1042 25 40.1042Z" fill="#0A151E"/>
<path d="M35.4167 47.3958H14.5833C13.8125 47.3958 13.0833 47.375 12.3958 47.3333C11.5417 47.2917 10.875 46.5417 10.9167 45.6875C10.9583 44.8333 11.6875 44.2083 12.5625 44.2083C13.1875 44.25 13.8542 44.25 14.5625 44.25H35.3958C42.8333 44.25 44.25 42.8333 44.25 35.3958V31.2292C44.25 23.9167 42.7083 22.7292 37.3958 22.4167C36.7708 22.375 36.1042 22.375 35.3958 22.375H14.5833C7.14584 22.375 5.72917 23.7917 5.72917 31.2292V35.3958C5.72917 39.0208 6.14584 41.1667 7.10417 42.3333C7.64584 43 7.54167 44 6.85417 44.5208C6.1875 45.0625 5.20834 44.9583 4.66667 44.2708C3.20834 42.5 2.60417 39.9167 2.60417 35.4167V31.25C2.60417 22.0625 5.39584 19.2708 14.5833 19.2708H35.4167C36.1875 19.2708 36.9167 19.2917 37.5833 19.3333C45.8333 19.7917 47.3958 23.875 47.3958 31.25V35.4167C47.3958 44.6042 44.6042 47.3958 35.4167 47.3958Z" fill="#0A151E"/>
<path d="M12.5 22.3958C11.6458 22.3958 10.9375 21.6875 10.9375 20.8333V16.6667C10.9375 10.625 12.3958 2.60416 25 2.60416C33.4792 2.60416 37.875 5.37499 38.8333 11.3333C38.9792 12.1875 38.3958 12.9792 37.5417 13.125C36.6875 13.2708 35.8958 12.6875 35.75 11.8333C35.2292 8.66666 33.5833 5.72916 25 5.72916C15.9167 5.72916 14.0625 10.1042 14.0625 16.6667V20.8333C14.0625 21.6875 13.3542 22.3958 12.5 22.3958Z" fill="#0A151E"/>
<path d="M4.16667 47.3958C3.77083 47.3958 3.375 47.25 3.0625 46.9375C2.45833 46.3333 2.45833 45.3333 3.0625 44.7292L44.7292 3.0625C45.3333 2.45833 46.3333 2.45833 46.9375 3.0625C47.5417 3.66667 47.5417 4.66667 46.9375 5.27083L5.27083 46.9375C4.95833 47.25 4.5625 47.3958 4.16667 47.3958Z" fill="#0A151E"/>
</svg>
