<svg width="27" height="16" viewBox="0 0 27 16" fill="none" xmlns="http://www.w3.org/2000/svg">
<path fill-rule="evenodd" clip-rule="evenodd" d="M9.98584 13.8963H17.1756V2.10352H9.98584V13.8963Z" fill="#FF5F00"/>
<path fill-rule="evenodd" clip-rule="evenodd" d="M10.4429 7.99992C10.4429 5.60745 11.6702 3.47664 13.5813 2.10353C12.1835 1.09916 10.4201 0.5 8.50326 0.5C3.96551 0.5 0.287109 3.85788 0.287109 7.99992C0.287109 12.142 3.96551 15.4998 8.50326 15.4998C10.4201 15.4998 12.1835 14.9007 13.5813 13.8963C11.6702 12.523 10.4429 10.3924 10.4429 7.99992Z" fill="#EB001B"/>
<path fill-rule="evenodd" clip-rule="evenodd" d="M26.6187 12.6474V12.3563H26.5354L26.4397 12.5565L26.3439 12.3563H26.2605V12.6474H26.3192V12.4278L26.4091 12.6172H26.4701L26.56 12.4274V12.6474H26.6187ZM26.0912 12.6474V12.4059H26.198V12.3568H25.9264V12.4059H26.033V12.6474H26.0912ZM26.8752 7.99992C26.8752 12.142 23.1966 15.4998 18.6591 15.4998C16.7423 15.4998 14.9786 14.9007 13.5811 13.8963C15.4922 12.5232 16.7194 10.3924 16.7194 7.99992C16.7194 5.60766 15.4922 3.47684 13.5811 2.10353C14.9786 1.09916 16.7423 0.5 18.6591 0.5C23.1966 0.5 26.8752 3.85788 26.8752 7.99992Z" fill="#F79E1B"/>
</svg>
