<svg width="50" height="50" viewBox="0 0 50 50" fill="none" xmlns="http://www.w3.org/2000/svg">
<path d="M17.7084 39.5833H16.6667C8.33335 39.5833 4.16669 37.5 4.16669 27.0833V16.6667C4.16669 8.33332 8.33335 4.16666 16.6667 4.16666H33.3334C41.6667 4.16666 45.8334 8.33332 45.8334 16.6667V27.0833C45.8334 35.4167 41.6667 39.5833 33.3334 39.5833H32.2917C31.6459 39.5833 31.0209 39.8958 30.625 40.4167L27.5 44.5833C26.125 46.4167 23.875 46.4167 22.5 44.5833L19.375 40.4167C19.0417 39.9583 18.2709 39.5833 17.7084 39.5833Z" stroke="#11CDF3" stroke-width="1.5" stroke-miterlimit="10" stroke-linecap="round" stroke-linejoin="round"/>
<path d="M33.3259 22.9167H33.3447" stroke="#11CDF3" stroke-width="2" stroke-linecap="round" stroke-linejoin="round"/>
<path d="M24.9906 22.9167H25.0093" stroke="#11CDF3" stroke-width="2" stroke-linecap="round" stroke-linejoin="round"/>
<path d="M16.6552 22.9167H16.6739" stroke="#11CDF3" stroke-width="2" stroke-linecap="round" stroke-linejoin="round"/>
</svg>
