<svg width="21" height="20" viewBox="0 0 21 20" fill="none" xmlns="http://www.w3.org/2000/svg">
<path d="M12.3501 18.0249C11.3667 18.0249 9.97507 17.3333 8.87506 14.0249L8.27506 12.2249L6.47506 11.6249C3.17507 10.5249 2.4834 9.13327 2.4834 8.14994C2.4834 7.17494 3.17507 5.77494 6.47506 4.6666L13.5501 2.30827C15.3167 1.7166 16.7917 1.8916 17.7001 2.7916C18.6084 3.6916 18.7834 5.17494 18.1917 6.9416L15.8334 14.0166C14.7251 17.3333 13.3334 18.0249 12.3501 18.0249ZM6.86673 5.85827C4.55006 6.63327 3.72506 7.54994 3.72506 8.14994C3.72506 8.74994 4.55006 9.6666 6.86673 10.4333L8.96673 11.1333C9.15006 11.1916 9.30007 11.3416 9.3584 11.5249L10.0584 13.6249C10.8251 15.9416 11.7501 16.7666 12.3501 16.7666C12.9501 16.7666 13.8667 15.9416 14.6417 13.6249L17.0001 6.54994C17.4251 5.2666 17.3501 4.2166 16.8084 3.67494C16.2667 3.13327 15.2167 3.0666 13.9417 3.4916L6.86673 5.85827Z" fill="white"/>
<path d="M8.92467 12.0001C8.76634 12.0001 8.60801 11.9417 8.48301 11.8167C8.24134 11.5751 8.24134 11.1751 8.48301 10.9334L11.4663 7.94175C11.708 7.70008 12.108 7.70008 12.3497 7.94175C12.5913 8.18341 12.5913 8.58342 12.3497 8.82508L9.36634 11.8167C9.24967 11.9417 9.08301 12.0001 8.92467 12.0001Z" fill="white"/>
</svg>
