<svg width="21" height="20" viewBox="0 0 21 20" fill="none" xmlns="http://www.w3.org/2000/svg">
<path d="M12.3501 18.0251C11.3667 18.0251 9.97507 17.3334 8.87506 14.0251L8.27506 12.2251L6.47506 11.6251C3.17507 10.5251 2.4834 9.13339 2.4834 8.15006C2.4834 7.17506 3.17507 5.77506 6.47506 4.66673L13.5501 2.30839C15.3167 1.71673 16.7917 1.89173 17.7001 2.79173C18.6084 3.69173 18.7834 5.17506 18.1917 6.94173L15.8334 14.0167C14.7251 17.3334 13.3334 18.0251 12.3501 18.0251ZM6.86673 5.85839C4.55006 6.63339 3.72506 7.55006 3.72506 8.15006C3.72506 8.75006 4.55006 9.66673 6.86673 10.4334L8.96673 11.1334C9.15006 11.1917 9.30007 11.3417 9.3584 11.5251L10.0584 13.6251C10.8251 15.9417 11.7501 16.7667 12.3501 16.7667C12.9501 16.7667 13.8667 15.9417 14.6417 13.6251L17.0001 6.55006C17.4251 5.26673 17.3501 4.21673 16.8084 3.67506C16.2667 3.13339 15.2167 3.06673 13.9417 3.49173L6.86673 5.85839Z" fill="#386FA4"/>
<path d="M8.92467 12C8.76634 12 8.60801 11.9416 8.48301 11.8166C8.24134 11.575 8.24134 11.175 8.48301 10.9333L11.4663 7.94163C11.708 7.69996 12.108 7.69996 12.3497 7.94163C12.5913 8.18329 12.5913 8.58329 12.3497 8.82496L9.36634 11.8166C9.24967 11.9416 9.08301 12 8.92467 12Z" fill="#386FA4"/>
</svg>
