<svg width="24" height="24" viewBox="0 0 24 24" fill="none" xmlns="http://www.w3.org/2000/svg">
<path d="M9.5998 16.7999C9.44067 16.7999 9.28806 16.8631 9.17554 16.9756C9.06302 17.0882 8.9998 17.2408 8.9998 17.3999C8.9998 17.559 9.06302 17.7116 9.17554 17.8242C9.28806 17.9367 9.44067 17.9999 9.5998 17.9999H10.7998V17.3999C10.7998 17.1899 10.8358 16.9871 10.9018 16.7999H9.5998ZM7.1998 20.3999H10.9018C11.0249 20.7481 11.2521 21.05 11.5527 21.2647C11.8532 21.4794 12.2125 21.5964 12.5818 21.5999H7.1998C6.56329 21.5999 5.95284 21.347 5.50275 20.897C5.05266 20.4469 4.7998 19.8364 4.7998 19.1999V4.7999C4.7998 4.16338 5.05266 3.55293 5.50275 3.10285C5.95284 2.65276 6.56329 2.3999 7.1998 2.3999H14.3998C15.0363 2.3999 15.6468 2.65276 16.0969 3.10285C16.5469 3.55293 16.7998 4.16338 16.7998 4.7999V13.3031C16.4116 13.1658 15.988 13.1658 15.5998 13.3031V4.7999C15.5998 4.48164 15.4734 4.17642 15.2483 3.95137C15.0233 3.72633 14.7181 3.5999 14.3998 3.5999H7.1998C6.88155 3.5999 6.57632 3.72633 6.35128 3.95137C6.12623 4.17642 5.9998 4.48164 5.9998 4.7999V19.1999C5.9998 19.5182 6.12623 19.8234 6.35128 20.0484C6.57632 20.2735 6.88155 20.3999 7.1998 20.3999ZM16.429 14.4455C16.5387 14.4909 16.6325 14.5677 16.6985 14.6664C16.7645 14.7651 16.7998 14.8812 16.7998 14.9999V22.1999C16.8 22.3187 16.7649 22.4349 16.699 22.5338C16.6331 22.6327 16.5393 22.7097 16.4296 22.7552C16.3198 22.8007 16.199 22.8126 16.0825 22.7894C15.9659 22.7661 15.8589 22.7088 15.775 22.6247L13.5514 20.3999H12.5998C12.4407 20.3999 12.2881 20.3367 12.1755 20.2242C12.063 20.1116 11.9998 19.959 11.9998 19.7999V17.3999C11.9998 17.2408 12.063 17.0882 12.1755 16.9756C12.2881 16.8631 12.4407 16.7999 12.5998 16.7999H13.5514L15.775 14.5751C15.859 14.4912 15.9659 14.4342 16.0823 14.4111C16.1988 14.388 16.3194 14.4 16.429 14.4455ZM21.1798 14.6399C21.325 14.8343 21.5218 15.1835 21.7114 15.6899C22.0174 16.5059 22.1998 17.4767 22.1998 18.5999C22.1998 19.7231 22.0174 20.6939 21.7114 21.5111C21.5218 22.0163 21.325 22.3655 21.1798 22.5599C21.0903 22.6805 20.9587 22.7632 20.8112 22.7915C20.6637 22.8198 20.5109 22.7918 20.3831 22.713C20.2552 22.6341 20.1616 22.5102 20.1207 22.3656C20.0798 22.2211 20.0946 22.0665 20.1622 21.9323L20.3014 21.7139C20.414 21.5142 20.5099 21.3054 20.5882 21.0899C20.8438 20.4059 20.9998 19.5767 20.9998 18.5999C20.9998 17.6231 20.8438 16.7939 20.5882 16.1111C20.5099 15.8956 20.414 15.6869 20.3014 15.4871L20.2198 15.3599C20.1725 15.2969 20.1381 15.2251 20.1186 15.1488C20.099 15.0725 20.0947 14.9931 20.1058 14.915C20.117 14.837 20.1434 14.762 20.1835 14.6942C20.2237 14.6264 20.2768 14.5672 20.3398 14.5199C20.4028 14.4726 20.4746 14.4382 20.5509 14.4187C20.6272 14.3991 20.7067 14.3948 20.7847 14.4059C20.8627 14.4171 20.9377 14.4435 21.0055 14.4836C21.0733 14.5238 21.1325 14.5769 21.1798 14.6399ZM19.4686 16.7603C19.3766 16.4771 19.2655 16.2005 19.1362 15.9323C19.1025 15.8594 19.0545 15.7939 18.995 15.7399C18.9356 15.6858 18.8659 15.6443 18.79 15.6177C18.7142 15.5911 18.6338 15.58 18.5536 15.5851C18.4734 15.5902 18.3951 15.6113 18.3232 15.6473C18.2513 15.6832 18.1874 15.7332 18.1352 15.7943C18.083 15.8554 18.0437 15.9264 18.0194 16.003C17.9952 16.0796 17.9866 16.1603 17.9942 16.2403C18.0017 16.3203 18.0253 16.398 18.0634 16.4687C18.1258 16.5947 18.2278 16.8323 18.331 17.1407C18.499 17.6459 18.5998 18.1487 18.5998 18.5999C18.5998 19.0523 18.499 19.5539 18.331 20.0603C18.2782 20.2185 18.2194 20.3746 18.1546 20.5283L18.0634 20.7323C18.0253 20.803 18.0017 20.8807 17.9942 20.9607C17.9866 21.0407 17.9952 21.1214 18.0194 21.198C18.0437 21.2746 18.083 21.3456 18.1352 21.4067C18.1874 21.4678 18.2513 21.5178 18.3232 21.5537C18.3951 21.5897 18.4734 21.6108 18.5536 21.6159C18.6338 21.621 18.7142 21.6099 18.79 21.5833C18.8659 21.5567 18.9356 21.5152 18.995 21.4611C19.0545 21.4071 19.1025 21.3417 19.1362 21.2687C19.2238 21.0947 19.3462 20.8067 19.4686 20.4407C19.675 19.8215 19.7998 19.1987 19.7998 18.5999C19.7998 18.0023 19.675 17.3783 19.4686 16.7603Z" fill="black"/>
</svg>
