<svg width="40" height="40" viewBox="0 0 40 40" fill="none" xmlns="http://www.w3.org/2000/svg">
<path d="M16.6565 23.7654L15.2971 25.2966C14.2499 26.342 12.9163 27.0536 11.4648 27.3413C10.0133 27.629 8.50914 27.48 7.14232 26.9132C5.77549 26.3463 4.60736 25.387 3.78554 24.1565C2.96373 22.926 2.52511 21.4795 2.52511 19.9998C2.52511 18.52 2.96373 17.0735 3.78554 15.843C4.60736 14.6125 5.77549 13.6532 7.14232 13.0864C8.50914 12.5195 10.0133 12.3705 11.4648 12.6582C12.9163 12.946 14.2499 13.6575 15.2971 14.7029L24.7034 25.2966C25.7506 26.342 27.0842 27.0536 28.5357 27.3413C29.9871 27.629 31.4913 27.48 32.8581 26.9132C34.225 26.3463 35.3931 25.387 36.2149 24.1565C37.0367 22.926 37.4754 21.4795 37.4754 19.9998C37.4754 18.52 37.0367 17.0735 36.2149 15.843C35.3931 14.6125 34.225 13.6532 32.8581 13.0864C31.4913 12.5195 29.9871 12.3705 28.5357 12.6582C27.0842 12.946 25.7506 13.6575 24.7034 14.7029L23.344 16.2341" stroke="#F42313" stroke-width="2" stroke-linecap="round" stroke-linejoin="round"/>
</svg>
