<svg width="24" height="24" viewBox="0 0 24 24" fill="none" xmlns="http://www.w3.org/2000/svg">
<path d="M9.99396 14.2593L9.17834 15.178C8.55 15.8053 7.74983 16.2322 6.87895 16.4048C6.00807 16.5775 5.10556 16.4881 4.28546 16.148C3.46536 15.8078 2.76449 15.2323 2.2714 14.4939C1.77831 13.7556 1.51514 12.8877 1.51514 11.9999C1.51514 11.1121 1.77831 10.2442 2.2714 9.50586C2.76449 8.76755 3.46536 8.19197 4.28546 7.85186C5.10556 7.51174 6.00807 7.42236 6.87895 7.59499C7.74983 7.76763 8.55 8.19454 9.17834 8.82178L14.8221 15.178C15.4504 15.8053 16.2506 16.2322 17.1215 16.4048C17.9924 16.5775 18.8949 16.4881 19.715 16.148C20.5351 15.8078 21.2359 15.2323 21.729 14.4939C22.2221 13.7556 22.4853 12.8877 22.4853 11.9999C22.4853 11.1121 22.2221 10.2442 21.729 9.50586C21.2359 8.76755 20.5351 8.19197 19.715 7.85186C18.8949 7.51174 17.9924 7.42236 17.1215 7.59499C16.2506 7.76763 15.4504 8.19454 14.8221 8.82178L14.0065 9.74053" stroke="#11CDF3" stroke-width="2" stroke-linecap="round" stroke-linejoin="round"/>
</svg>
