<svg width="98" height="44" viewBox="0 0 98 44" fill="none" xmlns="http://www.w3.org/2000/svg">
<path d="M39.8155 31.9011L36.0816 36.1071C33.2052 38.9785 29.542 40.9329 25.5552 41.7232C21.5684 42.5135 17.4367 42.1043 13.6824 40.5473C9.92801 38.9903 6.71945 36.3553 4.46212 32.9754C2.20479 29.5954 1 25.6222 1 21.5578C1 17.4934 2.20479 13.5202 4.46212 10.1402C6.71945 6.76031 9.92801 4.12534 13.6824 2.56832C17.4367 1.01129 21.5684 0.602082 25.5552 1.3924C29.542 2.18271 33.2052 4.13709 36.0816 7.00855L61.9184 36.1071C64.7949 38.9785 68.458 40.9329 72.4448 41.7232C76.4316 42.5135 80.5633 42.1043 84.3176 40.5473C88.072 38.9903 91.2806 36.3553 93.5379 32.9754C95.7952 29.5954 97 25.6222 97 21.5578C97 17.4934 95.7952 13.5202 93.5379 10.1402C91.2806 6.76031 88.072 4.12534 84.3176 2.56832C80.5633 1.01129 76.4316 0.602082 72.4448 1.3924C68.458 2.18271 64.7949 4.13709 61.9184 7.00855L58.1845 11.2145" stroke="#F42313" stroke-width="2" stroke-linecap="round" stroke-linejoin="round"/>
</svg>
