<svg width="24" height="24" viewBox="0 0 24 24" fill="none" xmlns="http://www.w3.org/2000/svg">
<path d="M19.8001 16.9499L18.3501 15.5499L19.0001 14.8999V9.0999L14.9001 4.9999H9.1001L8.4501 5.6499L7.0501 4.1999L7.6751 3.5749C7.85843 3.39157 8.07076 3.2499 8.3121 3.1499C8.5541 3.0499 8.80843 2.9999 9.0751 2.9999H14.9251C15.1918 2.9999 15.4461 3.0499 15.6881 3.1499C15.9294 3.2499 16.1418 3.39157 16.3251 3.5749L20.4251 7.6749C20.6084 7.85824 20.7501 8.07057 20.8501 8.3119C20.9501 8.5539 21.0001 8.80824 21.0001 9.0749V14.8999C21.0001 15.1666 20.9544 15.4166 20.8631 15.6499C20.7711 15.8832 20.6334 16.0916 20.4501 16.2749L19.8001 16.9499ZM13.0001 10.1999V7.9999C13.0001 7.71657 12.9044 7.4789 12.7131 7.2869C12.5211 7.09557 12.2834 6.9999 12.0001 6.9999C11.7168 6.9999 11.4794 7.09557 11.2881 7.2869C11.0961 7.4789 11.0001 7.71657 11.0001 7.9999V8.1999L13.0001 10.1999ZM9.0751 20.9999C8.80843 20.9999 8.5541 20.9456 8.3121 20.8369C8.07076 20.7289 7.85843 20.5832 7.6751 20.3999L3.5751 16.2749C3.39176 16.0916 3.2501 15.8789 3.1501 15.6369C3.0501 15.3956 3.0001 15.1416 3.0001 14.8749V9.0749C3.0001 8.80824 3.0501 8.5539 3.1501 8.3119C3.2501 8.07057 3.39176 7.85824 3.5751 7.6749L4.2001 7.0499L1.3751 4.1749C1.19176 3.99157 1.1001 3.76657 1.1001 3.4999C1.1001 3.23324 1.2001 2.9999 1.4001 2.7999C1.58343 2.61657 1.81676 2.5249 2.1001 2.5249C2.38343 2.5249 2.61676 2.61657 2.8001 2.7999L21.2251 21.2249C21.4084 21.4082 21.5001 21.6332 21.5001 21.8999C21.5001 22.1666 21.4001 22.3999 21.2001 22.5999C21.0168 22.7832 20.7834 22.8749 20.5001 22.8749C20.2168 22.8749 19.9834 22.7832 19.8001 22.5999L16.9501 19.7499L16.3501 20.3749C16.1668 20.5582 15.9501 20.7082 15.7001 20.8249C15.4501 20.9416 15.1834 20.9999 14.9001 20.9999H9.0751ZM12.0001 16.9999C11.7168 16.9999 11.4794 16.9039 11.2881 16.7119C11.0961 16.5206 11.0001 16.2832 11.0001 15.9999C11.0001 15.7166 11.0961 15.4789 11.2881 15.2869C11.4794 15.0956 11.7168 14.9999 12.0001 14.9999C12.2834 14.9999 12.5211 15.0956 12.7131 15.2869C12.9044 15.4789 13.0001 15.7166 13.0001 15.9999C13.0001 16.2832 12.9044 16.5206 12.7131 16.7119C12.5211 16.9039 12.2834 16.9999 12.0001 16.9999ZM9.1001 18.9999H14.9001L15.5501 18.3499L5.6501 8.4499L5.0001 9.0999V14.8999L9.1001 18.9999Z" fill="black"/>
</svg>
