<svg width="24" height="24" viewBox="0 0 24 24" fill="none" xmlns="http://www.w3.org/2000/svg">
<path d="M0.5 7.71329C0.500125 6.20704 0.909142 4.74294 1.6641 3.52298C2.41877 2.30347 3.47813 1.39325 4.68759 0.904647C5.8955 0.41667 7.20264 0.369123 8.43348 0.767009C9.66574 1.16536 10.7717 1.9945 11.5918 3.15412L12 3.73144L12.4082 3.15412C13.2283 1.9945 14.3343 1.16536 15.5665 0.767009C16.7974 0.369123 18.1045 0.41667 19.3124 0.904647C20.5219 1.39325 21.5812 2.30347 22.3359 3.52298C23.0909 4.74293 23.4999 6.20701 23.5 7.71325V7.71329C23.5 12.3953 20.5568 16.3533 17.8224 19.0473C16.133 20.6968 14.3015 22.1435 12.3568 23.3654L12.2586 23.4249C12.1743 23.4759 12.0856 23.4999 11.9994 23.5C11.9158 23.5001 11.8298 23.4779 11.7479 23.4304L11.7425 23.4267L11.7297 23.419L11.7044 23.4038C11.1234 23.0424 10.5526 22.6596 9.99308 22.2558L9.9924 22.2553C8.65498 21.2936 7.38 20.2215 6.17769 19.0473C3.44464 16.3532 0.5 12.3953 0.5 7.71329ZM0.5 7.71329L0 7.71325L0.5 7.71329Z" fill="#F42313" stroke="#11CDF3"/>
</svg>
