<svg width="20" height="20" viewBox="0 0 20 20" fill="none" xmlns="http://www.w3.org/2000/svg">
<path d="M10.0002 18.9583C9.8002 18.9583 9.60021 18.9334 9.40854 18.875C5.08354 17.6834 1.9502 13.6417 1.9502 9.25833V5.59998C1.9502 4.66665 2.6252 3.65836 3.49187 3.30002L8.13354 1.4C9.34187 0.908333 10.6669 0.908333 11.8669 1.4L16.5085 3.30002C17.3752 3.65836 18.0502 4.66665 18.0502 5.59998V9.25833C18.0502 13.6333 14.9085 17.675 10.5919 18.875C10.4002 18.9334 10.2002 18.9583 10.0002 18.9583ZM10.0002 2.29167C9.5252 2.29167 9.05852 2.38335 8.60852 2.56669L3.96687 4.46666C3.56687 4.63333 3.2002 5.17499 3.2002 5.60832V9.26667C3.2002 13.0917 5.9502 16.625 9.74187 17.675C9.90853 17.725 10.0919 17.725 10.2585 17.675C14.0502 16.625 16.8002 13.0917 16.8002 9.26667V5.60832C16.8002 5.17499 16.4335 4.63333 16.0335 4.46666L11.3919 2.56669C10.9419 2.38335 10.4752 2.29167 10.0002 2.29167Z" fill="#0A151E"/>
<path d="M9.99967 11.0416C8.73301 11.0416 7.70801 10.0166 7.70801 8.74992C7.70801 7.48325 8.73301 6.45825 9.99967 6.45825C11.2663 6.45825 12.2913 7.48325 12.2913 8.74992C12.2913 10.0166 11.2663 11.0416 9.99967 11.0416ZM9.99967 7.70825C9.42467 7.70825 8.95801 8.17492 8.95801 8.74992C8.95801 9.32492 9.42467 9.79159 9.99967 9.79159C10.5747 9.79159 11.0413 9.32492 11.0413 8.74992C11.0413 8.17492 10.5747 7.70825 9.99967 7.70825Z" fill="#0A151E"/>
<path d="M10 13.5417C9.65833 13.5417 9.375 13.2584 9.375 12.9167V10.4167C9.375 10.0751 9.65833 9.79175 10 9.79175C10.3417 9.79175 10.625 10.0751 10.625 10.4167V12.9167C10.625 13.2584 10.3417 13.5417 10 13.5417Z" fill="#0A151E"/>
</svg>
