<svg width="32" height="32" viewBox="0 0 32 32" fill="none" xmlns="http://www.w3.org/2000/svg">
<path d="M16.0499 16.439C15.7508 16.4412 15.4611 16.5436 15.227 16.7297C14.9928 16.9158 14.8277 17.175 14.758 17.4659C14.6883 17.7568 14.7181 18.0626 14.8425 18.3346C14.9669 18.6067 15.1788 18.8292 15.4444 18.9667V20.5556H16.5555V19.0167C16.8424 18.8992 17.0795 18.6857 17.2265 18.4128C17.3736 18.1399 17.4213 17.8244 17.3616 17.5202C17.302 17.216 17.1386 16.9419 16.8994 16.7447C16.6602 16.5475 16.36 16.4395 16.0499 16.439Z" fill="white"/>
<path d="M20.4445 13.3333V10.9555C20.4683 9.75097 20.0141 8.58606 19.1812 7.71564C18.3482 6.84522 17.2044 6.34018 16 6.31104C14.7956 6.34018 13.6518 6.84522 12.8189 7.71564C11.986 8.58606 11.5317 9.75097 11.5556 10.9555V13.3333H9.88892V22.7777C9.88892 23.0724 10.006 23.355 10.2144 23.5634C10.4227 23.7718 10.7053 23.8888 11 23.8888H21C21.2947 23.8888 21.5773 23.7718 21.7857 23.5634C21.9941 23.355 22.1111 23.0724 22.1111 22.7777V13.3333H20.4445ZM12.6667 10.9555C12.6427 10.0456 12.9799 9.16325 13.6045 8.50119C14.2291 7.83913 15.0903 7.45119 16 7.42215C16.9097 7.45119 17.771 7.83913 18.3956 8.50119C19.0202 9.16325 19.3573 10.0456 19.3334 10.9555V13.3333H12.6667V10.9555ZM11 22.7777V14.4444H21V22.7777H11Z" fill="white"/>
<circle cx="16" cy="16" r="15.5" stroke="white"/>
</svg>
