<svg width="32" height="32" viewBox="0 0 32 32" fill="none" xmlns="http://www.w3.org/2000/svg">
<path d="M16.0499 16.439C15.7508 16.4412 15.4611 16.5436 15.227 16.7297C14.9928 16.9158 14.8277 17.175 14.758 17.4659C14.6883 17.7568 14.7181 18.0626 14.8425 18.3346C14.9669 18.6067 15.1788 18.8292 15.4444 18.9667V20.5556H16.5555V19.0167C16.8424 18.8992 17.0795 18.6857 17.2265 18.4128C17.3736 18.1399 17.4213 17.8244 17.3616 17.5202C17.302 17.216 17.1386 16.9419 16.8994 16.7447C16.6602 16.5475 16.36 16.4395 16.0499 16.439Z" fill="#386FA4"/>
<path d="M20.4442 13.3333V10.9555C20.4681 9.75097 20.0139 8.58606 19.1809 7.71564C18.348 6.84522 17.2042 6.34018 15.9998 6.31104C14.7954 6.34018 13.6516 6.84522 12.8187 7.71564C11.9857 8.58606 11.5315 9.75097 11.5553 10.9555V13.3333H9.88867V22.7777C9.88867 23.0724 10.0057 23.355 10.2141 23.5634C10.4225 23.7718 10.7051 23.8888 10.9998 23.8888H20.9998C21.2945 23.8888 21.5771 23.7718 21.7855 23.5634C21.9938 23.355 22.1109 23.0724 22.1109 22.7777V13.3333H20.4442ZM12.6665 10.9555C12.6425 10.0456 12.9796 9.16325 13.6042 8.50119C14.2288 7.83913 15.0901 7.45119 15.9998 7.42215C16.9095 7.45119 17.7707 7.83913 18.3953 8.50119C19.0199 9.16325 19.3571 10.0456 19.3331 10.9555V13.3333H12.6665V10.9555ZM10.9998 22.7777V14.4444H20.9998V22.7777H10.9998Z" fill="#386FA4"/>
<circle cx="16" cy="16" r="15.5" stroke="#386FA4"/>
</svg>
