<svg width="24" height="24" viewBox="0 0 24 24" fill="none" xmlns="http://www.w3.org/2000/svg">
<g clip-path="url(#clip0_896_9279)">
<path d="M12 0C8.81812 0 5.76375 1.26506 3.51562 3.51469C1.26518 5.76521 0.000623381 8.81734 0 12C0 15.1813 1.26562 18.2357 3.51562 20.4853C5.76375 22.7349 8.81812 24 12 24C15.1819 24 18.2362 22.7349 20.4844 20.4853C22.7344 18.2357 24 15.1813 24 12C24 8.81869 22.7344 5.76431 20.4844 3.51469C18.2362 1.26506 15.1819 0 12 0Z" fill="url(#paint0_linear_896_9279)"/>
<path d="M5.04761 15.1236C5.04761 16.5141 3.92382 17.6379 2.53332 17.6379C1.14282 17.6379 0.019043 16.5141 0.019043 15.1236C0.019043 13.7332 1.14282 12.6094 2.53342 12.6094H5.04751V15.1237L5.04761 15.1236ZM6.30479 15.1236C6.30479 13.7332 7.42857 12.6094 8.81907 12.6094C10.2096 12.6094 11.3334 13.7332 11.3334 15.1237V21.4093C11.3334 22.7998 10.2096 23.9237 8.81898 23.9237C7.42867 23.9237 6.30479 22.7998 6.30479 21.4093V15.1237V15.1236Z" fill="#E01E5A"/>
<path d="M5.43184 11.873C8.93059 10.349 11.2631 9.34424 12.4293 8.8588C15.7631 7.47261 16.455 7.23186 16.9068 7.2237C17.0062 7.22211 17.2275 7.24667 17.3718 7.36339C17.4918 7.46183 17.5256 7.59495 17.5425 7.68842C17.5575 7.7818 17.5781 7.99461 17.5612 8.16074C17.3812 10.0582 16.5993 14.6629 16.2018 16.7882C16.035 17.6874 15.7031 17.9889 15.3825 18.0184C14.685 18.0825 14.1562 17.5579 13.4812 17.1155C12.4256 16.4231 11.8293 15.9922 10.8037 15.3167C9.61872 14.5359 10.3875 14.1067 11.0625 13.4055C11.2387 13.2219 14.31 10.4291 14.3681 10.1758C14.3756 10.1441 14.3831 10.026 14.3118 9.96373C14.2425 9.9013 14.1393 9.92267 14.0643 9.93955C13.9575 9.96355 12.2718 11.0788 9.00184 13.2851C8.52372 13.614 8.09059 13.7743 7.70059 13.7659C7.27309 13.7567 6.44809 13.5236 5.83497 13.3245C5.08497 13.0802 4.48684 12.951 4.53934 12.536C4.56559 12.32 4.86372 12.099 5.43184 11.873Z" fill="white"/>
<path d="M8.81906 5.02856C7.42856 5.02856 6.30469 3.90478 6.30469 2.51428C6.30469 1.12378 7.42866 0 8.81906 0C10.2095 0 11.3333 1.12378 11.3333 2.51428V5.02866H8.81897L8.81906 5.02856ZM8.81906 6.30478C10.2096 6.30478 11.3333 7.42856 11.3333 8.81906C11.3333 10.2096 10.2096 11.3333 8.81897 11.3333H2.51437C1.12378 11.3333 0 10.2096 0 8.81897C0 7.42866 1.12378 6.30478 2.51428 6.30478H8.81897H8.81906Z" fill="#36C5F0"/>
<path d="M18.8951 8.81906C18.8951 7.42856 20.0189 6.30469 21.4093 6.30469C22.7998 6.30469 23.9237 7.42856 23.9237 8.81906C23.9237 10.2096 22.7998 11.3333 21.4093 11.3333H18.8951V8.81897V8.81906ZM17.6379 8.81906C17.6379 10.2096 16.5141 11.3333 15.1236 11.3333C13.7332 11.3333 12.6094 10.2096 12.6094 8.81897V2.51437C12.6094 1.12378 13.7332 0 15.1236 0C16.514 0 17.6378 1.12378 17.6378 2.51428V8.81897L17.6379 8.81906Z" fill="#2EB67D"/>
<path d="M15.1236 18.8951C16.5141 18.8951 17.6379 20.0189 17.6379 21.4093C17.6379 22.7998 16.5141 23.9237 15.1236 23.9237C13.7332 23.9237 12.6094 22.7998 12.6094 21.4093V18.8951H15.1237H15.1236ZM15.1236 17.6379C13.7332 17.6379 12.6094 16.5141 12.6094 15.1236C12.6094 13.7332 13.7332 12.6094 15.1237 12.6094H21.4283C22.8188 12.6094 23.9427 13.7332 23.9427 15.1237C23.9427 16.5141 22.8188 17.6379 21.4283 17.6379H15.1237H15.1236Z" fill="#ECB22E"/>
</g>
<defs>
<linearGradient id="paint0_linear_896_9279" x1="12" y1="0" x2="12" y2="24" gradientUnits="userSpaceOnUse">
<stop stop-color="#2AABEE"/>
<stop offset="1" stop-color="#229ED9"/>
</linearGradient>
<clipPath id="clip0_896_9279">
<rect width="24" height="24" fill="white"/>
</clipPath>
</defs>
</svg>
