<svg width="24" height="24" viewBox="0 0 24 24" fill="none" xmlns="http://www.w3.org/2000/svg">
<g clip-path="url(#clip0_337_5692)">
<path d="M24 17.9999C24 18.7072 23.719 19.3854 23.219 19.8855C22.7189 20.3856 22.0406 20.6666 21.3333 20.6666H2.66667C1.95942 20.6666 1.28115 20.3856 0.781049 19.8855C0.280952 19.3854 0 18.7072 0 17.9999V5.99992C0 5.29267 0.280952 4.6144 0.781049 4.1143C1.28115 3.6142 1.95942 3.33325 2.66667 3.33325H21.3333C22.0406 3.33325 22.7189 3.6142 23.219 4.1143C23.719 4.6144 24 5.29267 24 5.99992V17.9999Z" fill="#006600"/>
<path d="M0 8.66675H24V15.3334H0V8.66675Z" fill="#BB1600"/>
<path d="M21.3333 3.33325H2.66667C1.95942 3.33325 1.28115 3.6142 0.781049 4.1143C0.280952 4.6144 0 5.29267 0 5.99992L0 8.66659H24V5.99992C24 5.29267 23.719 4.6144 23.219 4.1143C22.7189 3.6142 22.0406 3.33325 21.3333 3.33325Z" fill="#141414"/>
<path d="M0 8.66675H24V9.33341H0V8.66675ZM0 14.6667H24V15.3334H0V14.6667Z" fill="#EEEEEE"/>
<path d="M15.3696 6.26935C15.3256 6.24335 15.2456 6.32868 14.8403 6.77868C14.6963 6.93868 14.5163 7.13802 14.317 7.35202C13.9116 7.78735 13.4876 8.32602 13.795 8.64202L8.95163 16.7827C8.9443 16.7947 8.93897 16.814 8.95363 16.8407C8.97651 16.8727 9.0057 16.8997 9.03941 16.92C9.07312 16.9403 9.11063 16.9534 9.14963 16.9587H9.15163C9.1823 16.9587 9.19697 16.9447 9.2043 16.9327L14.0496 8.78935C14.467 8.88802 14.7323 8.26668 14.9196 7.71202C15.013 7.43402 15.1023 7.18135 15.1736 6.97868C15.375 6.40802 15.411 6.29402 15.3696 6.26935Z" fill="#141414"/>
<path d="M14.87 6.80544C14.726 6.96544 14.546 7.16477 14.346 7.37944C13.7554 8.01411 13.5967 8.39811 13.8334 8.62477L13.8454 8.63544L8.98536 16.8034C8.98269 16.8088 8.98602 16.8174 8.98869 16.8214C9.02798 16.8733 9.08578 16.9079 9.15002 16.9181H9.15136C9.15802 16.9181 9.16669 16.9174 9.17002 16.9114L14.0227 8.75544L14.0307 8.74211L14.0454 8.74611C14.3507 8.83277 14.6094 8.50944 14.8814 7.69811C14.9747 7.42011 15.064 7.16744 15.1354 6.96411C15.2474 6.64744 15.3447 6.37144 15.3447 6.30811C15.29 6.33877 15.0947 6.55611 14.87 6.80544Z" fill="white"/>
<path d="M10.2051 8.642C10.5124 8.326 10.0891 7.78733 9.6831 7.352C9.48376 7.13733 9.30376 6.93867 9.15976 6.77867C8.75443 6.32933 8.67443 6.24333 8.63043 6.26933C8.5891 6.29467 8.6251 6.408 8.82576 6.978C8.8971 7.18067 8.98643 7.43333 9.07976 7.71133C9.26643 8.26667 9.53176 8.88733 9.94976 8.78866L14.7951 16.932C14.8024 16.944 14.8171 16.958 14.8478 16.958H14.8498C14.8888 16.9528 14.9263 16.9396 14.96 16.9193C14.9937 16.899 15.0229 16.872 15.0458 16.84C15.0598 16.8133 15.0551 16.794 15.0478 16.782L10.2051 8.642Z" fill="#141414"/>
<path d="M10.167 8.62459C10.4036 8.39793 10.2456 8.01393 9.6543 7.37926C9.4543 7.16459 9.27496 6.96526 9.1303 6.80526C8.90563 6.55593 8.70963 6.33859 8.6543 6.30859C8.6543 6.37193 8.75163 6.64793 8.86363 6.96459C8.93496 7.16793 9.02496 7.42059 9.11763 7.69859C9.3903 8.50993 9.6483 8.83326 9.95363 8.74659L9.9683 8.74259L9.9763 8.75593L14.829 16.9119C14.8323 16.9179 14.8416 16.9186 14.8476 16.9186H14.849C14.9133 16.9087 14.9712 16.874 15.0103 16.8219C15.013 16.8173 15.0163 16.8086 15.0136 16.8039L10.1536 8.63593L10.167 8.62459Z" fill="white"/>
<path d="M12.0119 6.97198L11.9999 6.96265L11.9879 6.97198C10.3266 8.21865 9.51855 9.85931 9.51855 11.9873C9.51855 14.1153 10.3259 15.756 11.9879 17.0033L11.9999 17.012L12.0119 17.0033C13.6732 15.7566 14.4812 14.116 14.4812 11.9873C14.4812 9.85865 13.6732 8.21731 12.0119 6.97198Z" fill="#141414"/>
<path d="M13.9191 9.3727C13.5171 8.46403 12.8851 7.67936 11.9991 7.0127C11.1151 7.6787 10.4837 8.46203 10.0811 9.36803C10.4311 10.1554 10.6024 11.0134 10.6024 11.9927C10.6024 12.9707 10.4317 13.8267 10.0831 14.6114C10.4857 15.5154 11.1164 16.2974 11.9984 16.9627C12.8824 16.2967 13.5137 15.5134 13.9157 14.6067C13.5684 13.8214 13.3984 12.966 13.3984 11.9927C13.3997 11.018 13.5704 10.1614 13.9191 9.3727Z" fill="#BB1600"/>
<path d="M12 12.618C12.204 12.618 12.37 12.3353 12.37 11.9873C12.37 11.6393 12.204 11.356 12 11.356C11.796 11.356 11.6306 11.6387 11.6306 11.9873C11.63 12.3353 11.796 12.618 12 12.618ZM11.846 10.9533C11.5113 10.4607 11.3486 9.83534 11.3486 9.07267C11.3486 8.30934 11.5113 7.68401 11.846 7.19067V10.9533ZM12.154 10.9533C12.488 10.4607 12.65 9.83534 12.65 9.07267C12.65 8.30934 12.488 7.68401 12.154 7.19067V10.9533ZM11.846 13.02C11.5113 13.512 11.3486 14.138 11.3486 14.9007C11.3486 15.6647 11.5113 16.2887 11.846 16.782V13.02ZM12.154 13.02C12.488 13.512 12.65 14.138 12.65 14.9007C12.65 15.6647 12.488 16.2887 12.154 16.782V13.02Z" fill="white"/>
</g>
<defs>
<clipPath id="clip0_337_5692">
<rect width="24" height="24" fill="white"/>
</clipPath>
</defs>
</svg>
