<svg width="24" height="24" viewBox="0 0 24 24" fill="none" xmlns="http://www.w3.org/2000/svg">
<g clip-path="url(#clip0_337_5686)">
<path d="M24 17.9999C24 18.7072 23.719 19.3854 23.219 19.8855C22.7189 20.3856 22.0406 20.6666 21.3333 20.6666H2.66667C1.95942 20.6666 1.28115 20.3856 0.781049 19.8855C0.280952 19.3854 0 18.7072 0 17.9999V5.99992C0 5.29267 0.280952 4.6144 0.781049 4.1143C1.28115 3.6142 1.95942 3.33325 2.66667 3.33325H21.3333C22.0406 3.33325 22.7189 3.6142 23.219 4.1143C23.719 4.6144 24 5.29267 24 5.99992V17.9999Z" fill="#006600"/>
<path d="M21.3333 3.33325H10V20.6666H21.3333C22.0406 20.6666 22.7189 20.3856 23.219 19.8855C23.719 19.3854 24 18.7072 24 17.9999V5.99992C24 5.29267 23.719 4.6144 23.219 4.1143C22.7189 3.6142 22.0406 3.33325 21.3333 3.33325Z" fill="#D52B1E"/>
<path d="M10.0003 6.66675C8.58584 6.66675 7.22928 7.22865 6.22909 8.22885C5.2289 9.22904 4.66699 10.5856 4.66699 12.0001C4.66699 13.4146 5.2289 14.7711 6.22909 15.7713C7.22928 16.7715 8.58584 17.3334 10.0003 17.3334C11.4148 17.3334 12.7714 16.7715 13.7716 15.7713C14.7718 14.7711 15.3337 13.4146 15.3337 12.0001C15.3337 10.5856 14.7718 9.22904 13.7716 8.22885C12.7714 7.22865 11.4148 6.66675 10.0003 6.66675ZM5.92499 9.72941L6.99299 10.7974L5.35299 11.6174C5.40592 10.9543 5.60101 10.3104 5.92499 9.72941ZM5.35299 12.3821L8.28633 13.8534L6.48233 15.0561L6.49166 15.0701C5.83291 14.3198 5.43361 13.3772 5.35299 12.3821ZM9.33366 16.6134C8.72253 16.5262 8.13501 16.3177 7.60566 16.0001H9.33366V16.6134ZM9.33366 15.3334H7.26766L9.33366 13.9561V15.3334ZM9.33366 13.1547L8.92899 13.4247L6.07899 12.0001L7.48966 11.2947L9.33366 13.1381V13.1547ZM9.33366 12.1954L6.97166 9.83341L9.33366 10.2267V12.1954ZM9.33366 9.53408L6.37899 9.05875C7.1183 8.14936 8.17342 7.55229 9.33366 7.38675V9.53408ZM14.0757 9.72941C14.3997 10.3106 14.5948 10.9548 14.6477 11.6181L13.0077 10.7981L14.0757 9.72941ZM10.667 7.38675C11.8271 7.55254 12.8822 8.14957 13.6217 9.05875L10.667 9.53408V7.38675ZM10.667 10.2267L13.029 9.83275L10.667 12.1954V10.2267ZM10.667 13.1381L12.5103 11.2947L13.9217 12.0001L11.0723 13.4247L10.667 13.1547V13.1381ZM10.667 16.6134V16.0001H12.395C11.8656 16.3177 11.2781 16.5262 10.667 16.6134ZM10.667 15.3334V13.9561L12.733 15.3334H10.667ZM13.5097 15.0701L13.519 15.0561L11.715 13.8534L14.6483 12.3821C14.5671 13.3771 14.1679 14.3195 13.5097 15.0701Z" fill="#FFCC4D"/>
<path d="M7.33301 8.66675V13.3334C7.33301 14.0407 7.61396 14.7189 8.11406 15.219C8.61415 15.7191 9.29243 16.0001 9.99967 16.0001C10.7069 16.0001 11.3852 15.7191 11.8853 15.219C12.3854 14.7189 12.6663 14.0407 12.6663 13.3334V8.66675H7.33301Z" fill="#D52B1E"/>
<path d="M8 9.33325V13.3333C8 13.8637 8.21071 14.3724 8.58579 14.7475C8.96086 15.1225 9.46957 15.3333 10 15.3333C10.5304 15.3333 11.0391 15.1225 11.4142 14.7475C11.7893 14.3724 12 13.8637 12 13.3333V9.33325H8Z" fill="white"/>
<path d="M8.66699 11.3333H11.3337V12.6666H8.66699V11.3333Z" fill="#829ACD"/>
<path d="M9.33301 10.6667H10.6663V13.3334H9.33301V10.6667Z" fill="#829ACD"/>
<path d="M8 11.3333H8.66667V12.6666H8V11.3333ZM9.33333 11.3333H10.6667V12.6666H9.33333V11.3333ZM11.3333 11.3333H12V12.6666H11.3333V11.3333ZM9.33333 13.3333H10.6667V14.6666H9.33333V13.3333ZM9.33333 9.33325H10.6667V10.6666H9.33333V9.33325Z" fill="#003399"/>
</g>
<defs>
<clipPath id="clip0_337_5686">
<rect width="24" height="24" fill="white"/>
</clipPath>
</defs>
</svg>
