<svg width="253" height="187" viewBox="0 0 253 187" fill="none" xmlns="http://www.w3.org/2000/svg">
<g clip-path="url(#clip0_896_12196)">
<path opacity="0.1" d="M2.71973 89.376C6.71043 104.799 15.1513 118.131 28.4904 124.594C56.2209 138.025 118.76 131.098 165.436 123.146C189.58 119.034 210.801 107.685 226.217 91.7125L2.71973 89.376Z" fill="#C92828"/>
<path opacity="0.1" d="M247.483 16.7784H221.873C220.658 16.7784 219.661 15.8778 219.661 14.7773C219.661 13.6768 220.658 12.7739 221.873 12.7739H226.303C225.085 12.7739 224.09 11.8733 224.09 10.7705C224.09 9.66774 225.085 8.76943 226.303 8.76943H223.141C221.924 8.76943 220.927 7.86882 220.927 6.76603C220.927 5.66325 221.924 4.76494 223.141 4.76494H236.508C233.542 3.51741 230.075 2.63059 226.08 2.16421C189.63 -2.07003 176.618 0.730586 172.027 3.60931C166.306 7.24218 159.95 9.76293 153.294 11.0393C130.806 15.2368 88.751 20.2866 50.6337 9.4311C31.6887 4.02515 17.6075 13.1484 9.16895 28.399H251.931C251.614 23.9672 250.665 19.8731 248.924 16.2913C248.511 16.6098 248.004 16.7812 247.483 16.7784Z" fill="#C92828"/>
<path opacity="0.1" d="M0.549191 57.1841C-0.434479 66.1538 -0.100101 75.2192 1.5417 84.092L226.39 91.5335C232.58 85.1141 237.839 77.8585 242.013 69.9787L0.549191 57.1841ZM89.4796 76.3794H85.0524C86.27 76.3794 87.2671 77.2823 87.2671 78.3828C87.2671 79.4833 86.27 80.3839 85.0524 80.3839H59.4425C58.2271 80.3839 57.23 79.4833 57.23 78.3828C57.23 77.2823 58.2271 76.3794 59.4425 76.3794H63.872C62.6544 76.3794 61.6595 75.4788 61.6595 74.3783C61.6595 73.2778 62.6544 72.3749 63.872 72.3749H60.7084C59.4907 72.3749 58.4936 71.4743 58.4936 70.3738C58.4936 69.2734 59.4907 68.3705 60.7084 68.3705H86.3183C87.5359 68.3705 88.5307 69.2711 88.5307 70.3738C88.5307 71.4766 87.5359 72.3749 86.3183 72.3749H89.4796C90.6973 72.3749 91.6921 73.2755 91.6921 74.3783C91.6921 75.4811 90.6973 76.3794 89.4796 76.3794Z" fill="#C92828"/>
<path opacity="0.1" d="M251.941 28.5366L6.46125 33.9357C3.47454 40.8809 1.49413 48.7337 0.582031 56.8713H247.64C249.248 52.1103 250.441 47.2191 251.206 42.2525C251.943 37.4715 252.238 32.8467 251.941 28.5366ZM50.4233 46.2386H45.9961C47.2137 46.2386 48.2108 47.1415 48.2108 48.242C48.2108 49.3425 47.2137 50.2454 45.9961 50.2454H20.3862C19.1708 50.2454 18.1737 49.3425 18.1737 48.242C18.1737 47.1415 19.1708 46.2386 20.3862 46.2386H24.8157C23.5981 46.2386 22.6033 45.338 22.6033 44.2375C22.6033 43.137 23.5981 42.2341 24.8157 42.2341H21.6521C20.4345 42.2341 19.4374 41.3335 19.4374 40.233C19.4374 39.1325 20.4345 38.2296 21.6521 38.2296H47.262C48.4796 38.2296 49.4744 39.1302 49.4744 40.233C49.4744 41.3358 48.4796 42.2341 47.262 42.2341H50.4233C51.641 42.2341 52.6358 43.137 52.6358 44.2375C52.6358 45.338 51.641 46.2386 50.4233 46.2386Z" fill="#C92828"/>
<path opacity="0.1" d="M125.23 179.451C181.946 179.451 227.923 175.221 227.923 170.003C227.923 164.786 181.946 160.556 125.23 160.556C68.515 160.556 22.5381 164.786 22.5381 170.003C22.5381 175.221 68.515 179.451 125.23 179.451Z" fill="#C92828"/>
<path d="M229.893 91.9723C229.892 91.9563 229.892 91.9402 229.893 91.9241C229.893 91.8988 229.893 91.8759 229.893 91.8529C229.847 91.5898 229.748 91.3388 229.602 91.1154C229.076 90.2739 228.344 89.581 227.474 89.1028C225.958 88.2711 223.874 87.915 223.268 86.3275C223.081 85.8358 223.077 85.3005 222.985 84.7859C222.824 83.984 222.455 83.2386 221.915 82.6245C221.375 82.0103 220.683 81.549 219.909 81.2868C219.187 81.0456 218.408 80.979 217.708 80.6803C216.141 80.014 215.314 78.3713 214.613 76.8527C213.706 74.8922 212.799 72.9309 211.893 70.9689C211.204 71.3158 210.312 71.1527 209.667 70.7185C209.044 70.2553 208.549 69.643 208.226 68.9379C207.291 67.1229 206.889 65.0667 205.791 63.339C204.692 61.6113 202.498 60.2466 200.559 60.9979C200.181 61.187 199.789 61.349 199.388 61.4826C197.727 61.8709 195.889 59.9732 194.466 60.8945C194.23 61.046 194.038 61.2567 193.908 61.5056C193.907 61.4903 193.907 61.475 193.908 61.4597C193.723 61.8334 193.62 62.2422 193.605 62.6589C193.605 62.744 193.605 62.8267 193.605 62.9071C193.605 62.9209 193.605 62.9346 193.605 62.9484C193.605 63.2793 193.626 63.6147 193.63 63.9501C193.635 64.2318 193.614 64.5134 193.566 64.791V64.768C193.539 64.9243 193.499 65.078 193.446 65.2275C193.076 66.22 192.052 66.8702 191.572 67.803V67.757C191.518 67.8585 191.471 67.9637 191.431 68.0718C191.346 68.3163 191.302 68.5733 191.301 68.8323C191.259 70.5852 193.118 72.2348 193.334 74.1164C193.488 75.449 193.793 75.8763 194.926 76.6299L195.174 76.7953C195.075 76.7953 194.974 76.8091 194.862 76.8114C194.818 76.8122 194.774 76.8168 194.731 76.8251C194.531 76.7701 194.321 76.7601 194.117 76.7959C193.913 76.8316 193.719 76.9122 193.55 77.0319C192.681 77.7211 190.627 77.1904 189.715 77.0319C188.803 76.8734 185.679 77.3007 185.242 79.033C184.806 80.7653 184.057 84.3402 184.057 84.3402C184.057 84.3402 184.057 86.6078 183.779 87.0305C183.768 87.0602 183.768 87.0927 183.779 87.1224C183.779 87.7588 183.802 91.5841 183.186 92.5697C183.034 92.7994 183.046 93.3072 183.158 93.9321C182.51 94.7661 181.902 95.7402 182.01 96.3789C182.207 97.6862 184.858 101.796 188.658 99.5954C188.658 99.5954 190.82 95.6414 188.1 93.5392L188.217 93.0797C189.04 94.0906 189.649 94.8166 189.649 94.8166C189.649 94.8166 189.681 94.9016 189.731 95.0464H189.649C190.004 96.0125 190.219 97.0244 190.287 98.0515C190.277 98.428 190.209 98.8007 190.085 99.1565H190.156C190.136 99.2346 190.113 99.3128 190.085 99.3863C189.952 99.7743 189.702 100.112 189.371 100.354C187.471 101.7 185.295 111.315 185.295 111.315C185.295 111.315 180.985 126.857 180.123 127.742C179.411 128.468 183.887 130.512 187.246 130.269C187.714 130.241 188.178 130.153 188.624 130.007C188.645 130.237 188.668 130.466 188.691 130.675C188.762 131.365 188.835 132.003 188.881 132.203C189.001 132.704 189.237 137.818 189.237 137.818C189.237 137.818 188.753 141.14 188.87 143.452C188.87 143.61 188.89 143.762 188.904 143.911L188.486 143.976C187.852 145.4 190.464 157.285 190.82 158.284C191.056 159.072 191.189 159.886 191.216 160.708C191.216 160.708 190.986 161.553 191.176 162.015C191.295 162.298 191.373 162.595 191.406 162.9C191.406 162.9 191.25 163.667 191.487 164.168C191.723 164.669 191.448 165.546 191.448 165.546C191.448 165.546 191.369 169.009 190.657 170.893C190.463 171.4 190.407 171.949 190.494 172.485C190.58 173.021 190.807 173.524 191.151 173.944C191.201 174.009 191.254 174.071 191.312 174.13C191.312 174.13 195.241 174.162 195.932 174.13H196.022C196.3 174.091 197.012 170.975 196.378 169.475C195.744 167.975 196.3 166.128 196.3 166.128V163.398C196.3 163.398 197.012 162.741 196.3 161.331C195.588 159.92 195.705 159.493 195.705 159.493C195.705 159.493 196.497 157.223 195.666 156.492C194.834 155.762 195.824 152.991 195.824 152.991L196.105 143.755C195.958 143.707 195.808 143.669 195.657 143.64C195.64 143.488 195.624 143.332 195.608 143.167C195.445 141.494 195.305 139.22 195.668 138.572C196.031 137.924 196.206 132.268 196.263 128.337L199.884 128.475C199.96 130.312 200.04 131.99 200.091 132.203C200.21 132.704 200.449 137.818 200.449 137.818C200.449 137.818 199.962 141.14 200.079 143.452C200.079 143.61 200.1 143.762 200.114 143.911L199.695 143.976C199.061 145.4 201.674 157.285 202.03 158.284C202.266 159.072 202.399 159.886 202.427 160.708C202.427 160.708 202.197 161.553 202.386 162.015C202.505 162.298 202.582 162.595 202.616 162.9C202.616 162.9 202.459 163.667 202.696 164.168C202.933 164.669 202.657 165.546 202.657 165.546C202.657 165.546 202.579 169.009 201.867 170.893C201.676 171.4 201.622 171.95 201.712 172.485C201.801 173.019 202.031 173.521 202.377 173.939C202.426 174.005 202.48 174.067 202.537 174.125C202.537 174.125 206.466 174.157 207.158 174.125H207.247C207.525 174.086 208.237 170.971 207.603 169.471C206.969 167.97 207.525 166.123 207.525 166.123V163.398C207.525 163.398 208.237 162.741 207.525 161.331C206.813 159.92 206.93 159.493 206.93 159.493C206.93 159.493 207.723 157.223 206.891 156.492C206.059 155.762 207.05 152.991 207.05 152.991L207.335 143.755C207.184 143.706 207.031 143.668 206.875 143.64C206.859 143.488 206.843 143.332 206.827 143.167C206.664 141.494 206.524 139.22 206.887 138.572C207.178 138.041 207.346 134.623 207.422 131.284C207.422 131.055 207.422 130.825 207.44 130.595C209.104 130.526 210.761 130.34 212.398 130.039C212.398 130.039 210.461 123.19 211.054 122.076C211.309 121.596 210.942 119.039 210.438 116.284C211.14 116.852 212.012 117.168 212.915 117.18C213.781 118.846 216.416 122.678 217.901 123.268C219.642 123.958 218.335 117.846 217.505 116.962C217.113 116.479 216.783 115.949 216.522 115.384C216.545 115.356 216.57 115.333 216.593 115.308C216.616 115.282 216.635 108.806 216.237 108.923C215.84 109.04 215.367 107.96 215.367 107.96L214.14 97.1922L213.625 92.6846C214.055 93.0016 214.565 93.2038 215.004 93.5185C216.198 94.3939 216.589 95.9309 217.113 97.291C217.545 98.4099 218.151 99.5195 219.146 100.223C220.141 100.926 221.6 101.112 222.592 100.399C223.511 99.7309 223.782 98.5247 223.984 97.4242C225.652 98.0101 227.676 96.4432 227.46 94.7316C227.408 94.3089 227.251 93.8471 227.472 93.4772C227.913 92.7466 229.31 93.1716 229.769 92.4502C229.847 92.3254 229.886 92.1811 229.884 92.0344C229.891 92.0022 229.893 91.9884 229.893 91.9723ZM207.583 97.8952C207.557 98.3065 208.123 101.61 208.582 104.225C208.205 102.596 207.449 100.857 205.961 99.6643C205.961 99.6643 205.961 99.5816 205.942 99.4345H205.961C205.961 99.4345 205.899 98.7775 205.889 97.8424C205.892 97.0135 205.954 96.1859 206.073 95.3657V95.345H206.043C206.043 95.2761 206.062 95.2049 206.073 95.136C206.165 94.4438 206.353 93.7679 206.632 93.128C206.755 92.8772 206.897 92.636 207.057 92.4066C207.302 94.6282 207.606 97.4794 207.583 97.8952ZM208.819 105.55C209.021 106.678 209.166 107.471 209.166 107.471L210.386 115.848V115.887C209.729 112.351 208.89 108.624 208.89 108.624C208.975 107.6 208.952 106.57 208.819 105.55Z" fill="url(#paint0_linear_896_12196)"/>
<path d="M193.867 74.5757C193.637 72.4529 191.34 70.6218 192.029 68.6023C192.403 67.5018 193.575 66.8286 193.97 65.7351C194.232 65.0136 194.115 64.221 194.117 63.4537C194.12 62.6863 194.299 61.8294 194.937 61.4043C196.316 60.4853 198.09 62.3762 199.698 61.9902C200.087 61.8572 200.465 61.6959 200.83 61.5077C202.708 60.761 204.83 62.1211 205.885 63.8396C206.939 65.5581 207.335 67.6075 208.24 69.4133C208.549 70.1106 209.027 70.7196 209.632 71.1846C210.257 71.6166 211.112 71.7797 211.787 71.4351L214.418 77.2936C215.107 78.8031 215.897 80.4388 217.404 81.1028C218.08 81.3992 218.833 81.4658 219.532 81.7071C220.291 81.9748 220.966 82.4372 221.491 83.0481C222.015 83.659 222.369 84.3968 222.519 85.1877C222.608 85.7023 222.61 86.2354 222.792 86.7247C223.378 88.3054 225.393 88.6592 226.861 89.4817C227.71 89.9606 228.422 90.6496 228.929 91.4828C229.158 91.8802 229.356 92.4018 229.11 92.7923C228.667 93.5091 227.318 93.0864 226.891 93.8147C226.675 94.1823 226.826 94.6418 226.891 95.0645C227.1 96.767 225.14 98.3269 223.527 97.7434C223.332 98.8393 223.068 100.041 222.181 100.705C221.227 101.417 219.814 101.229 218.852 100.53C217.889 99.8318 217.306 98.7267 216.887 97.6124C216.38 96.2569 216.001 94.7268 214.845 93.8561C214.427 93.5436 213.926 93.3414 213.517 93.0267C212.598 92.3237 212.139 91.1634 211.81 90.04C211.385 88.6385 211.047 87.198 210.432 85.8747C209.816 84.5513 208.842 83.3199 207.507 82.7156C206.255 82.1528 204.812 82.1895 203.519 81.7323C201.292 80.9466 199.645 79.0742 197.43 78.1919C196.722 77.8943 196.051 77.515 195.431 77.0616C194.317 76.3287 194.014 75.9036 193.867 74.5757Z" fill="#3F3D56"/>
<g opacity="0.1">
<path d="M194.074 65.285C194.122 65.1952 194.163 65.1023 194.198 65.007C194.458 64.2856 194.343 63.493 194.345 62.7257C194.345 62.4697 194.369 62.2144 194.417 61.9629C194.205 62.4168 194.101 62.9141 194.116 63.4149C194.113 64.0329 194.187 64.6808 194.074 65.285Z" fill="black"/>
<path d="M222.397 99.9838C221.444 100.694 220.031 100.508 219.068 99.8069C218.106 99.1062 217.52 98.0057 217.113 96.8868C216.605 95.5313 216.229 94.0012 215.071 93.1305C214.655 92.818 214.152 92.6135 213.745 92.3011C212.826 91.5981 212.367 90.4378 212.036 89.3259C211.611 87.9244 211.275 86.4839 210.657 85.1605C210.039 83.8372 209.07 82.6058 207.733 82.0015C206.483 81.4386 205.04 81.4754 203.746 81.0182C201.518 80.2325 199.871 78.36 197.658 77.4778C196.95 77.1793 196.278 76.8 195.657 76.3475C194.568 75.5962 194.279 75.1712 194.118 73.8455C193.888 71.8559 191.866 70.1213 192.181 68.2466C192.13 68.348 192.085 68.4523 192.045 68.559C191.356 70.5808 193.654 72.4119 193.883 74.5325C194.033 75.8581 194.343 76.2831 195.423 77.0344C196.044 77.487 196.716 77.8663 197.424 78.1648C199.636 79.047 201.284 80.9217 203.512 81.7052C204.806 82.1646 206.248 82.1256 207.498 82.6885C208.835 83.2927 209.796 84.5264 210.423 85.8475C211.05 87.1685 211.386 88.6044 211.801 90.0128C212.139 91.1248 212.583 92.285 213.511 92.988C213.927 93.3005 214.43 93.505 214.836 93.8174C215.985 94.6881 216.371 96.2183 216.879 97.5738C217.297 98.688 217.883 99.7908 218.845 100.489C219.808 101.188 221.221 101.376 222.174 100.666C222.783 100.207 223.093 99.5059 223.298 98.7547C223.116 99.2392 222.805 99.6645 222.397 99.9838Z" fill="black"/>
<path d="M227.119 93.0937C227.031 93.2585 226.992 93.4453 227.008 93.6313C227.528 93.119 228.699 93.42 229.108 92.7606C229.203 92.5976 229.24 92.4074 229.214 92.2207C228.681 92.7261 227.509 92.4252 227.119 93.0937Z" fill="black"/>
<path d="M223.744 97.0222C223.7 97.252 223.657 97.4978 223.602 97.7367C225.008 98.1755 226.632 97.0475 226.862 95.623C226.303 96.7189 224.925 97.4518 223.744 97.0222Z" fill="black"/>
</g>
<path d="M196.835 75.6807C196.835 75.6807 197.6 77.2246 195.342 77.2567C193.083 77.2889 196.796 87.2829 196.796 87.2829L200.55 92.0616L205.221 89.5344L205.49 82.5639L205.834 78.3526C205.834 78.3526 201.469 76.9351 202.273 75.0604C203.077 73.1856 196.835 75.6807 196.835 75.6807Z" fill="#FBBEBE"/>
<path d="M210.393 116.429C210.393 116.429 213.15 119.142 216.366 115.542L213.896 112.92H210.772L210.393 116.429Z" fill="#386FA4"/>
<path opacity="0.1" d="M210.692 112.92L210.312 116.429C210.312 116.429 213.069 119.142 216.286 115.542" fill="black"/>
<path d="M215.33 113.398C215.33 113.398 216.44 116.309 217.244 117.189C218.048 118.069 219.312 124.157 217.628 123.468C215.944 122.779 212.727 117.649 212.534 116.769C212.341 115.889 212.268 113.398 212.268 113.398H215.33Z" fill="#FBBEBE"/>
<path d="M191.246 128.332L206.102 128.906L204.378 122.625L196.896 122.473L191.246 128.332Z" fill="#386FA4"/>
<path opacity="0.1" d="M193.312 128.332L208.169 128.906L206.446 122.625L198.961 122.473L193.312 128.332Z" fill="black"/>
<path d="M196.107 138.7C195.755 139.355 195.891 141.62 196.049 143.295C196.151 144.361 196.261 145.181 196.261 145.181C196.261 145.181 190.708 146.904 189.867 145.411C189.653 145.032 189.548 144.368 189.511 143.589C189.396 141.292 189.867 137.981 189.867 137.981C189.867 137.981 189.637 132.89 189.522 132.391C189.476 132.191 189.405 131.557 189.336 130.87C189.235 129.85 189.139 128.715 189.139 128.715L196.72 124.695C196.72 124.695 196.72 125.448 196.707 126.609C196.665 130.252 196.543 137.896 196.107 138.7Z" fill="#FBBEBE"/>
<path opacity="0.1" d="M196.261 145.182C196.261 145.182 190.708 146.905 189.867 145.411C189.653 145.032 189.548 144.368 189.511 143.59C190.659 143.415 194.156 142.933 196.049 143.296C196.15 144.362 196.261 145.182 196.261 145.182Z" fill="black"/>
<path d="M196.452 174.13H196.365C195.696 174.155 191.896 174.13 191.896 174.13C191.841 174.071 191.789 174.01 191.74 173.946C191.404 173.525 191.183 173.025 191.096 172.494C191.01 171.963 191.061 171.419 191.246 170.913C191.936 169.036 192.011 165.59 192.011 165.59C192.011 165.59 192.28 164.71 192.05 164.211C191.821 163.713 191.972 162.948 191.972 162.948C191.937 162.645 191.86 162.349 191.743 162.068C191.552 161.608 191.782 160.765 191.782 160.765C191.755 159.948 191.626 159.138 191.398 158.353C191.053 157.358 188.526 145.526 189.14 144.109C189.14 144.109 194.499 143.19 196.53 143.879L196.262 153.069C196.262 153.069 195.304 155.826 196.108 156.554C196.912 157.282 196.147 159.541 196.147 159.541C196.147 159.541 196.032 159.961 196.721 161.379C197.41 162.796 196.721 163.446 196.721 163.446V166.164C196.721 166.164 196.186 168.002 196.797 169.496C197.408 170.989 196.721 174.081 196.452 174.13Z" fill="#3F3D56"/>
<path d="M206.972 138.701C206.621 139.355 206.756 141.621 206.915 143.295C207.016 144.361 207.126 145.182 207.126 145.182C207.126 145.182 201.573 146.905 200.732 145.411C200.519 145.032 200.413 144.368 200.376 143.59C200.261 141.292 200.732 137.981 200.732 137.981C200.732 137.981 200.502 132.89 200.388 132.392C200.326 132.123 200.218 129.559 200.133 127.259C200.061 125.297 200.004 123.523 200.004 123.523L207.586 124.695C207.586 124.695 207.586 128.029 207.491 131.454C207.409 134.776 207.255 138.181 206.972 138.701Z" fill="#FBBEBE"/>
<path opacity="0.1" d="M207.126 145.182C207.126 145.182 201.573 146.905 200.732 145.411C200.518 145.032 200.413 144.368 200.376 143.59C201.525 143.415 205.021 142.933 206.915 143.296C207.016 144.362 207.126 145.182 207.126 145.182Z" fill="black"/>
<path d="M207.317 174.13H207.229C206.561 174.155 202.761 174.13 202.761 174.13C202.705 174.071 202.653 174.01 202.605 173.946C202.269 173.525 202.047 173.025 201.96 172.494C201.874 171.963 201.926 171.418 202.111 170.913C202.8 169.027 202.869 165.581 202.869 165.581C202.869 165.581 203.138 164.701 202.908 164.202C202.678 163.704 202.83 162.939 202.83 162.939C202.794 162.636 202.717 162.34 202.6 162.059C202.409 161.599 202.639 160.756 202.639 160.756C202.613 159.939 202.484 159.129 202.255 158.344C201.911 157.349 199.384 145.517 199.997 144.099C199.997 144.099 205.357 143.18 207.388 143.87L207.119 153.059C207.119 153.059 206.161 155.816 206.965 156.545C207.769 157.273 207.004 159.531 207.004 159.531C207.004 159.531 206.889 159.952 207.579 161.369C208.268 162.787 207.579 163.437 207.579 163.437V166.155C207.579 166.155 207.043 167.993 207.654 169.486C208.266 170.98 207.585 174.081 207.317 174.13Z" fill="#3F3D56"/>
<path opacity="0.1" d="M199.822 77.4866C202.804 77.4866 205.221 75.0693 205.221 72.0875C205.221 69.1057 202.804 66.6885 199.822 66.6885C196.84 66.6885 194.423 69.1057 194.423 72.0875C194.423 75.0693 196.84 77.4866 199.822 77.4866Z" fill="black"/>
<path d="M199.822 77.2571C202.804 77.2571 205.221 74.8398 205.221 71.858C205.221 68.8762 202.804 66.459 199.822 66.459C196.84 66.459 194.423 68.8762 194.423 71.858C194.423 74.8398 196.84 77.2571 199.822 77.2571Z" fill="#FBBEBE"/>
<path opacity="0.1" d="M189.139 128.715L196.72 124.695C196.72 124.695 196.72 125.448 196.707 126.609C195.599 127.27 193.929 128.265 192.323 129.205C191.45 129.717 190.598 130.213 189.867 130.629C189.697 130.721 189.52 130.798 189.336 130.859C189.235 129.85 189.139 128.715 189.139 128.715Z" fill="black"/>
<path opacity="0.1" d="M207.585 124.686C207.585 124.686 207.585 128.019 207.491 131.445H207.463C206.897 131.465 206.33 131.448 205.766 131.392C204.775 131.286 203.983 131.025 203.698 130.505C203.121 129.494 201.506 128.208 200.141 127.25C200.07 125.288 200.013 123.514 200.013 123.514L207.585 124.686Z" fill="black"/>
<path d="M206.175 95.4871C205.983 96.9826 205.946 98.494 206.064 99.9971C209.547 102.869 208.897 108.918 208.897 108.918C208.897 108.918 211.578 121.173 211.004 122.282C210.43 123.392 212.304 130.209 212.304 130.209C210.706 130.512 209.089 130.697 207.464 130.765C206.897 130.785 206.33 130.767 205.766 130.712C204.776 130.606 203.983 130.344 203.698 129.825C202.627 127.95 197.993 125.154 197.993 125.154C197.993 125.154 195.057 126.914 192.323 128.516C191.45 129.028 190.598 129.524 189.867 129.94C189.274 130.254 188.619 130.434 187.949 130.466C184.698 130.707 180.367 128.672 181.056 127.95C181.9 127.068 186.074 111.599 186.074 111.599C186.074 111.599 188.179 102.026 190.017 100.686C190.339 100.443 190.579 100.107 190.706 99.7237C191.335 97.9753 190.283 95.1724 190.283 95.1724C190.283 95.1724 184.349 87.8595 184.615 87.4368C184.882 87.0141 184.884 84.758 184.884 84.758C184.884 84.758 185.612 81.1969 186.033 79.4738C186.453 77.7507 189.479 77.3279 190.359 77.4819C191.239 77.6358 193.228 78.1711 194.069 77.4819C194.91 76.7926 196.33 77.7507 196.33 77.7507L199.818 78.711L202.954 76.873C202.954 76.873 206.097 77.0339 206.365 77.4543C206.634 77.8747 210.77 78.6812 210.77 78.6812C212.874 80.0964 212.798 86.8372 212.798 86.8372C212.798 86.8372 207.744 91.2391 206.71 93.4998C206.442 94.1349 206.262 94.8035 206.175 95.4871Z" fill="#386FA4"/>
<path d="M211.654 85.9043L212.803 86.8233L213.991 97.5065L215.176 108.229C215.176 108.229 215.636 109.302 216.019 109.187C216.403 109.072 216.364 115.542 216.364 115.542C216.364 115.542 211.967 112.838 210.391 116.428L209.164 107.769C209.164 107.769 207.592 98.924 207.631 98.2348C207.67 97.5456 206.827 90.0788 206.827 90.0788L211.654 85.9043Z" fill="#386FA4"/>
<path d="M185.463 86.4028L184.62 87.4367C184.62 87.4367 184.698 91.8777 184.045 92.9506C183.393 94.0235 185.847 100.303 186.766 99.9188C187.685 99.5352 189.752 89.7342 189.752 89.6193C189.752 89.5044 185.463 86.4028 185.463 86.4028Z" fill="#386FA4"/>
<path d="M185.388 92.7212C185.388 92.7212 182.707 95.4391 182.897 96.7418C183.088 98.0444 185.654 102.136 189.33 99.9375C189.33 99.9375 192.74 93.5253 185.388 92.7212Z" fill="#386FA4"/>
<path opacity="0.1" d="M196.365 174.137C195.696 174.162 191.896 174.137 191.896 174.137C191.841 174.079 191.789 174.017 191.74 173.953C192.712 173.622 194.812 173.126 196.365 174.137Z" fill="black"/>
<path opacity="0.1" d="M207.234 174.137C206.566 174.162 202.766 174.137 202.766 174.137C202.71 174.079 202.658 174.017 202.609 173.953C203.577 173.622 205.676 173.126 207.234 174.137Z" fill="black"/>
<path opacity="0.1" d="M192.595 106.791C192.009 112.411 192.202 123.563 192.323 128.516C191.45 129.028 190.598 129.524 189.867 129.94C189.274 130.255 188.619 130.434 187.949 130.466C187.706 128.968 191.078 113.582 192.595 106.791Z" fill="black"/>
<path opacity="0.1" d="M193.311 103.602C193.294 103.682 193.016 104.905 192.594 106.791C192.759 105.18 192.989 104.025 193.311 103.602Z" fill="black"/>
<path opacity="0.1" d="M202.639 102.995C202.639 102.995 205.894 123.443 196.254 125.97C196.252 125.961 202.923 124.947 202.639 102.995Z" fill="black"/>
<path opacity="0.1" d="M207.464 130.765C206.897 130.785 206.33 130.767 205.766 130.712L203.165 102.754C204.824 103.838 206.809 123.679 207.464 130.765Z" fill="black"/>
<path opacity="0.1" d="M195.802 68.6825C195.974 68.6688 196.148 68.6867 196.314 68.7354C196.558 68.8569 196.777 69.022 196.962 69.2224C197.261 69.4728 197.62 69.6431 198.003 69.7175C198.386 69.7918 198.782 69.7677 199.154 69.6475C199.416 69.5304 199.694 69.4529 199.978 69.4177C200.417 69.4177 200.796 69.7394 201.024 70.107C201.251 70.4746 201.368 70.9111 201.564 71.3039C201.759 71.6968 202.071 72.069 202.501 72.1655C202.707 72.1735 202.91 72.2203 203.098 72.3033C203.214 72.3973 203.303 72.5201 203.356 72.6594C203.714 73.4337 203.999 74.3481 204.764 74.7272C205.045 74.8576 205.352 74.9243 205.662 74.9224C205.978 74.9456 206.294 74.8887 206.581 74.757C206.864 74.5991 207.098 74.3661 207.257 74.0839C207.735 73.2935 207.79 72.3148 207.677 71.3981C207.537 70.2417 207.125 69.1349 206.476 68.1679C205.791 67.1899 204.86 66.4111 203.776 65.911C202.692 65.4109 201.495 65.2074 200.307 65.3213C199.892 65.368 199.481 65.4448 199.078 65.5511C197.617 65.9416 196.183 66.6722 195.296 67.8968C195.082 68.2025 194.846 68.4927 194.591 68.7652C194.993 68.7262 195.397 68.6917 195.802 68.6825Z" fill="black"/>
<path d="M195.802 68.453C195.974 68.4393 196.148 68.4572 196.314 68.5059C196.558 68.6274 196.777 68.7925 196.962 68.9929C197.261 69.2433 197.62 69.4136 198.003 69.488C198.386 69.5623 198.782 69.5382 199.154 69.418C199.416 69.3009 199.694 69.2234 199.978 69.1882C200.417 69.1882 200.796 69.5099 201.024 69.8775C201.251 70.2451 201.368 70.6816 201.564 71.0744C201.759 71.4673 202.071 71.8395 202.501 71.936C202.707 71.944 202.91 71.9908 203.098 72.0738C203.214 72.1678 203.303 72.2906 203.356 72.4299C203.714 73.2042 203.999 74.1186 204.764 74.4977C205.045 74.6281 205.352 74.6948 205.662 74.693C205.978 74.7161 206.294 74.6592 206.581 74.5275C206.864 74.3696 207.098 74.1367 207.257 73.8544C207.735 73.0641 207.79 72.0853 207.677 71.1686C207.537 70.0122 207.125 68.9054 206.476 67.9384C205.791 66.9604 204.86 66.1816 203.776 65.6815C202.692 65.1814 201.495 64.9779 200.307 65.0918C199.892 65.1385 199.481 65.2153 199.078 65.3216C197.617 65.7122 196.183 66.4428 195.296 67.6673C195.082 67.973 194.846 68.2632 194.591 68.5357C194.993 68.4967 195.397 68.4622 195.802 68.453Z" fill="#3F3D56"/>
<path opacity="0.1" d="M189.944 81.3096C189.944 81.3096 190.213 83.4554 189.294 83.9907C188.375 84.526 189.944 81.3096 189.944 81.3096Z" fill="black"/>
<path opacity="0.1" d="M209.433 97.9294C209.433 97.9294 211.615 94.7129 211.923 95.6319C212.231 96.5509 209.433 97.9294 209.433 97.9294Z" fill="black"/>
<path opacity="0.1" d="M209.587 99C209.587 99 211.74 96.3579 211.946 97.3918C212.153 98.4256 209.587 99 209.587 99Z" fill="black"/>
<path opacity="0.1" d="M203.264 95.8548C202.483 95.8658 201.722 95.6151 201.1 95.1426H200.912C200.267 95.7315 199.42 96.0498 198.547 96.0317C198.094 96.0422 197.642 95.9605 197.221 95.7915C196.8 95.6224 196.417 95.3696 196.096 95.0484H195.846C195.184 95.5871 194.353 95.8741 193.5 95.8585C192.648 95.843 191.828 95.5258 191.186 94.9633L190.288 94.9473C190.288 94.9473 191.34 97.7502 190.711 99.4985L206.065 99.7719C205.946 98.2689 205.983 96.7575 206.175 95.262V95.2413L205.332 95.2253C204.725 95.6459 204.002 95.8661 203.264 95.8548Z" fill="black"/>
<path opacity="0.1" d="M203.264 96.3142C202.483 96.3253 201.722 96.0745 201.1 95.602H200.912C200.267 96.1909 199.42 96.5093 198.547 96.4911C198.094 96.5017 197.642 96.42 197.221 96.2509C196.8 96.0819 196.417 95.8291 196.096 95.5078H195.846C195.184 96.0465 194.353 96.3336 193.5 96.318C192.648 96.3025 191.828 95.9853 191.186 95.4228L190.288 95.4067C190.288 95.4067 191.34 98.2096 190.711 99.958L206.065 100.231C205.946 98.7283 205.983 97.217 206.175 95.7215V95.7008L205.332 95.6847C204.725 96.1054 204.002 96.3255 203.264 96.3142Z" fill="black"/>
<path d="M203.264 96.0847C202.483 96.0958 201.722 95.8451 201.1 95.3725H200.912C200.267 95.9615 199.42 96.2798 198.547 96.2617C198.094 96.2722 197.642 96.1905 197.221 96.0214C196.8 95.8524 196.417 95.5996 196.096 95.2783H195.846C195.184 95.8171 194.353 96.1041 193.5 96.0885C192.648 96.073 191.828 95.7558 191.186 95.1933L190.288 95.1772C190.288 95.1772 191.34 97.9802 190.711 99.7285L206.065 100.002C205.946 98.4988 205.983 96.9875 206.175 95.492V95.4713L205.332 95.4552C204.725 95.8759 204.002 96.096 203.264 96.0847Z" fill="#3F3D56"/>
<path opacity="0.1" d="M202.582 80.7651C202.582 80.7651 205.815 80.9719 205.835 81.4314C205.856 81.8909 202.582 80.7651 202.582 80.7651Z" fill="black"/>
<path opacity="0.1" d="M194.729 78.8052C194.729 78.8052 191.496 79.012 191.476 79.4714C191.455 79.9309 194.729 78.8052 194.729 78.8052Z" fill="black"/>
<path opacity="0.1" d="M207.082 88.1997C207.05 88.1767 207.018 88.1584 206.986 88.1377C207.813 88.8821 207.675 90.5087 206.659 91.8504C205.644 93.1921 204.102 93.7504 203.165 93.1485C203.195 93.1737 203.22 93.2013 203.252 93.2266C204.171 93.9296 205.78 93.3782 206.841 91.9905C207.902 90.6029 208.006 88.905 207.082 88.1997Z" fill="black"/>
<path opacity="0.1" d="M189.325 91.6779C188.507 90.203 188.613 88.5741 189.539 87.9561C189.504 87.9721 189.468 87.9859 189.433 88.0043C188.418 88.5695 188.284 90.2627 189.125 91.7882C189.966 93.3137 191.482 94.0857 192.498 93.5297C192.531 93.5104 192.564 93.4889 192.594 93.4654C191.581 93.9249 190.143 93.1529 189.325 91.6779Z" fill="black"/>
<path opacity="0.1" d="M190.418 79.2397L190.122 79.6992L189.366 79.2972L189.764 78.686C190.027 78.8103 190.252 79.0012 190.418 79.2397Z" fill="black"/>
<path d="M185.616 96.2433C185.616 96.2433 186.29 93.0774 185.387 92.0711C184.484 91.0648 184.773 85.7898 186.152 85.9047C187.53 86.0196 189.598 90.1918 189.253 91.074C188.909 91.9562 187.606 96.473 187.606 96.473L185.616 96.2433Z" fill="#FBBEBE"/>
<path opacity="0.1" d="M207.234 73.4016C207.075 73.6839 206.841 73.9168 206.558 74.0748C206.271 74.2064 205.955 74.2634 205.639 74.2402C205.329 74.242 205.022 74.1753 204.741 74.0449C203.976 73.6635 203.691 72.7491 203.333 71.9772C203.287 71.8379 203.207 71.7129 203.098 71.6142C202.912 71.5296 202.712 71.4805 202.508 71.4695C202.078 71.373 201.768 70.9985 201.57 70.6079C201.373 70.2173 201.256 69.7854 201.031 69.4109C200.805 69.0364 200.424 68.7079 199.985 68.7217C199.7 68.7595 199.421 68.8409 199.16 68.9629C198.789 69.0822 198.393 69.1056 198.01 69.0309C197.626 68.9562 197.268 68.7858 196.969 68.5356C196.784 68.3351 196.565 68.17 196.321 68.0485C196.155 67.9999 195.981 67.982 195.808 67.9957C195.544 67.9957 195.282 68.021 195.018 68.0416C194.887 68.2132 194.747 68.3774 194.598 68.5333C195 68.4988 195.404 68.4644 195.808 68.4552C195.981 68.4415 196.155 68.4594 196.321 68.508C196.565 68.6295 196.784 68.7946 196.969 68.9951C197.268 69.2453 197.626 69.4157 198.01 69.4904C198.393 69.5651 198.789 69.5417 199.16 69.4224C199.421 69.3004 199.7 69.219 199.985 69.1812C200.424 69.1812 200.803 69.5028 201.031 69.8704C201.258 70.238 201.375 70.6745 201.57 71.0674C201.766 71.4603 202.078 71.8325 202.508 71.9289C202.712 71.94 202.912 71.9891 203.098 72.0737C203.214 72.1676 203.303 72.2905 203.356 72.4298C203.714 73.204 203.999 74.1184 204.764 74.4975C205.045 74.6279 205.352 74.6946 205.662 74.6928C205.978 74.716 206.294 74.6591 206.581 74.5274C206.864 74.3694 207.098 74.1365 207.257 73.8542C207.613 73.2048 207.773 72.4655 207.716 71.7268C207.699 72.3167 207.533 72.8928 207.234 73.4016Z" fill="black"/>
<path d="M186.635 98.7541C187.777 98.7541 188.703 98.1266 188.703 97.3526C188.703 96.5786 187.777 95.9512 186.635 95.9512C185.493 95.9512 184.567 96.5786 184.567 97.3526C184.567 98.1266 185.493 98.7541 186.635 98.7541Z" fill="#386FA4"/>
<path d="M119.236 175.363C158.381 175.363 190.113 143.631 190.113 104.486C190.113 65.342 158.381 33.6094 119.236 33.6094C80.092 33.6094 48.3594 65.342 48.3594 104.486C48.3594 143.631 80.092 175.363 119.236 175.363Z" fill="#C92828"/>
<path d="M156.425 140.104C156.425 151.293 138.836 141.06 119.978 141.06C101.12 141.06 82.0469 150.87 82.0469 139.681C82.0469 133.301 88.126 124.429 96.8472 117.984C103.418 113.127 111.487 109.649 119.592 109.649C127.927 109.649 136.093 113.414 142.606 118.584C150.826 125.102 156.425 133.86 156.425 140.104Z" fill="#444053"/>
<path d="M142.604 118.579C132.58 117.07 114.451 115.23 96.8477 117.98C103.418 113.123 111.487 109.645 119.593 109.645C127.926 109.645 136.091 113.41 142.604 118.579Z" fill="#F6F8FB"/>
<path opacity="0.05" d="M82.0469 54.4546C82.0469 54.4546 60.6966 68.1038 60.8712 89.4542C61.0458 110.805 82.0469 54.4546 82.0469 54.4546Z" fill="black"/>
<path d="M190.086 15.9054C190.086 15.9054 170.742 14.7406 173.023 28.2957C173.023 28.2957 172.563 30.6896 174.741 31.7786C174.741 31.7786 174.776 30.7746 176.724 31.1147C177.418 31.2308 178.124 31.2648 178.826 31.2158C179.775 31.1512 180.677 30.7785 181.395 30.1543C181.395 30.1543 186.833 27.9097 188.949 19.0208C188.949 19.0208 190.514 17.0817 190.452 16.5855L187.187 17.9777C187.187 17.9777 188.301 20.3326 187.417 22.2901C187.417 22.2901 187.311 18.065 186.684 18.1546C186.557 18.1753 184.988 18.9702 184.988 18.9702C184.988 18.9702 186.907 23.0735 185.448 26.0533C185.448 26.0533 185.997 20.9989 184.377 19.2666L182.08 20.6083C182.08 20.6083 184.322 24.8449 182.801 28.3026C182.801 28.3026 183.192 23 181.597 20.9346L179.513 22.5589C179.513 22.5589 181.62 26.7357 180.336 29.6029C180.336 29.6029 180.168 23.4296 179.063 22.9632C179.063 22.9632 177.241 24.5715 176.963 25.2309C176.963 25.2309 178.406 28.2612 177.512 29.8602C177.512 29.8602 176.963 25.7478 176.513 25.7248C176.513 25.7248 174.698 28.4496 174.507 30.3197C174.507 30.3197 174.588 27.5398 176.072 25.4652C176.072 25.4652 174.316 25.7662 173.294 26.9057C173.294 26.9057 173.577 24.9781 176.511 24.8104C176.511 24.8104 178.011 22.7427 178.413 22.6186C178.413 22.6186 175.484 22.3728 173.708 23.1608C173.708 23.1608 175.27 21.3435 178.948 22.1683L181.016 20.4912C181.016 20.4912 177.161 19.9628 175.525 20.5463C175.525 20.5463 177.407 18.9381 181.57 20.1098L183.81 18.7704C183.81 18.7704 180.522 18.0627 178.562 18.3109C178.562 18.3109 180.63 17.1966 184.464 18.4051L186.073 17.686C186.073 17.686 183.663 17.2127 182.957 17.1392C182.252 17.0656 182.215 16.8681 182.215 16.8681C183.746 16.6192 185.315 16.8014 186.748 17.3942C186.748 17.3942 190.144 16.1191 190.086 15.9054Z" fill="#C92828"/>
<path d="M170.244 9.87912C170.244 9.87912 161.514 9.3507 162.534 15.4758C162.534 15.4758 162.33 16.5579 163.311 17.0495C163.311 17.0495 163.324 16.59 164.207 16.7508C164.52 16.8024 164.838 16.8179 165.155 16.7968C165.585 16.7662 165.992 16.5978 166.318 16.3166C166.318 16.3166 168.774 15.3011 169.73 11.2852C169.73 11.2852 170.437 10.4098 170.419 10.1847L168.944 10.8142C168.944 10.8142 169.449 11.8779 169.052 12.7624C169.052 12.7624 169.004 10.8532 168.721 10.8992C168.664 10.8992 167.954 11.2668 167.954 11.2668C167.954 11.2668 168.822 13.1208 168.167 14.4672C168.167 14.4672 168.416 12.1835 167.685 11.4L166.647 12.0066C166.647 12.0066 167.66 13.9227 166.973 15.4849C166.973 15.4849 167.147 13.0887 166.428 12.1559L165.486 12.8888C165.486 12.8888 166.437 14.775 165.859 16.0708C165.859 16.0708 165.783 13.2817 165.282 13.0703C165.282 13.0703 164.459 13.7963 164.333 14.095C164.333 14.095 164.985 15.4735 164.581 16.188C164.581 16.188 164.333 14.3293 164.122 14.3224C164.122 14.3224 163.301 15.5516 163.216 16.3901C163.256 15.6097 163.499 14.8533 163.922 14.1961C163.449 14.2855 163.013 14.5115 162.667 14.8462C162.667 14.8462 162.794 13.9755 164.124 13.8997C164.124 13.8997 164.802 12.9669 164.983 12.9095C164.983 12.9095 163.66 12.7992 162.858 13.1553C162.858 13.1553 163.563 12.3328 165.227 12.6958L166.146 11.9399C166.146 11.9399 164.404 11.7102 163.664 11.9629C163.664 11.9629 164.514 11.2369 166.396 11.7676L167.407 11.1611C167.407 11.1611 165.923 10.8418 165.036 10.9566C165.036 10.9566 165.971 10.4535 167.703 11.0003L168.427 10.674C168.427 10.674 167.338 10.4604 167.021 10.4282C166.704 10.396 166.683 10.3064 166.683 10.3064C167.373 10.1917 168.081 10.2713 168.728 10.5362C168.728 10.5362 170.27 9.97561 170.244 9.87912Z" fill="#C92828"/>
<path opacity="0.1" d="M246.54 167.717C249.957 167.717 252.727 167.249 252.727 166.672C252.727 166.094 249.957 165.626 246.54 165.626C243.123 165.626 240.353 166.094 240.353 166.672C240.353 167.249 243.123 167.717 246.54 167.717Z" fill="#C92828"/>
<path opacity="0.1" d="M10.7457 185.107C14.1627 185.107 16.9328 184.639 16.9328 184.061C16.9328 183.484 14.1627 183.016 10.7457 183.016C7.32864 183.016 4.55859 183.484 4.55859 184.061C4.55859 184.639 7.32864 185.107 10.7457 185.107Z" fill="#C92828"/>
<path opacity="0.1" d="M46.6617 186.419C50.0787 186.419 52.8488 185.951 52.8488 185.373C52.8488 184.796 50.0787 184.328 46.6617 184.328C43.2447 184.328 40.4746 184.796 40.4746 185.373C40.4746 185.951 43.2447 186.419 46.6617 186.419Z" fill="#C92828"/>
<path d="M232.998 179.437C238.1 179.437 242.236 178.737 242.236 177.874C242.236 177.011 238.1 176.312 232.998 176.312C227.896 176.312 223.76 177.011 223.76 177.874C223.76 178.737 227.896 179.437 232.998 179.437Z" fill="#C92828"/>
<path d="M236.816 175.322C237.238 174.978 237.546 174.514 237.699 173.992C237.811 173.466 237.586 172.832 237.083 172.639C236.518 172.423 235.913 172.816 235.456 173.211C234.999 173.606 234.473 174.056 233.873 173.973C234.182 173.694 234.412 173.34 234.543 172.945C234.673 172.55 234.699 172.128 234.618 171.72C234.592 171.551 234.52 171.392 234.411 171.26C234.096 170.925 233.529 171.067 233.152 171.331C231.957 172.172 231.624 173.794 231.617 175.255C231.498 174.729 231.599 174.18 231.597 173.647C231.594 173.114 231.445 172.498 230.99 172.216C230.708 172.065 230.391 171.991 230.071 172C229.533 171.979 228.936 172.032 228.568 172.425C228.109 172.914 228.231 173.732 228.628 174.263C229.026 174.794 229.628 175.138 230.181 175.508C230.627 175.773 231.007 176.135 231.293 176.567C231.327 176.628 231.354 176.692 231.376 176.758H234.742C235.495 176.375 236.193 175.892 236.816 175.322Z" fill="#C92828"/>
<path d="M13.6331 156.058C13.6331 156.058 14.8944 157.707 13.0496 160.193C11.2047 162.679 9.68378 164.788 10.2926 166.341C10.2926 166.341 13.0748 161.714 15.347 161.647C17.6192 161.581 16.1236 158.84 13.6331 156.058Z" fill="#C92828"/>
<path opacity="0.1" d="M13.633 156.058C13.7425 156.217 13.8292 156.391 13.8903 156.575C16.1005 159.171 17.2768 161.595 15.1539 161.654C13.1735 161.712 10.7888 165.25 10.2305 166.144C10.25 166.213 10.273 166.281 10.2994 166.348C10.2994 166.348 13.0816 161.721 15.3538 161.654C17.626 161.588 16.1235 158.84 13.633 156.058Z" fill="black"/>
<path d="M15.9793 158.16C15.9793 158.741 15.9127 159.212 15.8322 159.212C15.7518 159.212 15.6875 158.753 15.6875 158.16C15.6875 157.567 15.7679 157.852 15.8506 157.852C15.9333 157.852 15.9793 157.579 15.9793 158.16Z" fill="#FFD037"/>
<path d="M16.7736 158.854C16.2635 159.132 15.8201 159.299 15.7811 159.228C15.742 159.157 16.1257 158.877 16.6357 158.599C17.1458 158.321 16.9436 158.523 16.9826 158.599C17.0217 158.675 17.2928 158.576 16.7736 158.854Z" fill="#FFD037"/>
<path d="M6.96615 156.058C6.96615 156.058 5.70483 157.707 7.5474 160.193C9.38997 162.679 10.9132 164.788 10.3044 166.341C10.3044 166.341 7.51983 161.714 5.24994 161.647C2.98004 161.581 4.47339 158.84 6.96615 156.058Z" fill="#C92828"/>
<path opacity="0.1" d="M6.96655 156.058C6.85601 156.216 6.76932 156.391 6.70923 156.575C4.49907 159.171 3.32046 161.595 5.44562 161.654C7.42374 161.712 9.81081 165.25 10.3668 166.144C10.3481 166.213 10.3258 166.281 10.3002 166.348C10.3002 166.348 7.51564 161.721 5.24574 161.654C2.97584 161.588 4.47379 158.84 6.96655 156.058Z" fill="black"/>
<path d="M4.62012 158.16C4.62012 158.741 4.68445 159.212 4.76486 159.212C4.84527 159.212 4.9096 158.753 4.9096 158.16C4.9096 157.567 4.82919 157.852 4.74878 157.852C4.66837 157.852 4.62012 157.579 4.62012 158.16Z" fill="#FFD037"/>
<path d="M3.81391 158.854C4.32395 159.132 4.76966 159.299 4.80871 159.228C4.84777 159.157 4.46409 158.877 3.95406 158.599C3.44402 158.321 3.6439 158.523 3.60714 158.599C3.57038 158.675 3.30387 158.576 3.81391 158.854Z" fill="#FFD037"/>
<path d="M5.02246 166.132C5.02246 166.132 8.55137 166.024 9.6174 165.266C10.6834 164.508 15.0463 163.605 15.3105 164.806C15.5747 166.008 20.6131 170.849 16.6293 170.881C12.6455 170.913 7.37277 170.258 6.31134 169.613C5.24991 168.967 5.02246 166.132 5.02246 166.132Z" fill="#A8A8A8"/>
<path opacity="0.2" d="M16.6959 170.47C12.7121 170.502 7.4394 169.847 6.37797 169.201C5.56926 168.71 5.24761 166.943 5.13963 166.127H5.02246C5.02246 166.127 5.25221 168.974 6.30675 169.62C7.36128 170.265 12.6409 170.92 16.6247 170.888C17.7734 170.888 18.1709 170.467 18.1502 169.863C17.9894 170.233 17.5529 170.463 16.6959 170.47Z" fill="black"/>
<path d="M94.0379 95.1934C95.3865 95.1176 101.734 94.6397 105.766 92.34C106.414 91.959 107.146 91.7436 107.896 91.7128C109.178 91.676 110.653 92.2113 109.709 95.2072C108.179 100.108 99.2945 105.622 93.7806 105.316C88.478 105.022 82.1875 102.885 78.0337 95.3726C77.6357 94.6498 77.4397 93.8332 77.4662 93.0085C77.5145 91.4922 78.0659 89.5922 80.9124 91.7105C84.7584 94.5708 92.0552 95.113 93.5187 95.1934C93.6916 95.2027 93.8649 95.2027 94.0379 95.1934Z" fill="#444053"/>
<path d="M145.042 95.1934C146.39 95.1176 152.738 94.6397 156.77 92.34C157.418 91.959 158.149 91.7436 158.9 91.7128C160.182 91.676 161.657 92.2113 160.713 95.2072C159.183 100.108 150.298 105.622 144.784 105.316C139.482 105.022 133.191 102.885 129.038 95.3726C128.64 94.6498 128.444 93.8332 128.47 93.0085C128.518 91.4922 129.07 89.5922 131.916 91.7105C135.762 94.5708 143.059 95.113 144.523 95.1934C144.696 95.2027 144.869 95.2027 145.042 95.1934Z" fill="#444053"/>
</g>
<defs>
<linearGradient id="paint0_linear_896_12196" x1="204.966" y1="174.146" x2="204.966" y2="60.6418" gradientUnits="userSpaceOnUse">
<stop stop-color="#808080" stop-opacity="0.25"/>
<stop offset="0.54" stop-color="#808080" stop-opacity="0.12"/>
<stop offset="1" stop-color="#808080" stop-opacity="0.1"/>
</linearGradient>
<clipPath id="clip0_896_12196">
<rect width="252.726" height="186.419" fill="white"/>
</clipPath>
</defs>
</svg>
