<svg width="218" height="157" viewBox="0 0 218 157" fill="none" xmlns="http://www.w3.org/2000/svg">
<g clip-path="url(#clip0_192_5990)">
<g opacity="0.5">
<path d="M214.73 73.0654H193.714C192.164 73.0654 190.908 74.3216 190.908 75.8713V96.8873C190.908 98.4369 192.164 99.6931 193.714 99.6931H214.73C216.28 99.6931 217.536 98.4369 217.536 96.8873V75.8713C217.536 74.3216 216.28 73.0654 214.73 73.0654Z" fill="#D0D2D5"/>
<path opacity="0.1" d="M200.447 80.718H207.998C207.998 80.718 214.357 86.282 207.998 92.0447H200.447C200.447 92.0447 194.088 86.8782 200.447 80.718Z" fill="black"/>
<path d="M202.235 83.8953H201.241V86.876H202.235V83.8953Z" fill="#3F3D56"/>
<path d="M207.203 83.4983H206.209V87.0751H207.203V83.4983Z" fill="#3F3D56"/>
<path d="M204.224 88.6646C204.54 88.6646 204.843 88.7902 205.067 89.0138C205.29 89.2374 205.416 89.5406 205.416 89.8568V90.8504H203.031V89.8568C203.031 89.5406 203.157 89.2374 203.38 89.0138C203.604 88.7902 203.907 88.6646 204.224 88.6646Z" fill="#3F3D56"/>
</g>
<path d="M123.554 47.3854C124.184 47.3715 124.812 47.4192 125.44 47.3854C126.014 47.3576 126.584 47.2642 127.159 47.2066C128.14 47.1092 129.13 47.1172 130.116 47.0754C130.763 47.0476 131.447 46.984 131.972 46.6025C132.464 46.2468 132.739 45.6666 133.178 45.2453C134.966 43.5264 136.192 41.2273 137.782 39.3196C138.179 38.8348 138.595 38.3519 138.954 37.8332C139.644 36.8397 140.131 35.713 140.616 34.6002C140.807 34.1876 140.966 33.7611 141.093 33.3244C141.182 32.9747 141.228 32.613 141.347 32.2712C141.593 31.5718 142.185 30.9597 142.257 30.2225L142.174 30.2344C142.897 29.3144 142.786 27.7107 143.143 26.5324C143.372 25.8325 143.649 25.1492 143.972 24.4876L145.301 21.5923C145.53 21.0955 145.768 20.5828 146.164 20.2013C146.643 19.7383 147.31 19.5078 147.791 19.0468C148.077 18.7629 148.291 18.4148 148.415 18.0314L148.457 18.0711C148.711 18.3195 148.91 18.6235 149.158 18.8799C149.693 19.4323 150.434 19.7482 150.979 20.2907C151.257 20.567 151.485 20.9028 151.821 21.1035C151.993 21.1972 152.189 21.2347 152.383 21.2108C152.577 21.1869 152.758 21.1028 152.902 20.9703C153.878 20.1119 155.332 20.0324 156.388 19.2753C156.68 19.0647 156.934 18.8083 157.208 18.5778C157.863 18.0561 158.574 17.6095 159.329 17.2464C159.771 17.2536 160.211 17.3164 160.638 17.4332C161.25 17.6021 161.848 17.8823 162.484 17.8704C163.052 17.8424 163.596 17.6335 164.036 17.2743C164.36 17.0239 164.656 16.6781 164.704 16.2807C164.716 16.0767 164.679 15.8728 164.596 15.686C164.513 15.4993 164.386 15.3352 164.227 15.2076C164.183 15.1699 164.137 15.1361 164.092 15.1023C164.078 14.924 164.029 14.7502 163.947 14.5914C163.864 14.4326 163.751 14.2921 163.613 14.1783C163.291 13.9262 162.923 13.7386 162.53 13.6259C162.311 13.5399 162.081 13.4877 161.846 13.4709C161.481 13.4908 161.122 13.5748 160.785 13.7193C160.109 13.937 159.411 14.0836 158.705 14.1564C158.579 14.1684 158.325 14.1425 158.108 14.1405L158.035 13.9299C157.208 14.3114 156.246 13.9975 155.34 13.9994C154.899 13.9994 154.46 14.0769 154.021 14.1048C153.534 14.124 153.047 14.1134 152.562 14.073L151.094 13.9796C150.467 13.9473 149.842 13.881 149.222 13.7809C149.057 13.445 148.892 13.1092 148.707 12.7873C148.396 12.2462 148.03 11.7382 147.616 11.2711C147.783 11.1278 147.958 10.9951 148.141 10.8737L148.177 10.8518C148.222 10.826 148.278 10.7982 148.34 10.7703C148.913 11.0429 149.546 11.166 150.179 11.1283C150.813 11.0905 151.426 10.893 151.963 10.5543C152.5 10.2155 152.942 9.74648 153.249 9.19082C153.555 8.63517 153.716 8.01095 153.717 7.3763C153.826 7.33442 153.932 7.28598 154.035 7.23124C154.094 7.19944 154.154 7.16566 154.212 7.1279L154.297 7.07028C154.351 7.02913 154.403 6.98466 154.452 6.93714C154.476 6.91329 154.5 6.88945 154.522 6.86362C154.565 6.81215 154.603 6.7562 154.635 6.69669C154.647 6.67285 154.659 6.65099 154.669 6.62714C154.679 6.6033 154.669 6.60926 154.679 6.59932C154.689 6.58939 154.693 6.56356 154.699 6.54766C154.704 6.53176 154.698 6.52381 154.708 6.51189L154.72 6.4642C154.721 6.45163 154.721 6.43901 154.72 6.42644C154.72 6.41055 154.72 6.39465 154.72 6.38074V6.33901C154.719 6.32445 154.719 6.30985 154.72 6.29529C154.721 6.28073 154.721 6.26613 154.72 6.25157C154.72 6.23766 154.72 6.22177 154.72 6.20786C154.721 6.1933 154.721 6.1787 154.72 6.16414V6.11049C154.721 6.09527 154.721 6.08 154.72 6.06478C154.72 6.05087 154.72 6.03696 154.72 6.02305V5.97536V5.93562C154.72 5.91773 154.72 5.89985 154.72 5.88395C154.721 5.87205 154.721 5.86009 154.72 5.84818C154.721 5.82965 154.721 5.81107 154.72 5.79254C154.72 5.78062 154.72 5.77069 154.72 5.76075C154.72 5.75081 154.72 5.72101 154.706 5.70114V5.67332L154.689 5.60973V5.58588C154.689 5.56402 154.675 5.54216 154.669 5.52031V5.50043L154.645 5.4289V5.41698C154.645 5.38319 154.623 5.34742 154.611 5.31364C154.462 4.88442 154.301 4.45718 154.13 4.03591C154.006 3.68338 153.818 3.35623 153.578 3.07016C153.226 2.69658 152.721 2.50978 152.3 2.21171C151.803 1.86198 151.432 1.36718 151.01 0.926031C150.589 0.484886 150.078 0.0854695 149.472 0.0119452C148.991 -0.0161276 148.51 0.071783 148.069 0.268287C144.419 1.61557 141.43 4.27039 138.158 6.37676C136.884 7.19745 135.457 7.96648 133.949 7.86116L135.28 9.97548C135.344 10.0788 135.409 10.1742 135.479 10.2815C135.548 10.3888 135.618 10.4802 135.691 10.5796C135.879 10.8371 136.116 11.0546 136.389 11.2194C136.458 11.2594 136.529 11.294 136.604 11.3228C136.669 11.3472 136.735 11.3678 136.802 11.3844C137.277 11.4976 137.796 11.4022 138.277 11.3069C138.442 11.2751 138.607 11.2413 138.77 11.2035L138.968 11.1479H139C139 11.1598 139 11.1698 139 11.1797C138.889 11.3784 138.783 11.5592 138.69 11.756C138.383 12.4681 138.146 13.208 137.981 13.9657C137.605 15.456 137.228 16.9782 137.327 18.5083C137.361 19.0249 137.448 19.5535 137.299 20.0503C137.228 20.2947 137.1 20.5451 137.168 20.7875C137.239 20.9275 137.3 21.0723 137.351 21.2207C137.383 21.4512 137.2 21.6499 137.069 21.8407C136.937 22.0315 136.87 22.3355 137.057 22.4686C136.868 22.5349 136.701 22.6529 136.575 22.8092C136.45 22.9656 136.371 23.1539 136.347 23.3529C136.351 23.4699 136.328 23.5863 136.28 23.6927C136.224 23.7647 136.157 23.8271 136.081 23.8775C135.879 24.0468 135.747 24.2845 135.709 24.5452C135.326 24.5452 135.002 24.9188 134.652 25.1414C134.346 25.2963 134.023 25.4137 133.688 25.4911C132.729 25.7971 131.9 26.427 131.151 27.0907C130.734 27.4544 130.312 27.8558 130.129 28.3764C130.07 28.5473 130.038 28.7262 129.986 28.899C129.879 29.2338 129.724 29.5511 129.525 29.841C129.144 30.4274 128.675 30.9515 128.134 31.3949C127.861 31.6152 127.62 31.8735 127.419 32.1619C127.115 32.6011 126.497 32.7322 126.171 33.1555C126.054 33.364 125.921 33.5633 125.774 33.7516C125.521 33.9901 125.14 34.01 124.818 34.1491C124.065 34.4611 123.717 35.3414 123.045 35.8064C123.008 35.8377 122.961 35.8533 122.912 35.8501C122.855 35.8501 122.821 35.7805 122.771 35.7467C122.674 35.6812 122.545 35.7308 122.429 35.7607C122.314 35.7905 122.159 35.7785 122.129 35.6633C120.51 34.6816 118.918 33.6165 117.296 32.6349L116.557 32.1878L112.603 29.7913C112.556 29.762 112.502 29.7465 112.447 29.7465C112.392 29.7465 112.338 29.762 112.291 29.7913L112.168 29.8767C111.969 29.6661 111.748 29.4793 111.617 29.3243C111.564 29.2627 111.51 29.2011 111.454 29.1415C111.49 29.1428 111.526 29.136 111.56 29.1216C111.604 29.0975 111.638 29.0574 111.653 29.0094C111.669 28.9614 111.666 28.9091 111.645 28.8633C111.603 28.7727 111.54 28.6931 111.462 28.6308C111.289 28.4632 111.131 28.2818 110.987 28.0883C110.833 27.8459 110.658 27.6172 110.465 27.4047C110.367 27.2984 110.247 27.2155 110.112 27.1621C109.978 27.1088 109.834 27.0864 109.69 27.0967C109.53 27.1273 109.377 27.1887 109.241 27.2775C108.697 27.5933 108.196 27.9773 107.75 28.4201C107.731 28.4342 107.714 28.4527 107.703 28.4741C107.692 28.4954 107.685 28.5191 107.685 28.5433C107.685 28.5831 107.724 28.6129 107.728 28.6507C107.729 28.6875 107.716 28.7232 107.691 28.75C107.423 29.082 107.106 29.3708 106.751 29.6065C106.246 29.984 105.753 30.3762 105.27 30.7829C104.968 30.9974 104.73 31.2891 104.579 31.6274C104.474 32.0198 104.517 32.4372 104.7 32.7998C105.03 33.5768 105.608 34.2206 106.18 34.8426C106.274 34.9706 106.408 35.0642 106.56 35.1089C106.681 35.1255 106.804 35.0957 106.904 35.0254C107.255 34.7949 107.313 34.318 107.339 33.9007C107.349 33.702 107.361 33.5191 107.373 33.3284C107.372 33.2901 107.379 33.2522 107.395 33.2171C107.425 33.1738 107.467 33.14 107.516 33.1197L108.062 32.8316C108.046 32.8058 108.028 32.7799 108.011 32.7541C108.423 32.5995 108.872 32.5704 109.3 32.6706C109.59 32.7561 109.857 32.929 110.135 33.0363C110.091 33.4071 110.16 33.7827 110.334 34.1133C111.353 34.2186 112.271 34.6717 113.183 35.1287C113.918 35.4931 114.634 35.8971 115.325 36.3389C115.887 36.7045 116.437 37.0867 116.975 37.4855C117.738 38.0498 118.475 38.648 119.204 39.2521C119.678 39.6704 120.188 40.0461 120.728 40.3748C122.163 41.1796 124.087 41.2074 125.404 40.2039C127.065 38.9381 129.18 38.2803 130.968 37.1854C131.499 36.8883 131.985 36.5154 132.409 36.0786C132.405 36.1301 132.397 36.1813 132.385 36.2316C132.278 36.7264 131.85 37.0841 131.689 37.5848C131.564 37.9823 131.61 38.4413 131.367 38.7771C131.183 39.0335 130.837 39.2163 130.827 39.5322C130.827 39.6197 130.853 39.7071 130.853 39.7946C130.843 39.9052 130.81 40.0127 130.757 40.1105C130.559 40.5576 130.336 41.0266 129.929 41.3028C129.77 41.4121 129.567 41.5114 129.531 41.7002C129.529 41.755 129.515 41.8085 129.49 41.8572C129.422 41.9506 129.273 41.9009 129.166 41.9407C129.017 41.9963 128.993 42.1891 128.933 42.3381C128.879 42.4619 128.787 42.5654 128.67 42.6338C128.553 42.7023 128.418 42.7323 128.283 42.7196C126.926 42.5547 125.593 43.1687 124.226 43.1329C123.755 43.119 123.286 43.0714 122.813 43.0674C121.362 43.0555 119.941 43.4648 118.544 43.8622C118.389 44.1372 118.293 44.4419 118.262 44.7564C117.785 44.879 117.287 44.898 116.802 44.8121C116.681 44.7883 116.559 44.7717 116.436 44.7624C116.471 44.6727 116.482 44.5755 116.468 44.4802C115.897 44.6612 115.348 44.9058 114.832 45.2095C114.493 45.4082 114.133 45.6864 114.101 46.0779C114.096 46.2288 114.118 46.3794 114.165 46.523L114.35 47.2245C114.372 47.3543 114.429 47.4758 114.514 47.5762C114.576 47.6358 114.658 47.6716 114.713 47.7352C114.767 47.8103 114.804 47.8965 114.821 47.9875L114.976 48.5956C115.033 48.7979 115.075 49.0046 115.099 49.2136C115.117 49.4123 115.099 49.5951 115.113 49.7859C115.134 50.1004 115.179 50.4127 115.25 50.7199L115.47 51.8207C115.52 52.1284 115.607 52.4288 115.731 52.715C115.824 52.9137 115.949 53.0846 116.025 53.2833C116.084 53.4363 116.112 53.5992 116.184 53.7443C116.312 53.98 116.515 54.167 116.76 54.2768C116.845 54.3272 116.941 54.3572 117.04 54.3643C117.322 54.3643 117.525 54.102 117.656 53.8516C117.918 53.3964 118.059 52.8822 118.068 52.3573C118.068 52.1466 118.026 51.938 118.008 51.7273C117.96 51.1312 118.131 50.551 118.131 49.9568C118.138 49.8772 118.116 49.7977 118.071 49.7319C118.026 49.666 117.959 49.6177 117.883 49.5951C117.901 49.0904 117.899 48.5559 118.165 48.1246C118.297 47.924 118.461 47.7462 118.65 47.5981C118.723 47.8325 118.805 48.065 118.896 48.2916C120.408 47.8504 121.97 47.4252 123.554 47.3854ZM155.863 16.8689C155.756 16.9086 155.646 16.9484 155.535 16.9841C154.609 17.2921 153.548 17.5922 152.59 17.3816C152.3 17.2978 152.027 17.1632 151.783 16.9841L151.714 16.9404C153.063 16.7039 154.472 16.7616 155.863 16.8689Z" fill="url(#paint0_linear_192_5990)"/>
<path d="M161.24 14.8243C161.574 14.6809 161.932 14.5981 162.295 14.5798C162.528 14.5975 162.757 14.6505 162.975 14.7368C163.367 14.8514 163.734 15.0403 164.056 15.2932C164.215 15.4216 164.341 15.5857 164.424 15.7722C164.507 15.9587 164.545 16.1623 164.535 16.3663C164.489 16.7637 164.195 17.1075 163.873 17.3598C163.436 17.7187 162.896 17.9277 162.331 17.956C161.699 17.9659 161.103 17.6818 160.493 17.5129C160.049 17.3873 159.591 17.3205 159.13 17.3141C158.898 17.3267 158.665 17.312 158.436 17.2704C158.321 17.2488 158.213 17.2005 158.121 17.1293C158.028 17.0582 157.954 16.9663 157.904 16.8611C157.846 16.6665 157.846 16.4595 157.904 16.2649C157.949 16.0185 157.941 15.4343 158.16 15.2873C158.335 15.168 158.955 15.2634 159.169 15.2455C159.873 15.1789 160.567 15.0377 161.24 14.8243Z" fill="#FBBEBE"/>
<path d="M147.054 10.8242C147.656 11.4129 148.174 12.0816 148.594 12.8114C149.293 14.0315 149.738 15.4503 150.792 16.3882C151.071 16.6238 151.368 16.8383 151.68 17.0301C151.923 17.2091 152.196 17.3436 152.487 17.4275C153.433 17.6401 154.494 17.344 155.416 17.0301C156.328 16.7025 157.214 16.3038 158.065 15.8378C158.07 16.2217 158.177 16.5973 158.375 16.9267C158.595 17.2387 159.046 17.4215 159.368 17.2248C158.553 17.6079 157.784 18.0833 157.077 18.6416C156.805 18.8721 156.552 19.1265 156.262 19.3352C155.215 20.0883 153.766 20.1638 152.799 21.0183C152.655 21.1491 152.475 21.2318 152.282 21.255C152.089 21.2781 151.894 21.2405 151.724 21.1474C151.388 20.9487 151.159 20.6069 150.883 20.3307C150.339 19.7862 149.599 19.4683 149.065 18.9139C148.816 18.6575 148.618 18.3535 148.363 18.1031C148 17.7454 147.527 17.507 147.193 17.1096C146.944 16.8174 146.795 16.4617 146.563 16.1498C146.364 15.8795 146.13 15.643 145.953 15.3549C145.52 14.6654 145.524 13.7652 145.772 12.9922C146.02 12.2192 146.591 11.4979 147.054 10.8242Z" fill="#386FA4"/>
<path opacity="0.1" d="M147.054 10.8242C147.656 11.4129 148.174 12.0816 148.594 12.8114C149.293 14.0315 149.738 15.4503 150.792 16.3882C151.071 16.6238 151.368 16.8383 151.68 17.0301C151.923 17.2091 152.196 17.3436 152.487 17.4275C153.433 17.6401 154.494 17.344 155.416 17.0301C156.328 16.7025 157.214 16.3038 158.065 15.8378C158.07 16.2217 158.177 16.5973 158.375 16.9267C158.595 17.2387 159.046 17.4215 159.368 17.2248C158.553 17.6079 157.784 18.0833 157.077 18.6416C156.805 18.8721 156.552 19.1265 156.262 19.3352C155.215 20.0883 153.766 20.1638 152.799 21.0183C152.655 21.1491 152.475 21.2318 152.282 21.255C152.089 21.2781 151.894 21.2405 151.724 21.1474C151.388 20.9487 151.159 20.6069 150.883 20.3307C150.339 19.7862 149.599 19.4683 149.065 18.9139C148.816 18.6575 148.618 18.3535 148.363 18.1031C148 17.7454 147.527 17.507 147.193 17.1096C146.944 16.8174 146.795 16.4617 146.563 16.1498C146.364 15.8795 146.13 15.643 145.953 15.3549C145.52 14.6654 145.524 13.7652 145.772 12.9922C146.02 12.2192 146.591 11.4979 147.054 10.8242Z" fill="black"/>
<path d="M111.736 29.1754C111.582 28.9734 111.392 28.8016 111.176 28.6687C110.847 28.5228 110.48 28.4852 110.129 28.5614C109.243 28.6965 108.42 29.1019 107.641 29.555C107.013 29.9146 106.389 30.3141 105.94 30.8804C105.792 31.0511 105.689 31.256 105.64 31.4765C105.614 31.6585 105.63 31.8439 105.686 32.019C105.725 32.2162 105.81 32.4016 105.933 32.5608C106.056 32.72 106.214 32.8487 106.395 32.9371C106.81 33.1 107.273 32.9271 107.691 32.7682C108.251 32.5516 108.867 32.3509 109.443 32.5218C109.87 32.6489 110.238 32.9728 110.689 32.9848C111.22 33.0007 111.649 32.5714 111.987 32.1621C112.279 31.8044 112.919 31.1586 112.877 30.6558C112.835 30.1531 112.05 29.5351 111.736 29.1754Z" fill="#FBBEBE"/>
<path d="M118.433 44.6412C117.947 44.7707 117.438 44.7918 116.943 44.7028C116.641 44.6471 116.271 44.5756 116.078 44.8121C116.016 44.8997 115.975 45.0002 115.957 45.1062C115.462 47.1311 115.915 49.2792 116.752 51.1968C116.763 51.2291 116.782 51.258 116.808 51.2802C116.861 51.32 116.935 51.2921 116.996 51.2663C117.199 51.185 117.388 51.0745 117.559 50.9384C117.94 50.5927 118.022 50.0303 118.04 49.5156C118.058 49.001 118.05 48.4565 118.316 48.0153C118.65 47.4689 119.347 47.2026 119.621 46.6243C119.842 46.1534 119.727 45.595 119.532 45.1141C119.466 44.9472 119.441 44.518 119.286 44.4365C119.131 44.355 118.61 44.5935 118.433 44.6412Z" fill="#FBBEBE"/>
<path d="M111.678 28.9726C111.722 28.9482 111.755 28.9079 111.771 28.8599C111.786 28.812 111.783 28.7599 111.761 28.7143C111.719 28.6235 111.656 28.5433 111.579 28.4798C111.405 28.3125 111.247 28.1303 111.106 27.9353C110.95 27.6942 110.775 27.4656 110.583 27.2518C110.486 27.1456 110.366 27.0626 110.232 27.0089C110.098 26.9553 109.954 26.9323 109.81 26.9418C109.65 26.9703 109.498 27.0312 109.363 27.1206C108.822 27.4339 108.325 27.816 107.883 28.2572C107.849 28.291 107.811 28.3328 107.819 28.3805C107.827 28.4281 107.859 28.448 107.863 28.4878C107.864 28.5236 107.851 28.5586 107.827 28.5851C107.561 28.9158 107.246 29.2033 106.893 29.4376C106.392 29.8138 105.902 30.2046 105.423 30.61C105.123 30.8235 104.886 31.1138 104.737 31.4506C104.635 31.843 104.68 32.259 104.862 32.621C105.194 33.4 105.772 34.0438 106.343 34.6698C106.438 34.7974 106.572 34.8914 106.724 34.938C106.844 34.9544 106.967 34.9246 107.066 34.8546C107.414 34.626 107.463 34.1491 107.493 33.7338L107.525 33.1595C107.524 33.1219 107.532 33.0846 107.547 33.0502C107.577 33.0065 107.619 32.9726 107.668 32.9529L108.208 32.6667C108.043 32.3979 107.808 32.179 107.528 32.0334C107.248 31.8878 106.934 31.821 106.619 31.8401C106.475 31.8743 106.323 31.8538 106.194 31.7824C106.131 31.7173 106.096 31.6304 106.096 31.54C106.096 31.4496 106.131 31.3627 106.194 31.2976C106.325 31.1724 106.487 31.0828 106.662 31.0373C108.087 30.5146 109.375 29.6761 110.758 29.0501C110.909 28.9735 111.077 28.9346 111.247 28.9369C111.386 28.9468 111.549 29.0283 111.678 28.9726Z" fill="#386FA4"/>
<path d="M117.293 49.7821C117.23 49.9014 117.208 50.0404 117.138 50.1577C117.069 50.2749 116.918 50.3564 116.801 50.2968C116.739 50.2536 116.693 50.1915 116.669 50.1199C116.067 48.7418 115.897 47.2131 116.183 45.7363C116.222 45.4948 116.294 45.2595 116.395 45.0368C116.501 44.8222 116.654 44.6036 116.61 44.3691C116.042 44.5481 115.497 44.7907 114.984 45.0925C114.647 45.2912 114.291 45.5674 114.259 45.9569C114.256 46.1079 114.278 46.2583 114.325 46.402L114.511 47.1035C114.534 47.2337 114.592 47.3553 114.678 47.4552C114.738 47.5148 114.819 47.5525 114.877 47.6161C114.932 47.6902 114.968 47.7759 114.984 47.8665L115.141 48.4746C115.2 48.6775 115.242 48.8849 115.267 49.0946C115.284 49.2933 115.267 49.4761 115.282 49.6669C115.305 49.9806 115.351 50.2922 115.422 50.5988L115.646 51.6997C115.697 52.0074 115.785 52.3077 115.908 52.5939C116.002 52.7926 116.127 52.9635 116.204 53.1642C116.262 53.3172 116.292 53.4802 116.363 53.6253C116.493 53.8605 116.694 54.0479 116.938 54.1598C117.023 54.2099 117.119 54.2404 117.218 54.2492C117.498 54.2592 117.699 53.9869 117.83 53.7365C118.086 53.2813 118.223 52.7686 118.227 52.2462C118.227 52.0355 118.184 51.8269 118.166 51.6163C118.116 51.0201 118.283 50.4419 118.281 49.8477C118.285 49.2913 117.498 49.3966 117.293 49.7821Z" fill="#386FA4"/>
<path d="M146.448 15.1601C145.828 14.8752 145.284 14.4499 144.858 13.9181C144.639 13.6377 144.439 13.3422 144.262 13.0338C143.507 11.7601 142.859 10.4262 142.324 9.04562C143.171 9.2185 144.059 9.37549 144.892 9.13703C145.326 9.00467 145.731 8.79015 146.084 8.50512C146.537 8.13288 146.957 7.7227 147.34 7.27905C147.629 7.83391 147.961 8.36541 148.333 8.86877C148.546 9.15492 149.265 9.73715 149.212 10.1266C149.158 10.5161 148.363 10.7108 148.041 10.8957L148.007 10.9175C147.533 11.2176 147.118 11.6038 146.785 12.0561C146.161 12.9424 145.945 14.1784 146.448 15.1601Z" fill="#FBBEBE"/>
<path opacity="0.1" d="M148.058 10.8877C147.58 10.6532 147.158 10.319 146.821 9.90767C146.483 9.49634 146.238 9.01741 146.101 8.50317C146.553 8.13093 146.973 7.72075 147.356 7.2771C147.646 7.83195 147.978 8.36346 148.35 8.86681C148.563 9.15296 149.282 9.7352 149.228 10.1247C149.175 10.5142 148.38 10.7029 148.058 10.8877Z" fill="black"/>
<path d="M149.846 11.1797C151.902 11.1797 153.568 9.51332 153.568 7.45776C153.568 5.4022 151.902 3.73584 149.846 3.73584C147.79 3.73584 146.124 5.4022 146.124 7.45776C146.124 9.51332 147.79 11.1797 149.846 11.1797Z" fill="#FBBEBE"/>
<path d="M141.704 30.6417C141.447 30.7961 141.154 30.8812 140.853 30.8885C140.553 30.8958 140.256 30.8251 139.992 30.6834C139.716 30.5135 139.467 30.3039 139.252 30.0614C138.03 28.8076 136.868 27.4782 136.051 25.9222C135.861 25.5939 135.738 25.2312 135.689 24.8551C135.666 24.6672 135.689 24.4765 135.756 24.2993C135.823 24.1221 135.932 23.9637 136.073 23.8377C136.149 23.7875 136.216 23.725 136.272 23.6529C136.319 23.547 136.342 23.4313 136.337 23.3151C136.359 23.1169 136.437 22.929 136.562 22.7732C136.686 22.6174 136.852 22.5 137.041 22.4348C136.842 22.2997 136.921 21.9996 137.051 21.8069C137.18 21.6141 137.361 21.4094 137.329 21.1869C137.278 21.0384 137.217 20.8937 137.146 20.7537C137.074 20.5112 137.204 20.2609 137.273 20.0184C137.418 19.5216 137.331 18.9931 137.295 18.4764C137.19 16.9463 137.561 15.4281 137.929 13.9398C138.091 13.184 138.326 12.4454 138.628 11.734C138.722 11.5353 138.827 11.3366 138.934 11.1597C139.31 10.5516 139.727 9.9706 140.184 9.42099C140.398 9.09765 140.692 8.83485 141.037 8.65793C141.069 8.64394 141.102 8.63199 141.136 8.62216C141.384 8.5582 141.641 8.53869 141.895 8.56453C142.567 8.60626 143.272 8.76324 143.751 9.23618C144.23 9.70912 144.385 10.3728 144.602 11.0127C144.671 11.2268 144.754 11.436 144.852 11.6386C145.168 12.2666 145.683 12.7673 146.189 13.2542L146.74 13.7848C147.016 14.051 147.495 13.9835 147.755 14.2637C147.861 14.3953 147.94 14.5466 147.988 14.7088C148.282 15.4255 148.453 16.1866 148.494 16.9602C148.496 17.1322 148.486 17.3042 148.465 17.4749C148.397 18.0738 148.132 18.6332 147.712 19.0646C147.235 19.5236 146.571 19.7502 146.096 20.2112C145.699 20.5927 145.468 21.1034 145.242 21.6022C144.804 22.564 144.367 23.5271 143.928 24.4915C143.611 25.1514 143.338 25.8319 143.111 26.5283C142.698 27.9173 142.932 29.8766 141.704 30.6417Z" fill="#386FA4"/>
<path d="M130.229 47.0156C129.247 47.0553 128.264 47.0434 127.286 47.1368C126.716 47.1925 126.148 47.2859 125.575 47.3097C124.951 47.3375 124.325 47.2878 123.699 47.2998C122.124 47.3335 120.57 47.7528 119.053 48.186C118.625 47.1407 118.402 46.0229 118.396 44.8933C118.392 44.8185 118.392 44.7436 118.396 44.6688C118.423 44.349 118.519 44.0387 118.676 43.7587C120.067 43.3612 121.478 42.9638 122.922 42.9837C123.393 42.9837 123.86 43.0393 124.329 43.0532C125.69 43.095 127.014 42.4849 128.365 42.6558C128.499 42.6691 128.634 42.6394 128.75 42.5712C128.866 42.503 128.957 42.3997 129.011 42.2763C129.069 42.1292 129.092 41.9365 129.241 41.8788C129.349 41.8391 129.496 41.8888 129.563 41.7974C129.587 41.7483 129.602 41.6949 129.605 41.6404C129.645 41.4417 129.846 41.3523 130.003 41.243C130.4 40.9687 130.625 40.4998 130.823 40.0507C130.875 39.9535 130.907 39.8466 130.917 39.7367C130.917 39.6493 130.889 39.5618 130.891 39.4724C130.891 39.1584 131.243 38.9776 131.425 38.7213C131.666 38.3835 131.624 37.9264 131.741 37.529C131.9 37.0282 132.324 36.6725 132.429 36.1797C132.441 36.1294 132.449 36.0783 132.453 36.0267C132.031 36.4614 131.549 36.8323 131.02 37.1276C129.255 38.2146 127.145 38.8643 125.498 40.1222C124.19 41.1158 122.275 41.086 120.844 40.2772C120.304 39.9471 119.795 39.5701 119.322 39.1505C118.594 38.5544 117.859 37.9443 117.098 37.376C116.568 36.9785 116.019 36.595 115.451 36.2254C114.763 35.7703 114.05 35.353 113.317 34.9755C112.406 34.5145 111.49 34.0574 110.477 33.9482C110.347 33.6822 110.274 33.3916 110.265 33.0957C110.255 32.7997 110.309 32.5051 110.421 32.2313C110.653 31.6866 110.966 31.1806 111.351 30.731C111.639 30.3086 112 29.9406 112.416 29.644C112.463 29.6147 112.516 29.5991 112.571 29.5991C112.626 29.5991 112.68 29.6147 112.726 29.644L116.665 32.0624L117.402 32.5134C119.018 33.507 120.607 34.5701 122.223 35.5577C122.253 35.671 122.41 35.6849 122.523 35.6551C122.636 35.6253 122.765 35.5776 122.863 35.6432C122.91 35.675 122.944 35.7346 123.004 35.7465C123.051 35.7481 123.098 35.7326 123.135 35.7028C123.803 35.2438 124.144 34.3615 124.894 34.0535C125.214 33.9223 125.593 33.9024 125.843 33.656C125.992 33.4682 126.124 33.2688 126.241 33.0599C126.565 32.6366 127.179 32.5095 127.479 32.0663C127.678 31.7793 127.917 31.5223 128.188 31.3033C128.73 30.8626 129.199 30.3404 129.579 29.7553C129.776 29.4664 129.929 29.1505 130.034 28.8173C130.086 28.6445 130.118 28.4656 130.175 28.2947C130.356 27.7741 130.772 27.3747 131.187 27.013C131.94 26.3533 132.753 25.7273 133.707 25.4233C134.039 25.3463 134.362 25.2295 134.666 25.0756C135.05 24.8411 135.402 24.4059 135.841 24.5072C136.007 24.5589 136.157 24.6534 136.276 24.7815C136.815 25.3053 137.31 25.8722 137.756 26.4765C138.465 27.3787 139.173 28.2815 139.881 29.185C140.104 29.5098 140.386 29.7896 140.713 30.0096C141.188 30.2538 141.733 30.3241 142.253 30.2083C142.184 30.9456 141.598 31.5536 141.355 32.2531C141.238 32.5929 141.192 32.9546 141.105 33.3023C140.982 33.7387 140.824 34.1646 140.634 34.5761C140.157 35.6869 139.676 36.8037 138.992 37.8012C138.639 38.3199 138.231 38.7948 137.832 39.2816C136.256 41.1833 135.05 43.4765 133.261 45.1874C132.828 45.6067 132.554 46.181 132.069 46.5407C131.543 46.9302 130.863 46.9898 130.229 47.0156Z" fill="#434175"/>
<path opacity="0.1" d="M137.717 21.803C137.541 21.8115 137.371 21.8627 137.22 21.952C137.583 21.8248 138.027 22.1646 138.362 22.0037C138.519 21.9282 138.495 21.9063 138.362 21.8606C138.162 21.793 137.919 21.8546 137.717 21.803Z" fill="black"/>
<path d="M200.452 87.4698L185.846 92.6565L186.777 95.2781L201.383 90.0914L200.452 87.4698Z" fill="#D0D2D5"/>
<path d="M190.731 98.093L204.027 93.3718C204.374 93.2484 204.757 93.2681 205.09 93.4266C205.423 93.5851 205.68 93.8695 205.803 94.2172C205.927 94.5648 205.907 94.9473 205.748 95.2804C205.59 95.6135 205.305 95.87 204.958 95.9934L191.662 100.715L190.731 98.093Z" fill="#D0D2D5"/>
<path d="M178.065 89.9382L181.305 88.7878C184.185 87.7649 187.354 87.9282 190.114 89.2418C192.875 90.5553 195 92.9115 196.023 95.792L197.173 99.0316C197.573 100.158 197.509 101.397 196.996 102.476C196.482 103.556 195.561 104.387 194.434 104.787L184.581 108.286C183.454 108.686 182.215 108.622 181.136 108.108C180.057 107.595 179.225 106.673 178.825 105.547L175.326 95.6933C174.927 94.5669 174.99 93.3278 175.504 92.2485C176.018 91.1692 176.939 90.3381 178.065 89.9382Z" fill="#3F3D56"/>
<path opacity="0.1" d="M137.538 23.7425C137.403 23.6952 137.258 23.6863 137.119 23.7166C136.911 23.7387 136.717 23.8338 136.572 23.9849C136.611 24.0022 136.652 24.0111 136.694 24.0111C136.737 24.0111 136.778 24.0022 136.817 23.9849C136.947 23.952 137.08 23.9373 137.214 23.9412C137.329 23.9412 137.673 24.0683 137.763 24.0127C137.894 23.9273 137.627 23.7762 137.538 23.7425Z" fill="black"/>
<path opacity="0.1" d="M148.465 17.4753C148.166 17.3741 147.881 17.2367 147.615 17.0659C146.917 16.6228 146.331 16.0207 145.642 15.5676C145.293 15.3488 144.933 15.1498 144.563 14.9715L142.236 13.7792C142.058 13.6783 141.869 13.6008 141.671 13.5487C141.292 13.4652 140.865 13.7196 140.479 13.6659C140.279 13.6292 140.09 13.5505 139.922 13.4351C139.755 13.3196 139.614 13.1701 139.509 12.9962C139.299 12.6489 139.151 12.2677 139.072 11.8695C139.013 11.6348 138.968 11.3965 138.939 11.1561C138.905 10.9065 138.9 10.6537 138.925 10.403C138.965 9.90511 139.201 9.44337 139.581 9.11933C139.857 8.92339 140.171 8.78796 140.503 8.7219C140.712 8.66897 140.926 8.63374 141.141 8.61658C141.263 8.60665 141.386 8.60665 141.508 8.61658C142.387 8.68613 143.13 9.28227 143.716 9.93803C144.024 10.2838 144.312 10.6554 144.606 11.0071C144.675 11.2213 144.759 11.4304 144.857 11.6331C145.173 12.261 145.687 12.7618 146.194 13.2486L146.745 13.7792C147.021 14.0455 147.5 13.9779 147.76 14.2581C147.866 14.3898 147.945 14.541 147.992 14.7032C148.286 15.4221 148.456 16.1852 148.495 16.9606C148.497 17.1326 148.487 17.3046 148.465 17.4753Z" fill="black"/>
<path opacity="0.1" d="M130.368 42.9068L118.394 44.6694C118.421 44.3495 118.517 44.0393 118.674 43.7592C120.065 43.3618 121.476 42.9644 122.92 42.9843C123.391 42.9843 123.858 43.0399 124.327 43.0538C125.688 43.0955 127.012 42.4855 128.363 42.6564C128.497 42.6696 128.632 42.64 128.748 42.5718C128.864 42.5036 128.955 42.4003 129.009 42.2768C129.066 42.1298 129.09 41.937 129.239 41.8794C129.347 41.8397 129.494 41.8893 129.561 41.7979C129.585 41.7489 129.6 41.6955 129.603 41.641C129.643 41.4422 129.843 41.3528 130 41.2435C130.398 40.9693 130.622 40.5003 130.821 40.0512C130.873 39.9541 130.905 39.8472 130.915 39.7373C130.915 39.6498 130.887 39.5624 130.889 39.473C130.889 39.159 131.24 38.9782 131.423 38.7218C131.664 38.384 131.622 37.927 131.739 37.5296C131.898 37.0288 132.321 36.6731 132.427 36.1803L132.478 36.1127L134.517 35.3179L130.368 42.9068Z" fill="black"/>
<path opacity="0.1" d="M84.4536 139.432C131.096 139.432 168.907 136.496 168.907 132.874C168.907 129.253 131.096 126.317 84.4536 126.317C37.8112 126.317 0 129.253 0 132.874C0 136.496 37.8112 139.432 84.4536 139.432Z" fill="#386FA4"/>
<path opacity="0.1" d="M159.114 156.724C189.295 156.724 213.761 153.542 213.761 149.616C213.761 145.69 189.295 142.508 159.114 142.508C128.934 142.508 104.468 145.69 104.468 149.616C104.468 153.542 128.934 156.724 159.114 156.724Z" fill="#386FA4"/>
<path d="M94.4395 127.565L94.4951 124.751C97.1446 124.6 99.7941 124.499 102.444 124.449C103.982 124.421 105.54 124.411 107.028 124.797C108.059 125.065 109.035 125.518 110.052 125.836C112.079 126.468 114.225 126.551 116.354 126.609C118.418 126.666 120.574 126.686 122.428 125.774C125.638 124.185 126.987 120.28 127.144 116.705C127.301 113.13 126.589 109.527 127.084 105.974" stroke="#3F3D56" stroke-width="2.38457" stroke-miterlimit="10"/>
<path d="M101.703 133.071L66.2939 132.618L66.3973 131.71L68.1102 116.729H99.205L101.494 131.71L101.669 132.845L101.703 133.071Z" fill="#D0D2D5"/>
<path opacity="0.1" d="M101.669 132.845H83.9974L66.2939 132.618L66.3973 131.71H101.494L101.669 132.845Z" fill="black"/>
<path d="M107.379 131.937H60.3926V133.071H107.379V131.937Z" fill="#D0D2D5"/>
<path d="M152.205 26.751C152.209 26.3619 152.135 25.9761 151.989 25.6155C151.843 25.2549 151.627 24.9267 151.354 24.6498C151.081 24.3728 150.756 24.1526 150.397 24.0016C150.038 23.8507 149.654 23.7721 149.264 23.7703H18.0495C17.6605 23.7723 17.2757 23.8511 16.9173 24.0022C16.5588 24.1532 16.2337 24.3735 15.9605 24.6503C15.6873 24.9272 15.4714 25.2553 15.3252 25.6158C15.179 25.9762 15.1054 26.362 15.1085 26.751V106.288H152.205V26.751Z" fill="#3F3D56"/>
<path d="M15.1104 105.494V114.811C15.1104 115.591 15.4202 116.339 15.9717 116.891C16.5233 117.442 17.2713 117.752 18.0513 117.752H149.266C150.046 117.752 150.794 117.442 151.346 116.891C151.897 116.339 152.207 115.591 152.207 114.811V105.494H15.1104Z" fill="#D0D2D5"/>
<path d="M147.213 28.7739H20.7852V100.273H147.213V28.7739Z" fill="#2F2E41"/>
<path d="M84.3399 114.217C84.804 114.217 85.2622 114.112 85.6797 113.909C86.0972 113.706 86.4633 113.411 86.7503 113.046C86.8379 112.935 86.9176 112.817 86.9887 112.695L85.3076 112.418L87.1259 112.432C87.3002 112.053 87.3953 111.642 87.4052 111.224C87.4151 110.807 87.3397 110.391 87.1835 110.004L84.7453 111.27L86.9947 109.617C86.7872 109.247 86.5051 108.924 86.1662 108.668C85.8273 108.413 85.4391 108.231 85.0261 108.133C84.6132 108.036 84.1844 108.025 83.7671 108.102C83.3498 108.179 82.953 108.341 82.6019 108.579C82.2507 108.818 81.9528 109.126 81.7272 109.485C81.5015 109.845 81.3529 110.247 81.2908 110.667C81.2287 111.087 81.2545 111.515 81.3665 111.924C81.4785 112.333 81.6742 112.715 81.9414 113.044C82.2266 113.408 82.5906 113.703 83.0061 113.906C83.4215 114.109 83.8775 114.215 84.3399 114.217Z" fill="#386FA4"/>
<path opacity="0.1" d="M87.4033 117.75L101.53 131.936L99.3619 117.75H87.4033Z" fill="black"/>
<path d="M148.077 28.1918L155.664 18.1389C156.117 17.5427 156.584 16.9208 157.206 16.4915C158.994 15.2555 161.615 15.9868 163.112 17.5706C164.608 19.1543 165.236 21.358 165.695 23.4883C166.764 28.3914 167.242 33.4049 167.118 38.4216C167.054 41.0626 166.818 43.7313 165.977 46.2371C164.701 50.0484 162.116 53.2577 160.163 56.7689C157.017 62.4263 155.7 69.9715 159.682 75.0765C160.979 76.7397 162.746 78.0115 163.944 79.7483C165.298 81.7096 165.824 84.108 166.329 86.437C167.082 89.9542 167.837 93.4933 167.976 97.0881C168.425 108.711 161.798 120.324 151.564 125.852C144.46 129.691 135.866 130.804 129.688 136.01C127.502 137.844 125.618 140.541 126.155 143.335C126.592 145.602 128.583 147.325 130.769 148.074C132.955 148.823 135.325 148.762 137.631 148.631C143.167 148.314 148.677 147.634 154.124 146.594C158.74 145.711 163.348 144.95 167.372 142.522C167.775 142.309 168.12 142 168.376 141.622C168.636 141.187 168.68 140.66 168.715 140.153C168.825 138.661 168.928 137.113 168.401 135.712C167.787 134.075 166.387 132.835 165.715 131.221C165.043 129.608 165.164 127.75 165.6 126.055C166.136 123.96 167.112 122.009 168.093 120.083C169.049 118.207 170.019 116.338 171.144 114.559C174.311 109.559 178.639 105.418 182.922 101.335" stroke="#3F3D56" stroke-width="2.38457" stroke-miterlimit="10"/>
<path d="M160.632 13.781C160.966 13.6358 161.324 13.553 161.687 13.5366C161.92 13.5547 162.149 13.6069 162.367 13.6916C162.76 13.8069 163.127 13.9964 163.448 14.25C163.607 14.3782 163.734 14.5423 163.817 14.7288C163.9 14.9154 163.938 15.1191 163.927 15.3231C163.881 15.7205 163.587 16.0623 163.265 16.3166C162.829 16.6761 162.288 16.8852 161.723 16.9128C161.091 16.9128 160.495 16.6386 159.885 16.4677C159.441 16.3421 158.983 16.2753 158.522 16.2689C158.29 16.2808 158.057 16.2655 157.828 16.2232C157.714 16.202 157.606 16.154 157.513 16.0832C157.421 16.0124 157.346 15.9209 157.296 15.8159C157.241 15.6243 157.241 15.4213 157.296 15.2297C157.344 14.9833 157.336 14.3971 157.554 14.25C157.729 14.1328 158.349 14.2281 158.564 14.2103C159.266 14.139 159.959 13.9952 160.632 13.781Z" fill="#FBBEBE"/>
<path d="M157.876 13.9797C157.053 14.3572 156.088 14.0433 155.193 14.0413C154.754 14.0413 154.317 14.1148 153.88 14.1406C153.395 14.1579 152.91 14.1453 152.427 14.1029L150.973 14.0035C150.116 13.9751 149.264 13.8579 148.431 13.6538C147.72 12.8152 146.565 12.4456 145.707 11.762C145.019 11.2136 144.526 10.4664 143.94 9.80866C143.354 9.15092 142.611 8.55676 141.734 8.48721C141.395 8.47027 141.055 8.50647 140.727 8.59452C140.395 8.65926 140.081 8.79482 139.807 8.99194C139.618 9.1521 139.463 9.34798 139.351 9.56829C139.238 9.7886 139.17 10.029 139.151 10.2756C139.115 10.7692 139.164 11.2653 139.296 11.7421C139.375 12.1409 139.523 12.5228 139.733 12.8708C139.84 13.044 139.981 13.193 140.149 13.3083C140.316 13.4237 140.505 13.5027 140.705 13.5405C141.089 13.5922 141.514 13.3418 141.897 13.4213C142.095 13.4734 142.284 13.5509 142.462 13.6518L144.791 14.8441C145.16 15.0229 145.52 15.2219 145.868 15.4402C146.559 15.8933 147.143 16.4954 147.841 16.9385C148.538 17.3817 149.419 17.6599 150.194 17.3697C152.578 16.4815 155.265 16.8948 157.795 17.1154C157.779 17.0677 157.882 17.024 157.912 16.9842C158.225 16.5548 158.367 16.0241 158.309 15.4959C158.248 14.9732 158.049 14.4804 157.876 13.9797Z" fill="#386FA4"/>
<path d="M153.875 7.28489C154.123 7.17104 154.33 6.98552 154.471 6.75234C154.698 6.33305 154.559 5.81838 154.404 5.36134C154.249 4.9043 154.092 4.50488 153.919 4.08361C153.795 3.7301 153.608 3.40215 153.367 3.11587C153.015 2.7403 152.512 2.55152 152.093 2.25543C151.596 1.90371 151.224 1.40494 150.805 0.965779C150.386 0.52662 149.873 0.119257 149.269 0.0457325C148.804 0.0223555 148.339 0.108808 147.914 0.2981C144.285 1.63147 141.318 4.27239 138.069 6.36683C136.806 7.18355 135.387 7.94462 133.896 7.83533L135.23 9.95363C135.57 10.4961 135.951 11.0704 136.547 11.3029C137.074 11.5016 137.662 11.4023 138.215 11.3029C138.654 11.2392 139.082 11.1106 139.484 10.9214C140.279 10.4902 140.79 9.59395 141.644 9.28197C142.282 9.04948 142.994 9.19255 143.631 9.41511C144.269 9.63767 144.895 9.93972 145.567 10.0311C146.759 10.1921 147.952 9.65357 148.945 8.95807C149.541 8.54474 150.084 8.06981 150.734 7.76578C151.222 7.51213 151.777 7.41434 152.323 7.48559C152.925 7.56905 153.279 7.59687 153.875 7.28489Z" fill="#2F2E41"/>
<path opacity="0.1" d="M154.472 6.75252C154.694 6.34118 154.563 5.83644 154.412 5.39331C154.461 5.6472 154.426 5.91013 154.313 6.14246C154.17 6.37449 153.963 6.55965 153.717 6.67502C153.12 6.98899 152.759 6.96117 152.147 6.85982C151.601 6.78985 151.046 6.88757 150.557 7.14001C149.911 7.45199 149.365 7.93487 148.769 8.33229C147.775 9.0278 146.583 9.56432 145.39 9.40337C144.717 9.31394 144.095 9.00594 143.455 8.78735C142.815 8.56877 142.102 8.42172 141.468 8.65421C140.615 8.96619 140.111 9.86438 139.31 10.2936C138.908 10.4826 138.48 10.6112 138.04 10.6751C137.486 10.7824 136.897 10.8878 136.373 10.6751C135.777 10.4446 135.395 9.86836 135.053 9.32587L134.109 7.82557C134.034 7.82557 133.956 7.82557 133.881 7.82557L135.214 9.94387C135.554 10.4864 135.936 11.0606 136.532 11.2931C137.058 11.4919 137.646 11.3925 138.199 11.2931C138.639 11.2295 139.067 11.1009 139.469 10.9116C140.264 10.4804 140.774 9.58419 141.629 9.27221C142.267 9.03972 142.978 9.18279 143.616 9.40535C144.254 9.62791 144.88 9.92996 145.551 10.0214C146.744 10.1823 147.936 9.64381 148.929 8.94831C149.526 8.53498 150.068 8.06006 150.718 7.75602C151.207 7.50237 151.762 7.40458 152.308 7.47584C152.92 7.57519 153.281 7.60301 153.875 7.29103C154.124 7.17559 154.332 6.98791 154.472 6.75252Z" fill="black"/>
<path d="M164.745 142.679C164.862 142.496 165.008 142.334 165.178 142.198C166.046 141.379 166.45 140.175 166.664 138.995C166.879 137.814 166.941 136.61 167.284 135.456C167.47 134.863 167.704 134.287 167.984 133.733C168.183 133.308 168.431 132.473 168.797 132.177C168.868 132.115 168.954 132.073 169.047 132.056C169.218 131.69 169.463 131.364 169.766 131.098C170.335 130.583 171.028 130.174 171.408 129.508C171.512 129.277 171.64 129.058 171.791 128.854C172.048 128.57 172.453 128.457 172.689 128.157C172.997 127.771 172.928 127.221 172.888 126.728C172.848 126.235 172.888 125.649 173.313 125.393C173.568 125.236 173.896 125.25 174.16 125.113C174.557 124.914 174.714 124.411 174.706 123.964C174.698 123.517 174.559 123.082 174.524 122.637C174.412 121.214 175.35 119.799 174.987 118.42C174.849 117.897 174.538 117.442 174.305 116.957C174.226 116.795 174.159 116.626 174.106 116.453C173.487 116.699 172.836 116.856 172.173 116.92C173.268 114.464 172.99 111.608 173.5 108.971L173.435 108.88C172.918 108.201 172.625 107.378 172.596 106.525C172.596 105.531 173.055 104.623 173.262 103.663C173.437 102.845 173.431 101.992 173.659 101.189C173.819 100.691 174.03 100.21 174.289 99.7547C174.538 99.2937 174.798 98.8426 175.07 98.3975C175.324 97.5549 175.579 96.7124 175.835 95.8698C176.193 94.6776 176.56 93.4853 177.256 92.4639C177.51 92.0883 177.588 91.3312 177.979 91.1047C178.297 90.9392 178.658 90.876 179.013 90.9238C179.565 90.6139 180.05 90.1667 180.119 89.5547C180.126 89.421 180.113 89.287 180.08 89.1573H180.012C179.136 89.0758 178.695 88.3048 178.24 87.6311C177.502 86.5362 177.784 85.0578 178.24 83.8158C178.352 83.4232 178.557 83.063 178.836 82.7646C179.474 82.1685 180.483 82.2996 181.306 82.0115C181.572 81.8949 181.845 81.7921 182.122 81.7035C182.669 81.5743 183.241 81.7552 183.742 82.0055C184.243 82.2559 184.71 82.5858 185.234 82.7845C185.759 82.9832 186.407 83.1402 186.536 83.6787C186.572 83.8602 186.557 84.0484 186.49 84.2212C186.37 84.5658 186.158 84.8713 185.878 85.1055C186.102 85.5662 186.222 86.0698 186.232 86.5817C186.242 87.0936 186.141 87.6015 185.936 88.0705C185.73 88.5395 185.426 88.9585 185.043 89.2984C184.66 89.6383 184.208 89.8912 183.718 90.0396C183.567 90.28 183.426 90.5284 183.297 90.7808C183.066 91.2259 182.872 91.7505 182.949 92.2274C183.093 92.379 183.226 92.5411 183.347 92.7123C183.917 93.5071 184.241 94.4411 184.539 95.3711C184.941 96.5581 185.262 97.7711 185.501 99.0016C185.985 100.031 186.578 101.017 186.929 102.1C187.559 102.101 188.186 102.017 188.793 101.851L190.47 101.47C191.053 101.338 191.663 101.195 192.12 100.81C192.362 100.611 192.551 100.347 192.797 100.148C193.044 99.9494 193.539 99.7209 193.809 99.8839C193.858 99.9139 193.904 99.9492 193.946 99.9892C194.19 99.4924 195.754 101.525 194.685 101.726L194.755 101.925C194.896 102.336 195.196 102.837 195.12 103.266L187.657 105.827C187.178 106.021 186.67 106.134 186.154 106.159C185.953 106.158 185.753 106.131 185.558 106.08V106.461V106.475C185.538 109.096 185.956 111.701 186.033 114.32C186.047 114.797 186.033 115.314 185.731 115.688C185.393 116.097 184.793 116.176 184.271 116.085C184.146 116.065 184.022 116.038 183.901 116.004C183.724 116.662 183.597 117.333 183.519 118.011L183.025 121.54C182.96 121.903 182.934 122.272 182.947 122.641C183.005 123.471 183.444 124.218 183.762 124.987C184.08 125.756 184.269 126.677 183.849 127.394C183.72 127.616 183.539 127.807 183.422 128.038C183.273 128.394 183.205 128.779 183.223 129.164C183.193 130.237 183.164 131.309 183.136 132.38C183.223 132.367 183.311 132.385 183.386 132.431C183.8 132.751 183.754 134.285 183.784 134.76C183.815 135.555 183.784 136.366 183.827 137.169C183.881 138.254 184.06 139.33 184.36 140.374C184.432 140.713 184.588 141.028 184.815 141.29C185.047 141.491 185.324 141.635 185.622 141.709C186.613 142.019 187.648 142.16 188.686 142.127C189.105 142.113 189.542 142.073 189.932 142.232C190.321 142.391 190.635 142.828 190.494 143.225C190.373 143.559 190.005 143.718 189.674 143.843C188.915 144.11 188.183 144.446 187.488 144.849C187.219 145.032 186.936 145.192 186.641 145.328C186.359 145.43 186.068 145.502 185.771 145.542L182.25 146.139C181.528 146.264 180.66 146.337 180.201 145.741C179.952 145.419 179.917 144.982 179.929 144.575C179.948 143.78 180.107 142.971 180.002 142.176C179.925 141.706 179.802 141.244 179.635 140.797L178.577 137.673C178.224 136.626 177.866 135.571 177.729 134.474C177.679 134.077 177.683 133.626 177.987 133.377C178.064 133.314 178.153 133.268 178.249 133.242C178.261 132.284 178.387 131.324 178.333 130.367C178.319 130.128 178.295 129.888 178.275 129.649C178.089 129.823 177.924 130.018 177.783 130.23C177.445 130.76 177.32 131.464 176.801 131.819C176.36 132.121 175.706 132.105 175.396 132.543C175.296 132.71 175.221 132.892 175.173 133.081C174.992 133.549 174.722 133.977 174.379 134.343C174.259 134.779 174.094 135.201 173.888 135.603C173.595 136.219 173.303 136.835 173.013 137.451C172.701 138.111 172.387 138.77 172.02 139.394C171.741 139.79 171.517 140.222 171.354 140.678C171.074 141.66 171.529 142.737 172.254 143.46C172.98 144.183 173.931 144.599 174.869 144.986C174.969 145.019 175.061 145.073 175.138 145.145C175.219 145.242 175.261 145.365 175.257 145.491C175.257 145.95 174.881 146.343 174.448 146.484C174.005 146.603 173.541 146.62 173.091 146.534C170.551 146.226 168.02 145.606 165.774 144.372C165.438 144.212 165.14 143.982 164.9 143.698C164.787 143.557 164.713 143.388 164.686 143.209C164.658 143.031 164.679 142.848 164.745 142.679Z" fill="url(#paint1_linear_192_5990)"/>
<path d="M175.48 98.1173C175.057 98.7664 174.66 99.4328 174.288 100.116C174.028 100.567 173.817 101.044 173.658 101.539C173.425 102.334 173.433 103.185 173.26 103.995C173.062 104.949 172.597 105.859 172.597 106.835C172.626 107.683 172.919 108.501 173.435 109.174C173.95 109.84 174.538 110.447 175.188 110.982C176.688 107.095 177.527 102.983 177.668 98.8188C177.688 98.2425 177.69 97.6464 177.481 97.1098C177.35 96.772 176.732 95.846 176.333 96.2097C176.187 96.3428 176.15 96.9429 176.06 97.1416C175.893 97.4816 175.699 97.8079 175.48 98.1173Z" fill="#386FA4"/>
<path opacity="0.1" d="M175.48 98.1173C175.057 98.7664 174.66 99.4328 174.288 100.116C174.028 100.567 173.817 101.044 173.658 101.539C173.425 102.334 173.433 103.185 173.26 103.995C173.062 104.949 172.597 105.859 172.597 106.835C172.626 107.683 172.919 108.501 173.435 109.174C173.95 109.84 174.538 110.447 175.188 110.982C176.688 107.095 177.527 102.983 177.668 98.8188C177.688 98.2425 177.69 97.6464 177.481 97.1098C177.35 96.772 176.732 95.846 176.333 96.2097C176.187 96.3428 176.15 96.9429 176.06 97.1416C175.893 97.4816 175.699 97.8079 175.48 98.1173Z" fill="black"/>
<path d="M196.812 100.289C197.589 100.16 198.452 100.224 199.056 100.726C199.42 101.036 199.651 101.475 199.7 101.95C199.751 102.503 199.431 103.155 198.879 103.198C198.746 103.2 198.613 103.191 198.481 103.173C198.132 103.17 197.784 103.199 197.44 103.258C196.763 103.321 196.081 103.222 195.45 102.967C194.819 102.713 194.259 102.311 193.816 101.795C193.343 101.211 193.967 100.943 194.529 100.824C195.296 100.661 196.045 100.42 196.812 100.289Z" fill="#FBBEBE"/>
<path d="M183.522 118.237L183.029 121.738C182.965 122.099 182.94 122.465 182.953 122.831C183.011 123.656 183.448 124.397 183.766 125.16C184.084 125.923 184.275 126.835 183.856 127.545C183.726 127.767 183.544 127.954 183.428 128.183C183.28 128.537 183.212 128.92 183.23 129.303L183.094 134.271C181.56 134.375 180.021 134.366 178.488 134.245C178.428 134.25 178.368 134.235 178.317 134.202C178.277 134.15 178.257 134.086 178.26 134.021C178.192 132.858 178.395 131.694 178.329 130.531C178.305 130.106 178.244 129.683 178.238 129.256C178.212 127.525 179.069 125.83 178.81 124.117C178.729 123.686 178.623 123.26 178.492 122.841C177.676 119.86 177.848 116.727 178.027 113.651C178.025 113.601 178.039 113.553 178.067 113.512C178.098 113.483 178.135 113.462 178.176 113.452C179.046 113.192 179.965 113.145 180.857 113.315C181.748 113.484 182.586 113.866 183.299 114.428C183.516 114.602 184.062 114.771 184.205 114.978C184.404 115.27 184.142 115.558 184.028 115.868C183.775 116.637 183.605 117.432 183.522 118.237Z" fill="#3F3D56"/>
<path opacity="0.1" d="M183.522 118.237L183.029 121.738C182.965 122.099 182.94 122.465 182.953 122.831C183.011 123.656 183.448 124.397 183.766 125.16C184.084 125.923 184.275 126.835 183.856 127.545C183.726 127.767 183.544 127.954 183.428 128.183C183.28 128.537 183.212 128.92 183.23 129.303L183.094 134.271C181.56 134.375 180.021 134.366 178.488 134.245C178.428 134.25 178.368 134.235 178.317 134.202C178.277 134.15 178.257 134.086 178.26 134.021C178.192 132.858 178.395 131.694 178.329 130.531C178.305 130.106 178.244 129.683 178.238 129.256C178.212 127.525 179.069 125.83 178.81 124.117C178.729 123.686 178.623 123.26 178.492 122.841C177.676 119.86 177.848 116.727 178.027 113.651C178.025 113.601 178.039 113.553 178.067 113.512C178.098 113.483 178.135 113.462 178.176 113.452C179.046 113.192 179.965 113.145 180.857 113.315C181.748 113.484 182.586 113.866 183.299 114.428C183.516 114.602 184.062 114.771 184.205 114.978C184.404 115.27 184.142 115.558 184.028 115.868C183.775 116.637 183.605 117.432 183.522 118.237Z" fill="black"/>
<path d="M174.307 117.18C174.54 117.663 174.852 118.114 174.989 118.633C175.353 120.002 174.417 121.415 174.528 122.818C174.564 123.261 174.701 123.692 174.711 124.135C174.721 124.578 174.558 125.071 174.164 125.274C173.9 125.411 173.568 125.397 173.32 125.552C172.901 125.806 172.853 126.39 172.895 126.877C172.936 127.364 173.004 127.913 172.696 128.296C172.459 128.592 172.054 128.705 171.8 128.986C171.648 129.187 171.518 129.405 171.414 129.635C171.035 130.297 170.343 130.704 169.775 131.225C169.206 131.746 168.726 132.509 168.98 133.228C169.167 133.759 169.691 134.085 170.196 134.333C171.117 134.788 172.089 135.132 173.091 135.356C173.199 135.388 173.313 135.394 173.423 135.372C173.535 135.331 173.634 135.263 173.713 135.174C174.3 134.599 174.906 133.997 175.176 133.224C175.224 133.036 175.299 132.856 175.398 132.69C175.708 132.256 176.36 132.27 176.803 131.972C177.32 131.621 177.445 130.921 177.783 130.394C178.103 129.898 178.616 129.556 178.975 129.091C179.571 128.32 179.732 127.293 180.168 126.412C180.352 126.037 180.589 125.689 180.736 125.297C180.884 124.831 180.976 124.349 181.008 123.861C181.288 121.54 182.002 119.203 181.553 116.906C181.453 116.399 181.3 115.912 181.237 115.392C181.125 114.489 181.3 113.569 181.167 112.669C181.164 112.557 181.136 112.446 181.084 112.346C181.032 112.247 180.958 112.16 180.867 112.093C180.759 112.045 180.643 112.021 180.525 112.021C179.347 111.96 178.166 111.987 176.992 112.103C176.396 112.16 175.726 112.282 175.371 112.769C175.067 113.184 175.082 113.744 174.973 114.251C174.854 114.873 174.538 115.215 174.206 115.704C173.874 116.192 174.063 116.677 174.307 117.18Z" fill="#3F3D56"/>
<path d="M178.893 133.327C178.579 133.327 178.231 133.31 177.989 133.508C177.687 133.755 177.681 134.21 177.73 134.599C177.869 135.686 178.225 136.733 178.581 137.779L179.638 140.881C179.806 141.323 179.929 141.781 180.006 142.248C180.111 143.043 179.952 143.837 179.932 144.632C179.932 145.03 179.958 145.471 180.206 145.791C180.655 146.367 181.532 146.3 182.253 146.176L185.772 145.58C186.069 145.54 186.361 145.468 186.643 145.368C186.937 145.232 187.219 145.073 187.487 144.891C188.184 144.493 188.915 144.16 189.673 143.897C190.003 143.774 190.373 143.615 190.492 143.283C190.633 142.886 190.319 142.45 189.929 142.289C189.54 142.129 189.105 142.17 188.684 142.184C187.647 142.218 186.613 142.077 185.623 141.769C185.325 141.697 185.048 141.555 184.817 141.354C184.589 141.095 184.432 140.782 184.36 140.445C184.062 139.409 183.883 138.343 183.827 137.266C183.787 136.471 183.815 135.676 183.783 134.881C183.763 134.41 183.809 132.894 183.386 132.57C183.07 132.328 181.768 132.998 181.343 133.095C180.539 133.275 179.716 133.353 178.893 133.327Z" fill="#2F2E41"/>
<path d="M167.296 135.537C166.955 136.678 166.899 137.88 166.678 139.05C166.458 140.221 166.062 141.417 165.194 142.23C165.025 142.363 164.879 142.525 164.763 142.707C164.689 142.877 164.665 143.064 164.691 143.247C164.717 143.431 164.794 143.603 164.912 143.746C165.152 144.029 165.449 144.257 165.784 144.416C168.028 145.64 170.553 146.256 173.099 146.562C173.548 146.648 174.012 146.631 174.454 146.514C174.887 146.367 175.271 145.978 175.263 145.521C175.267 145.396 175.224 145.274 175.144 145.179C175.066 145.108 174.975 145.055 174.875 145.022C173.937 144.636 172.984 144.215 172.26 143.506C171.537 142.796 171.08 141.717 171.36 140.751C171.524 140.299 171.747 139.871 172.024 139.478C172.388 138.853 172.719 138.209 173.017 137.55L173.892 135.716C174.146 135.181 174.406 134.629 174.448 134.035C173.351 134.085 172.254 133.909 171.227 133.52C170.747 133.324 170.3 133.056 169.902 132.725C169.564 132.443 169.256 131.919 168.801 132.286C168.435 132.58 168.204 133.407 167.988 133.828C167.713 134.379 167.482 134.95 167.296 135.537Z" fill="#2F2E41"/>
<path d="M180.105 89.9958C180.018 90.7569 179.279 91.2616 178.573 91.5617L183.036 92.9884C182.748 92.436 182.983 91.7604 183.269 91.2C183.502 90.757 183.768 90.3319 184.064 89.9283C184.107 89.8667 184.157 89.7872 184.125 89.7176C184.097 89.6709 184.052 89.6362 184 89.6202C183.082 89.2109 182.136 88.7876 181.133 88.6386C180.843 88.5949 180.294 88.4796 180.078 88.7757C179.861 89.0718 180.153 89.6441 180.105 89.9958Z" fill="#FBBEBE"/>
<path opacity="0.1" d="M180.105 89.9958C180.018 90.7569 179.279 91.2616 178.573 91.5617L183.036 92.9884C182.748 92.436 182.983 91.7604 183.269 91.2C183.502 90.757 183.768 90.3319 184.064 89.9283C184.107 89.8667 184.157 89.7872 184.125 89.7176C184.097 89.6709 184.052 89.6362 184 89.6202C183.082 89.2109 182.136 88.7876 181.133 88.6386C180.843 88.5949 180.294 88.4796 180.078 88.7757C179.861 89.0718 180.153 89.6441 180.105 89.9958Z" fill="black"/>
<path d="M182.706 90.6138C184.64 90.6138 186.208 89.0462 186.208 87.1124C186.208 85.1787 184.64 83.6111 182.706 83.6111C180.773 83.6111 179.205 85.1787 179.205 87.1124C179.205 89.0462 180.773 90.6138 182.706 90.6138Z" fill="#FBBEBE"/>
<path d="M185.732 115.92C185.394 116.318 184.796 116.405 184.273 116.318C183.051 116.119 182.05 115.219 180.856 114.895C179.389 114.497 177.835 115.008 176.452 115.632C175.069 116.256 173.69 117.013 172.176 117.132C173.545 114.08 172.762 110.406 174.07 107.328C174.391 106.577 174.839 105.849 174.91 105.037C175 104.025 174.495 103.05 174.417 102.042C174.346 101.146 174.616 100.254 174.872 99.4011L175.832 96.2515C176.19 95.0791 176.557 93.8848 177.251 92.8734C177.505 92.5018 177.585 91.7506 177.974 91.5241C178.825 91.0353 180.114 91.6533 181.036 91.687C181.958 91.7208 182.799 92.3766 183.338 93.1178C183.908 93.9007 184.232 94.8327 184.53 95.7547C185.006 97.1273 185.361 98.5389 185.591 99.9734C185.621 100.188 185.647 100.403 185.666 100.619C185.865 102.66 185.575 104.713 185.559 106.761C185.559 106.761 185.559 106.762 185.559 106.777C185.541 109.377 185.957 111.962 186.036 114.561C186.048 115.044 186.036 115.563 185.732 115.92Z" fill="#386FA4"/>
<path opacity="0.1" d="M185.559 106.779C184.874 106.606 184.252 106.165 183.721 105.68C183.261 105.27 182.852 104.807 182.501 104.299C182.061 103.606 181.708 102.861 181.45 102.082C180.714 100.012 180.247 97.8561 180.059 95.6672C180.007 95.0711 179.991 94.4332 180.347 93.9603C180.546 93.7039 180.826 93.5225 181.142 93.4456C181.457 93.3688 181.789 93.401 182.084 93.537C182.555 93.7675 182.859 94.2305 183.139 94.6717C183.699 95.552 184.262 96.4402 184.621 97.4179C184.78 97.8511 184.898 98.2982 185.053 98.7334C185.21 99.1626 185.392 99.5826 185.597 99.9913C185.627 100.206 185.653 100.42 185.673 100.637C185.858 102.668 185.575 104.721 185.559 106.779Z" fill="black"/>
<path d="M180.355 93.5747C180.001 94.0457 180.017 94.6915 180.067 95.2817C180.254 97.4699 180.722 99.6249 181.458 101.694C181.714 102.474 182.067 103.219 182.509 103.912C182.859 104.419 183.268 104.883 183.729 105.293C184.404 105.911 185.227 106.461 186.143 106.469C186.659 106.444 187.166 106.333 187.646 106.141L195.099 103.61C195.175 103.183 194.875 102.688 194.734 102.278L194.336 101.098C194.223 100.774 194.09 100.422 193.796 100.246C193.502 100.069 193.031 100.311 192.784 100.508C192.538 100.705 192.349 100.963 192.109 101.164C191.648 101.545 191.042 101.686 190.459 101.817L188.784 102.195C188.177 102.36 187.55 102.443 186.92 102.441C186.453 101.017 185.565 99.7607 185.062 98.3459C184.907 97.9127 184.788 97.4656 184.629 97.0324C184.269 96.0547 183.707 95.1664 183.149 94.2861C182.868 93.843 182.564 93.38 182.093 93.1515C181.798 93.0157 181.466 92.9836 181.15 93.0604C180.835 93.1372 180.554 93.3185 180.355 93.5747Z" fill="#386FA4"/>
<path d="M181.591 87.9016C181.618 87.672 181.69 87.4499 181.802 87.2478C181.861 87.1464 181.95 87.0662 182.057 87.0187C182.164 86.9713 182.283 86.9589 182.398 86.9835C182.748 87.0928 182.865 87.6353 183.231 87.6532C183.477 87.6651 183.654 87.4147 183.731 87.1782C183.809 86.9418 183.851 86.6775 184.035 86.5106C184.164 86.4139 184.312 86.3461 184.469 86.3119C185.317 86.0436 186.193 85.5468 186.476 84.7023C186.541 84.5313 186.557 84.3453 186.521 84.1657C186.392 83.6312 185.726 83.4702 185.22 83.2755C184.713 83.0808 184.226 82.7549 183.729 82.5045C183.233 82.2541 182.656 82.0753 182.11 82.2024C181.832 82.2897 181.56 82.3918 181.293 82.5085C180.47 82.7926 179.461 82.6615 178.823 83.2536C178.545 83.5497 178.341 83.9071 178.227 84.2969C177.78 85.5309 177.5 86.9994 178.237 88.0844C178.69 88.7541 179.133 89.5191 180.007 89.5986C181.025 89.69 181.43 88.76 181.591 87.9016Z" fill="#2F2E41"/>
<g opacity="0.1">
<path d="M183.145 86.7565C183.223 86.5221 183.265 86.2558 183.447 86.0889C183.576 85.9933 183.724 85.9256 183.881 85.8902C184.731 85.6219 185.605 85.1271 185.89 84.2806C185.954 84.1094 185.97 83.9234 185.933 83.744C185.914 83.6591 185.878 83.5788 185.828 83.5076C186.152 83.6467 186.434 83.8354 186.514 84.1653C186.549 84.3449 186.533 84.5308 186.468 84.7018C186.186 85.5464 185.309 86.0432 184.461 86.3114C184.304 86.3457 184.156 86.4134 184.028 86.5101C183.843 86.6771 183.801 86.9433 183.724 87.1778C183.646 87.4123 183.469 87.6647 183.223 87.6527C182.976 87.6408 182.857 87.4163 182.7 87.2275C182.917 87.1997 183.072 86.9731 183.145 86.7565Z" fill="black"/>
<path d="M179.426 89.173C180.447 89.2664 180.851 88.3384 181.016 87.4799C181.042 87.2503 181.114 87.0282 181.226 86.8262C181.285 86.7249 181.374 86.645 181.482 86.5978C181.589 86.5507 181.708 86.5388 181.822 86.5639C182.011 86.6215 182.132 86.8083 182.262 86.9613C182.17 86.97 182.082 86.9997 182.005 87.0479C181.927 87.0962 181.861 87.1617 181.812 87.2395C181.7 87.4416 181.629 87.6637 181.602 87.8933C181.441 88.7517 181.035 89.6817 180.012 89.5863C179.607 89.5431 179.232 89.3495 178.963 89.0438C179.109 89.1118 179.266 89.1554 179.426 89.173Z" fill="black"/>
</g>
<path d="M33.9363 129.222L37.7396 126.985C37.2242 126.107 36.5668 125.322 35.7942 124.66L28.6187 126.891L34.2502 123.585C32.8581 122.822 31.2915 122.435 29.7044 122.462C28.1174 122.489 26.5646 122.928 25.1991 123.737C23.8335 124.546 22.7022 125.697 21.9164 127.076C21.1306 128.455 20.7175 130.015 20.7178 131.603C20.7178 136.65 24.8093 136.827 29.8586 136.827C34.908 136.827 38.9995 136.65 38.9995 131.603C38.9984 130.324 38.7275 129.061 38.2046 127.895L33.9363 129.222Z" fill="#386FA4"/>
<path opacity="0.1" d="M34.9042 134.13C34.4994 133.724 34.0471 133.369 33.5569 133.071C32.8654 132.612 32.152 132.143 31.3373 131.988C30.6219 131.851 29.8847 131.966 29.1515 131.927C27.8862 131.849 26.6953 131.303 25.8111 130.395C25.2924 129.858 24.8831 129.202 24.2591 128.787C23.5855 128.346 22.731 128.25 21.9322 128.36C21.7005 128.394 21.4709 128.441 21.2446 128.501C20.886 129.496 20.7031 130.545 20.7041 131.603C20.7041 136.65 24.7956 136.827 29.845 136.827C32.2951 136.827 34.5187 136.785 36.1601 136.165L35.8859 135.653C35.6243 135.106 35.2945 134.594 34.9042 134.13Z" fill="black"/>
<path d="M116.041 142.001L110.996 139.034C111.68 137.87 112.553 136.828 113.579 135.95L123.096 138.909L115.638 134.526C117.484 133.514 119.561 133.001 121.666 133.036C123.771 133.072 125.83 133.654 127.641 134.727C129.451 135.8 130.952 137.326 131.994 139.155C133.036 140.983 133.584 143.052 133.584 145.157C133.584 151.852 128.157 152.084 121.462 152.084C114.768 152.084 109.341 151.852 109.341 145.157C109.339 143.463 109.693 141.787 110.38 140.239L116.041 142.001Z" fill="#386FA4"/>
<path opacity="0.1" d="M114.754 148.509C115.292 147.971 115.892 147.499 116.543 147.104C117.459 146.496 118.407 145.876 119.486 145.67C120.433 145.489 121.411 145.642 122.375 145.586C124.053 145.483 125.632 144.76 126.806 143.557C127.494 142.844 128.036 141.968 128.865 141.425C129.757 140.829 130.89 140.712 131.949 140.859C132.257 140.902 132.562 140.965 132.863 141.046C133.338 142.364 133.58 143.756 133.578 145.157C133.578 151.852 128.152 152.084 121.457 152.084C118.208 152.084 115.259 152.031 113.081 151.208L113.445 150.528C113.824 149.819 114.21 149.106 114.754 148.509Z" fill="black"/>
</g>
<defs>
<linearGradient id="paint0_linear_192_5990" x1="108.865" y1="41.4236" x2="161.386" y2="10.2774" gradientUnits="userSpaceOnUse">
<stop stop-color="#808080" stop-opacity="0.25"/>
<stop offset="0.54" stop-color="#808080" stop-opacity="0.12"/>
<stop offset="1" stop-color="#808080" stop-opacity="0.1"/>
</linearGradient>
<linearGradient id="paint1_linear_192_5990" x1="178.757" y1="147.019" x2="181.367" y2="81.7634" gradientUnits="userSpaceOnUse">
<stop stop-color="#808080" stop-opacity="0.25"/>
<stop offset="0.54" stop-color="#808080" stop-opacity="0.12"/>
<stop offset="1" stop-color="#808080" stop-opacity="0.1"/>
</linearGradient>
<clipPath id="clip0_192_5990">
<rect width="217.537" height="156.724" fill="white"/>
</clipPath>
</defs>
</svg>
