<svg width="16" height="17" viewBox="0 0 16 17" fill="none" xmlns="http://www.w3.org/2000/svg">
<path d="M8.00033 9.00004C5.88699 9.00004 4.16699 7.28004 4.16699 5.16671C4.16699 3.05337 5.88699 1.33337 8.00033 1.33337C10.1137 1.33337 11.8337 3.05337 11.8337 5.16671C11.8337 7.28004 10.1137 9.00004 8.00033 9.00004ZM8.00033 2.33337C6.44033 2.33337 5.16699 3.60671 5.16699 5.16671C5.16699 6.72671 6.44033 8.00004 8.00033 8.00004C9.56033 8.00004 10.8337 6.72671 10.8337 5.16671C10.8337 3.60671 9.56033 2.33337 8.00033 2.33337Z" fill="#11CDF3"/>
<path d="M2.27344 15.6667C2.0001 15.6667 1.77344 15.44 1.77344 15.1667C1.77344 12.32 4.56677 10 8.0001 10C8.67344 10 9.33343 10.0867 9.97343 10.2667C10.2401 10.34 10.3934 10.6133 10.3201 10.88C10.2468 11.1467 9.97343 11.3 9.70677 11.2267C9.1601 11.0734 8.58677 11 8.0001 11C5.1201 11 2.77344 12.8667 2.77344 15.1667C2.77344 15.44 2.54677 15.6667 2.27344 15.6667Z" fill="#11CDF3"/>
<path d="M11.9997 15.6667C11.213 15.6667 10.4663 15.3734 9.88633 14.8467C9.653 14.6467 9.44634 14.4 9.28634 14.1267C8.993 13.6467 8.83301 13.08 8.83301 12.5C8.83301 11.6667 9.15301 10.8867 9.72634 10.2934C10.3263 9.67338 11.133 9.33337 11.9997 9.33337C12.9063 9.33337 13.7663 9.72005 14.353 10.3867C14.873 10.9667 15.1663 11.7134 15.1663 12.5C15.1663 12.7534 15.133 13.0067 15.0663 13.2467C14.9997 13.5467 14.873 13.86 14.6997 14.1334C14.1463 15.08 13.1063 15.6667 11.9997 15.6667ZM11.9997 10.3334C11.4063 10.3334 10.8597 10.5667 10.4464 10.9867C10.053 11.3934 9.83301 11.9267 9.83301 12.5C9.83301 12.8934 9.93968 13.28 10.1463 13.6134C10.253 13.8 10.393 13.9667 10.553 14.1067C10.953 14.4734 11.4663 14.6734 11.9997 14.6734C12.753 14.6734 13.4663 14.2734 13.853 13.6267C13.9663 13.44 14.053 13.2267 14.0997 13.0201C14.1463 12.8467 14.1663 12.68 14.1663 12.5067C14.1663 11.9734 13.9663 11.4601 13.6063 11.0601C13.2063 10.5934 12.6197 10.3334 11.9997 10.3334Z" fill="#11CDF3"/>
<path d="M13.0002 12.9867H11.0068C10.7335 12.9867 10.5068 12.76 10.5068 12.4867C10.5068 12.2134 10.7335 11.9867 11.0068 11.9867H13.0002C13.2735 11.9867 13.5002 12.2134 13.5002 12.4867C13.5002 12.76 13.2735 12.9867 13.0002 12.9867Z" fill="#11CDF3"/>
<path d="M12 14.0066C11.7267 14.0066 11.5 13.78 11.5 13.5066V11.5133C11.5 11.24 11.7267 11.0133 12 11.0133C12.2733 11.0133 12.5 11.24 12.5 11.5133V13.5066C12.5 13.7866 12.2733 14.0066 12 14.0066Z" fill="#11CDF3"/>
</svg>
