<svg width="24" height="24" viewBox="0 0 24 24" fill="none" xmlns="http://www.w3.org/2000/svg">
<path d="M10.5214 2.6239C10.7088 2.41799 10.9372 2.25349 11.1919 2.14092C11.4466 2.02836 11.7219 1.97021 12.0004 1.97021C12.2788 1.97021 12.5542 2.02836 12.8089 2.14092C13.0636 2.25349 13.292 2.41799 13.4794 2.6239L14.4994 3.7439C14.6974 3.96132 14.941 4.13238 15.2127 4.24491C15.4844 4.35743 15.7776 4.40864 16.0714 4.3949L17.5844 4.3249C17.8624 4.3118 18.1401 4.35688 18.3997 4.45725C18.6593 4.55762 18.8951 4.71108 19.0921 4.9078C19.289 5.10452 19.4426 5.34017 19.5433 5.59969C19.6439 5.8592 19.6892 6.13686 19.6764 6.4149L19.6054 7.9289C19.5916 8.22268 19.6429 8.51586 19.7554 8.78758C19.8679 9.0593 20.039 9.30286 20.2564 9.5009L21.3764 10.5209C21.5823 10.7083 21.7468 10.9367 21.8594 11.1914C21.9719 11.4461 22.0301 11.7215 22.0301 11.9999C22.0301 12.2783 21.9719 12.5537 21.8594 12.8084C21.7468 13.0631 21.5823 13.2915 21.3764 13.4789L20.2564 14.4989C20.039 14.6969 19.8679 14.9405 19.7554 15.2122C19.6429 15.4839 19.5916 15.7771 19.6054 16.0709L19.6754 17.5839C19.6885 17.8619 19.6434 18.1396 19.543 18.3992C19.4427 18.6589 19.2892 18.8947 19.0925 19.0916C18.8958 19.2885 18.6601 19.4422 18.4006 19.5428C18.1411 19.6434 17.8634 19.6887 17.5854 19.6759L16.0714 19.6049C15.7776 19.5912 15.4844 19.6424 15.2127 19.7549C14.941 19.8674 14.6974 20.0385 14.4994 20.2559L13.4794 21.3759C13.292 21.5818 13.0636 21.7463 12.8089 21.8589C12.5542 21.9714 12.2788 22.0296 12.0004 22.0296C11.7219 22.0296 11.4466 21.9714 11.1919 21.8589C10.9372 21.7463 10.7088 21.5818 10.5214 21.3759L9.50139 20.2559C9.30334 20.0385 9.05979 19.8674 8.78807 19.7549C8.51635 19.6424 8.22316 19.5912 7.92939 19.6049L6.41639 19.6749C6.13836 19.688 5.86066 19.6429 5.60105 19.5426C5.34144 19.4422 5.10563 19.2887 4.90873 19.092C4.71182 18.8953 4.55814 18.6596 4.45752 18.4001C4.3569 18.1406 4.31156 17.8629 4.32439 17.5849L4.39539 16.0709C4.40913 15.7771 4.35792 15.4839 4.24539 15.2122C4.13287 14.9405 3.96181 14.6969 3.74439 14.4989L2.62439 13.4789C2.41848 13.2915 2.25397 13.0631 2.14141 12.8084C2.02885 12.5537 1.9707 12.2783 1.9707 11.9999C1.9707 11.7215 2.02885 11.4461 2.14141 11.1914C2.25397 10.9367 2.41848 10.7083 2.62439 10.5209L3.74439 9.5009C3.96181 9.30286 4.13287 9.0593 4.24539 8.78758C4.35792 8.51586 4.40913 8.22268 4.39539 7.9289L4.32539 6.4159C4.31229 6.13787 4.35737 5.86017 4.45774 5.60056C4.55811 5.34095 4.71156 5.10515 4.90828 4.90824C5.105 4.71133 5.34066 4.55765 5.60017 4.45703C5.85969 4.35641 6.13735 4.31107 6.41539 4.3239L7.92939 4.3949C8.22316 4.40864 8.51635 4.35743 8.78807 4.24491C9.05979 4.13238 9.30334 3.96132 9.50139 3.7439L10.5214 2.6239V2.6239Z" stroke="black" stroke-width="1.5"/>
<path d="M9 12L11 14L15 10" stroke="black" stroke-width="1.5" stroke-linecap="round" stroke-linejoin="round"/>
</svg>
