<svg width="27" height="16" viewBox="0 0 27 16" fill="none" xmlns="http://www.w3.org/2000/svg">
<path d="M17.3179 0.5C15.4301 0.5 13.743 2.20379 13.743 5.35166C13.743 8.96169 16.7351 9.21103 16.7351 11.0246C16.7351 11.7882 16.2325 12.4718 15.3741 12.4718C14.1558 12.4718 13.2453 11.5166 13.2453 11.5166L12.8557 14.6932C12.8557 14.6932 13.9046 15.5 15.2972 15.5C17.3613 15.5 18.9854 13.7126 18.9854 10.5109C18.9854 6.69622 15.9808 6.45428 15.9808 4.77098C15.9808 4.1728 16.3934 3.51737 17.2494 3.51737C18.2151 3.51737 19.0031 4.21201 19.0031 4.21201L19.3844 1.14399C19.3844 1.14399 18.527 0.5 17.3179 0.5ZM0.0457129 0.731549L0 1.19465C0 1.19465 0.794232 1.44774 1.50957 1.95261C2.43062 2.53154 2.49623 2.86856 2.65135 3.91534L4.34169 15.2612H6.6076L10.0984 0.731549H7.83769L5.59464 10.6103L4.67934 2.23661C4.5954 1.27825 4.17022 0.731549 3.64976 0.731549H0.0457129ZM11.0075 0.731549L9.23401 15.2612H11.3898L13.157 0.731549H11.0075ZM23.031 0.731549C22.5112 0.731549 22.2357 1.21614 22.0336 2.06295L18.8753 15.2612H21.136L21.5734 13.0615H24.3276L24.5936 15.2612H26.5883L24.8481 0.731549H23.031ZM23.325 4.65702L23.9951 10.1093H22.1999L23.325 4.65702Z" fill="#1434CB"/>
</svg>
